<svg width="20" height="20" viewBox="0 0 20 20" fill="none" xmlns="http://www.w3.org/2000/svg">
<g clip-path="url(#clip0_4246_15173)">
<path d="M12.8259 7.97847C12.4879 7.97847 12.2139 7.70447 12.2139 7.36647V4.48097C12.2139 3.25997 11.2209 2.26647 9.99941 2.26647C8.77791 2.26647 7.78491 3.25997 7.78491 4.48097V7.36647C7.78491 7.70447 7.51091 7.97847 7.17291 7.97847C6.83491 7.97847 6.56091 7.70447 6.56091 7.36647V4.48097C6.56091 2.58497 8.10341 1.04297 9.99891 1.04297C11.8944 1.04297 13.4369 2.58497 13.4369 4.48097V7.36647C13.4369 7.70447 13.1629 7.97847 12.8249 7.97847H12.8259Z" fill="#4E5968"/>
<path d="M15.316 4.48047H4.68396C4.28146 4.48047 3.93946 4.77397 3.87796 5.17147L2.27896 15.526C2.04996 17.0085 3.19696 18.3465 4.69696 18.3465H15.302C16.802 18.3465 17.949 17.009 17.72 15.526L16.121 5.17147C16.0595 4.77397 15.7175 4.48047 15.315 4.48047H15.316Z" fill="#EF4452"/>
</g>
<defs>
<clipPath id="clip0_4246_15173">
<rect width="20" height="20" fill="white"/>
</clipPath>
</defs>
</svg>
