<svg width="20" height="20" viewBox="0 0 20 20" fill="none" xmlns="http://www.w3.org/2000/svg">
<g clip-path="url(#clip0_4246_9617)">
<path d="M14.25 1.75H5.75C3.54086 1.75 1.75 3.54086 1.75 5.75V14.25C1.75 16.4591 3.54086 18.25 5.75 18.25H14.25C16.4591 18.25 18.25 16.4591 18.25 14.25V5.75C18.25 3.54086 16.4591 1.75 14.25 1.75Z" fill="#00BD79"/>
<path d="M9.05148 13.3435C8.82098 13.3435 8.59098 13.256 8.41498 13.08L5.42598 10.091C5.07448 9.73945 5.07448 9.16945 5.42598 8.81795C5.77748 8.46695 6.34748 8.46695 6.69898 8.81795L9.05148 11.171L13.301 6.92145C13.653 6.57045 14.223 6.57045 14.574 6.92145C14.9255 7.27295 14.9255 7.84295 14.574 8.19445L9.68798 13.08C9.51198 13.2555 9.28198 13.3435 9.05148 13.3435Z" fill="white"/>
</g>
<defs>
<clipPath id="clip0_4246_9617">
<rect width="20" height="20" fill="white"/>
</clipPath>
</defs>
</svg>
