<svg width="20" height="20" viewBox="0 0 20 20" fill="none" xmlns="http://www.w3.org/2000/svg">
<g clip-path="url(#clip0_4246_15388)">
<path d="M10 17.9551C13.935 17.9551 17.125 14.7651 17.125 10.8301C17.125 6.89505 13.935 3.70508 10 3.70508C6.06497 3.70508 2.875 6.89505 2.875 10.8301C2.875 14.7651 6.06497 17.9551 10 17.9551Z" fill="#E5E8EB"/>
<path d="M9.99999 18.7265C5.64649 18.7265 2.10449 15.185 2.10449 10.831C2.10449 6.47705 5.64599 2.93555 9.99999 2.93555C14.354 2.93555 17.8955 6.47705 17.8955 10.831C17.8955 15.185 14.354 18.7265 9.99999 18.7265ZM9.99999 4.47655C6.49599 4.47655 3.64549 7.32755 3.64549 10.831C3.64549 14.3345 6.49649 17.1855 9.99999 17.1855C13.5035 17.1855 16.3545 14.3345 16.3545 10.831C16.3545 7.32755 13.5035 4.47655 9.99999 4.47655Z" fill="#EF4452"/>
<path d="M16.8784 5.22657C17.3199 5.53557 17.9514 5.32107 18.0874 4.79957C18.3949 3.62157 17.9614 2.32457 16.9054 1.58557C15.8494 0.846071 14.4829 0.882071 13.4809 1.57407C13.0374 1.88057 13.0514 2.54707 13.4934 2.85657L16.8784 5.22657Z" fill="#EF4452"/>
<path d="M3.12146 5.22657C2.67996 5.53557 2.04846 5.32107 1.91246 4.79957C1.60496 3.62157 2.03846 2.32457 3.09446 1.58557C4.15046 0.846071 5.51696 0.882071 6.51896 1.57407C6.96246 1.88057 6.94846 2.54707 6.50646 2.85657L3.12146 5.22657Z" fill="#EF4452"/>
<path d="M9.99993 11.6015H7.05993C6.63443 11.6015 6.28943 11.2565 6.28943 10.831C6.28943 10.4055 6.63443 10.0605 7.05993 10.0605H9.99993C10.4254 10.0605 10.7704 10.4055 10.7704 10.831C10.7704 11.2565 10.4254 11.6015 9.99993 11.6015Z" fill="#EF4452"/>
<path d="M9.99999 11.6017C9.57449 11.6017 9.22949 11.2567 9.22949 10.8312V6.6162C9.22949 6.1907 9.57449 5.8457 9.99999 5.8457C10.4255 5.8457 10.7705 6.1907 10.7705 6.6162V10.8312C10.7705 11.2567 10.4255 11.6017 9.99999 11.6017Z" fill="#313D4C"/>
</g>
<defs>
<clipPath id="clip0_4246_15388">
<rect width="20" height="20" fill="white"/>
</clipPath>
</defs>
</svg>
