<svg width="20" height="20" viewBox="0 0 20 20" fill="none" xmlns="http://www.w3.org/2000/svg">
<g clip-path="url(#clip0_4246_15347)">
<path d="M7.91354 4.50621C7.62854 4.31871 7.24504 4.39771 7.05754 4.68271L6.38604 5.40521L6.21704 4.58571L5.81704 2.23571V2.23521C5.76704 1.94171 5.49404 1.74371 5.20704 1.79271C4.92004 1.84171 4.72804 2.11871 4.77804 2.41221L5.12204 4.43421L4.86104 4.48821L4.30054 2.18121C4.23054 1.89221 3.94404 1.71371 3.66154 1.78221C3.37854 1.85071 3.20654 2.14071 3.27654 2.43021L3.83154 4.71471L3.61754 4.82021L2.86504 2.92471C2.75754 2.65371 2.45104 2.52121 2.18054 2.62871C1.91004 2.73621 1.77804 3.04271 1.88554 3.31371L2.66904 5.28721L2.40704 5.41621L1.75004 4.04821C1.62104 3.77921 1.30354 3.66321 1.04104 3.78921C0.778538 3.91521 0.671038 4.23521 0.800038 4.50421L2.03604 7.07771L2.04054 7.07471C2.46404 8.26271 3.70604 8.98921 4.97654 8.72721C5.67154 8.58371 6.24254 8.17221 6.60404 7.62271L8.09104 5.36321C8.27854 5.07821 8.19954 4.69471 7.91454 4.50721L7.91354 4.50621Z" fill="#FFCBA7"/>
<path d="M13.7055 12.3921L13.6735 12.5781C13.5765 13.1406 13.042 13.5181 12.479 13.4211C11.9165 13.3241 11.539 12.7891 11.636 12.2266L11.668 12.0411C11.418 12.0211 11.166 12.0041 10.9065 11.9991L10.562 11.9671C7.57804 11.5151 7.11354 8.78456 7.02504 7.89906C7.01154 7.76406 6.89754 7.66456 6.76204 7.66806L2.28554 7.77506C2.14004 7.77856 2.02204 7.89956 2.03154 8.04456C2.17904 10.2371 3.58954 13.8691 7.09054 15.6301C7.16154 15.6661 7.20804 15.7376 7.20854 15.8171L7.23204 18.5286C7.23304 18.6471 7.32904 18.7421 7.44754 18.7421H19.1585C19.1585 15.7686 17.0785 13.3146 13.7045 12.3926L13.7055 12.3921Z" fill="#AAB6C6"/>
<path d="M17.0051 10.2147C16.3936 11.0687 15.4831 11.6667 14.4581 11.8972L16.2571 12.2747C16.6501 12.3572 17.0451 12.1417 17.1876 11.7662L17.7831 10.2012C17.5366 10.2587 17.2736 10.2712 17.0051 10.2147Z" fill="#333333"/>
<path d="M9.31508 8.59986H9.31008C8.96308 8.52486 8.66158 8.35686 8.42908 8.13086L8.49908 10.0144C8.51308 10.3889 8.78008 10.7059 9.14708 10.7829L10.9596 11.1634C10.1176 10.5414 9.52858 9.62986 9.31508 8.59986Z" fill="#333333"/>
<path d="M9.44106 6.42624L12.8691 3.90274C12.8691 3.90274 15.6711 7.31674 17.9261 7.63624C17.9756 7.64324 18.0361 7.63824 18.0966 7.62574C18.2556 7.57524 18.4056 7.45874 18.5121 7.49974C18.5166 7.50124 18.5221 7.49974 18.5266 7.50174C19.1756 4.62124 17.1851 1.74024 14.1751 1.43824C11.8601 1.20624 9.66056 2.66574 8.97106 4.88774C8.90106 5.11374 8.84756 5.34024 8.81006 5.56624C8.81006 5.56624 8.82856 5.56774 8.85406 5.57274C8.96606 5.59424 9.27906 5.71624 9.44106 6.42624Z" fill="#333333"/>
<path d="M18.5126 7.49934C18.4061 7.45834 18.2561 7.57484 18.0971 7.62534C18.0361 7.63734 17.9761 7.64284 17.9266 7.63584C15.6716 7.31634 12.8696 3.90234 12.8696 3.90234L9.4416 6.42584C9.2791 5.71634 8.9661 5.59434 8.8546 5.57234C8.4106 5.78234 8.0696 6.17084 7.9656 6.66934C7.8501 7.21334 8.0431 7.75284 8.4296 8.13034C8.6616 8.35684 8.9636 8.52484 9.3106 8.59934H9.3156C9.5296 9.62934 10.1181 10.5408 10.9601 11.1623C11.2011 11.3403 11.4601 11.4983 11.7406 11.6243L11.6706 12.0393L11.6356 12.2243C11.5406 12.7893 11.9156 13.3243 12.4806 13.4193C13.0406 13.5193 13.5756 13.1393 13.6756 12.5793L13.7056 12.3943L13.7756 11.9993C14.0081 11.9858 14.2351 11.9473 14.4586 11.8968C15.4836 11.6663 16.3941 11.0683 17.0056 10.2143C17.2741 10.2708 17.5371 10.2588 17.7836 10.2013C18.3906 10.0593 18.8841 9.60834 19.0156 8.98984C19.1356 8.43034 18.9226 7.87734 18.5131 7.49984L18.5126 7.49934Z" fill="#FFCBA7"/>
<path d="M12.8224 7.34992C12.8847 7.05318 12.7347 6.77055 12.4874 6.71864C12.2401 6.66672 11.9892 6.86519 11.9269 7.16193C11.8646 7.45867 12.0145 7.7413 12.2618 7.79321C12.5091 7.84513 12.7601 7.64666 12.8224 7.34992Z" fill="black"/>
<path d="M15.1871 7.84601C15.2494 7.54928 15.0994 7.26664 14.8522 7.21473C14.6049 7.16282 14.3539 7.36129 14.2916 7.65802C14.2293 7.95476 14.3793 8.2374 14.6266 8.28931C14.8739 8.34122 15.1248 8.14275 15.1871 7.84601Z" fill="black"/>
<path d="M13.6696 9.74085C13.7701 9.76185 13.8216 9.87386 13.7746 9.96536C13.6251 10.2559 13.2951 10.4234 12.9596 10.3529C12.6241 10.2824 12.3896 9.99686 12.3691 9.67036C12.3626 9.56786 12.4546 9.48586 12.5551 9.50736L13.6691 9.74136L13.6696 9.74085Z" fill="#5C2F17"/>
</g>
<defs>
<clipPath id="clip0_4246_15347">
<rect width="20" height="20" fill="white"/>
</clipPath>
</defs>
</svg>
