<svg width="20" height="20" viewBox="0 0 20 20" fill="none" xmlns="http://www.w3.org/2000/svg">
<g clip-path="url(#clip0_4246_15187)">
<path d="M3.08154 18.5732L14.738 14.3837L5.12404 4.80273L0.954039 16.4482C0.480539 17.7712 1.75954 19.0482 3.08154 18.5732Z" fill="#EF4452"/>
<path d="M5.17802 2.33089C5.69385 2.33089 6.11202 1.91272 6.11202 1.39689C6.11202 0.881057 5.69385 0.462891 5.17802 0.462891C4.66218 0.462891 4.24402 0.881057 4.24402 1.39689C4.24402 1.91272 4.66218 2.33089 5.17802 2.33089Z" fill="#EDCCF8"/>
<path d="M15.1647 14.1289C16.1664 13.1272 14.7894 10.1262 12.0891 7.4259C9.38886 4.72561 6.38781 3.34864 5.38612 4.35033C4.38442 5.35203 5.7614 8.35307 8.46168 11.0534C11.162 13.7536 14.163 15.1306 15.1647 14.1289Z" fill="#A41926"/>
<path d="M8.53153 6.90413C8.47503 6.90413 8.41703 6.89613 8.35953 6.88013C8.02753 6.78563 7.83553 6.43963 7.93003 6.10763C8.22803 5.06413 8.21204 3.96213 7.88354 2.92063C7.77954 2.59113 7.96254 2.24063 8.29154 2.13663C8.62054 2.03263 8.97153 2.21513 9.07553 2.54463C9.47803 3.82013 9.49753 5.17113 9.13204 6.45063C9.05353 6.72513 8.80403 6.90413 8.53153 6.90413Z" fill="#B44BD7"/>
<path d="M14.6846 8.72897C14.4911 8.72897 14.3001 8.63947 14.1781 8.47047C13.9756 8.19097 14.0381 7.80047 14.3176 7.59747C15.6396 6.63947 17.2051 6.09497 18.8451 6.02347C19.1926 6.01997 19.4816 6.27597 19.4971 6.62047C19.5121 6.96547 19.2446 7.25697 18.9001 7.27247C17.5051 7.33347 16.1746 7.79597 15.0511 8.60997C14.9401 8.69047 14.8121 8.72897 14.6851 8.72897H14.6846Z" fill="#EF4452"/>
<path d="M17.19 11.883C17.1105 11.883 17.0295 11.8675 16.951 11.835C16.531 11.661 16.093 11.527 15.649 11.4365C14.2625 11.1535 12.835 11.291 11.521 11.835C11.2005 11.9665 10.836 11.8155 10.7045 11.497C10.5725 11.178 10.724 10.8125 11.0425 10.6805C12.588 10.0405 14.268 9.87849 15.899 10.212C16.421 10.3185 16.936 10.476 17.4295 10.6805C17.7485 10.8125 17.9 11.178 17.768 11.497C17.6685 11.7375 17.435 11.883 17.19 11.883Z" fill="#7896FF"/>
<path d="M10.6785 8.78643C10.491 8.78643 10.305 8.70243 10.182 8.54193C9.97198 8.26843 10.0235 7.87593 10.2975 7.66593C11.801 6.51243 12.765 4.84243 13.0125 2.96343C13.0575 2.62143 13.372 2.37993 13.7135 2.42543C14.056 2.47043 14.297 2.78443 14.2515 3.12643C13.9605 5.33643 12.8265 7.30043 11.058 8.65743C10.9445 8.74443 10.8115 8.78643 10.6785 8.78643Z" fill="#4A81EC"/>
<path d="M7.86516 9.86817L7.86539 8.92967C7.86544 8.73444 7.70721 8.57613 7.51198 8.57609L6.57348 8.57586C6.37825 8.57581 6.21994 8.73404 6.21989 8.92927L6.21966 9.86777C6.21962 10.063 6.37784 10.2213 6.57308 10.2214L7.51158 10.2216C7.70681 10.2216 7.86512 10.0634 7.86516 9.86817Z" fill="white"/>
<path d="M11.8075 0.277912L10.9503 0.710246C10.7721 0.800159 10.7005 1.01755 10.7904 1.19581L11.2227 2.05295C11.3126 2.23121 11.53 2.30283 11.7083 2.21292L12.5654 1.78058C12.7437 1.69067 12.8153 1.47328 12.7254 1.29502L12.293 0.437878C12.2031 0.259619 11.9857 0.188 11.8075 0.277912Z" fill="#7896FF"/>
<path d="M18.6673 14.7008L18.9581 13.7859C19.0186 13.5956 18.9134 13.3924 18.7231 13.3319L17.8082 13.0411C17.618 12.9806 17.4147 13.0858 17.3542 13.2761L17.0634 14.191C17.0029 14.3812 17.1081 14.5845 17.2984 14.645L18.2133 14.9358C18.4035 14.9963 18.6068 14.8911 18.6673 14.7008Z" fill="#A8BFFF"/>
<path d="M16.767 5.25791C17.1823 5.25791 17.519 4.92122 17.519 4.50591C17.519 4.09059 17.1823 3.75391 16.767 3.75391C16.3517 3.75391 16.015 4.09059 16.015 4.50591C16.015 4.92122 16.3517 5.25791 16.767 5.25791Z" fill="#FFC84D"/>
<path d="M1.752 8.51767C2.16732 8.51767 2.504 8.18099 2.504 7.76567C2.504 7.35035 2.16732 7.01367 1.752 7.01367C1.33668 7.01367 1 7.35035 1 7.76567C1 8.18099 1.33668 8.51767 1.752 8.51767Z" fill="#A8BFFF"/>
<path d="M12.282 18.3253C12.7667 18.3253 13.1595 17.9324 13.1595 17.4478C13.1595 16.9632 12.7667 16.5703 12.282 16.5703C11.7974 16.5703 11.4045 16.9632 11.4045 17.4478C11.4045 17.9324 11.7974 18.3253 12.282 18.3253Z" fill="#FFC84D"/>
</g>
<defs>
<clipPath id="clip0_4246_15187">
<rect width="20" height="20" fill="white"/>
</clipPath>
</defs>
</svg>
