<svg width="20" height="20" viewBox="0 0 20 20" fill="none" xmlns="http://www.w3.org/2000/svg">
<g clip-path="url(#clip0_4246_9583)">
<path d="M4.00049 17.6043H15.999C16.557 17.6043 17.0095 17.1518 17.0095 16.5938V8.50977H2.98999V16.5938C2.98999 17.1518 3.44249 17.6043 4.00049 17.6043Z" fill="#D0D5DA"/>
<path d="M12.658 8.50977H7.34253V17.6043H12.658V8.50977Z" fill="#D0D5DA"/>
<path d="M9.19591 14.6953H10.8039C11.1629 14.6953 11.4544 14.9868 11.4544 15.3458V17.6043H8.54541V15.3458C8.54541 14.9868 8.83691 14.6953 9.19591 14.6953Z" fill="#6B7683"/>
<path fill-rule="evenodd" clip-rule="evenodd" d="M17.1515 2.39648H2.9695C2.434 2.39648 2 2.83048 2 3.36598V8.69948C2 9.23498 2.434 9.66898 2.9695 9.66898H17.03C17.5655 9.66898 17.9995 9.23498 17.9995 8.69948V3.24498C17.9995 2.77648 17.6195 2.39648 17.151 2.39648H17.1515Z" fill="#2F81F9"/>
<path d="M7.25 5.0332H2V7.0332H7.25V5.0332Z" fill="#93C9FF"/>
<path d="M18 5.0332H12.75V7.0332H18V5.0332Z" fill="#93C9FF"/>
<path d="M9 7.5332H11C11.276 7.5332 11.5 7.3092 11.5 7.0332V5.0332C11.5 4.7572 11.276 4.5332 11 4.5332H9C8.724 4.5332 8.5 4.7572 8.5 5.0332V7.0332C8.5 7.3092 8.724 7.5332 9 7.5332Z" fill="white"/>
</g>
<defs>
<clipPath id="clip0_4246_9583">
<rect width="20" height="20" fill="white"/>
</clipPath>
</defs>
</svg>
