<svg width="20" height="20" viewBox="0 0 20 20" fill="none" xmlns="http://www.w3.org/2000/svg">
<g clip-path="url(#clip0_4246_15208)">
<path d="M14.25 1.75H5.75C3.54086 1.75 1.75 3.54086 1.75 5.75V14.25C1.75 16.4591 3.54086 18.25 5.75 18.25H14.25C16.4591 18.25 18.25 16.4591 18.25 14.25V5.75C18.25 3.54086 16.4591 1.75 14.25 1.75Z" fill="#EF4452"/>
<path d="M13.25 14.2499C12.994 14.2499 12.7385 14.1524 12.543 13.9569L6.043 7.45687C5.6525 7.06637 5.6525 6.43338 6.043 6.04287C6.4335 5.65237 7.0665 5.65237 7.457 6.04287L13.957 12.5429C14.3475 12.9334 14.3475 13.5664 13.957 13.9569C13.7615 14.1524 13.506 14.2499 13.25 14.2499Z" fill="white"/>
<path d="M6.75 14.2499C6.494 14.2499 6.2385 14.1524 6.043 13.9569C5.6525 13.5664 5.6525 12.9334 6.043 12.5429L12.543 6.04287C12.9335 5.65237 13.5665 5.65237 13.957 6.04287C14.3475 6.43338 14.3475 7.06637 13.957 7.45687L7.457 13.9569C7.2615 14.1524 7.006 14.2499 6.75 14.2499Z" fill="white"/>
</g>
<defs>
<clipPath id="clip0_4246_15208">
<rect width="20" height="20" fill="white"/>
</clipPath>
</defs>
</svg>
