<svg width="40" height="40" viewBox="0 0 40 40" fill="none" xmlns="http://www.w3.org/2000/svg">
<g clip-path="url(#clip0_4983_26209)">
<path d="M31.772 36.9099L31.284 34.9259C31.094 34.1539 30.844 33.3909 30.448 32.7019C29.484 31.0219 27.962 29.7109 26.123 29.0119L22.304 27.5609C21.826 27.3789 21.335 27.2449 20.84 27.1409V28.7499C20.84 29.8499 19.95 30.7399 18.85 30.7399C17.75 30.7399 16.86 29.8499 16.86 28.7499V27.1379C16.36 27.2419 15.864 27.3779 15.381 27.5619L11.562 29.0129C10.183 29.5369 8.98199 30.4059 8.06099 31.5159C7.18399 32.5739 6.65399 33.8759 6.37499 35.2219L6.02199 36.9279C5.96099 37.2229 6.18599 37.5009 6.48799 37.5009H31.31C31.619 37.5009 31.846 37.2099 31.772 36.9099Z" fill="#C4C4C4"/>
<path d="M22.304 25.483H25.836C26.612 25.483 27.272 24.919 27.393 24.153L27.899 20.95C27.457 21.158 26.967 21.2869 26.441 21.2889C25.628 23.1459 24.142 24.635 22.305 25.482L22.304 25.483Z" fill="#333333"/>
<path d="M11.24 21.2899C10.557 21.2829 9.92496 21.0849 9.39996 20.7529L10.28 24.2889C10.455 24.9909 11.086 25.4839 11.809 25.4839H15.39C13.547 24.6369 12.06 23.1469 11.239 21.2909L11.24 21.2899Z" fill="#333333"/>
<path d="M20.1599 13.74C22.3409 15.003 25.0119 16.198 27.1489 16.056C27.2459 16.05 27.3569 16.016 27.4669 15.969C27.7469 15.811 27.9839 15.533 28.2009 15.566C28.2109 15.567 28.2209 15.561 28.2299 15.564C28.2329 15.382 28.2149 15.206 28.2069 15.027C28.1969 15.029 28.1879 15.035 28.1769 15.032C25.9989 14.324 23.2229 13.857 20.1599 13.74Z" fill="#333333"/>
<path d="M10.482 16.826C10.562 16.971 10.756 17.003 10.866 16.88L13.369 14.079C11.805 14.306 10.374 14.629 9.13796 15.031C9.12796 15.034 9.12096 15.028 9.11196 15.027C9.10496 15.237 9.09296 15.448 9.09996 15.654C9.10196 15.706 9.14196 15.749 9.19296 15.752C9.19496 15.752 9.19496 15.754 9.19696 15.754C9.40896 15.756 9.95196 15.864 10.482 16.826Z" fill="#333333"/>
<path d="M18.85 30.74C19.95 30.74 20.84 29.85 20.84 28.75V26.01C21.35 25.884 21.835 25.699 22.304 25.483C24.142 24.636 25.627 23.146 26.44 21.29C26.966 21.287 27.457 21.158 27.898 20.951C28.985 20.44 29.74 19.396 29.74 18.18C29.74 17.081 29.121 16.121 28.202 15.566C27.985 15.532 27.748 15.811 27.468 15.969C27.358 16.016 27.246 16.05 27.15 16.056C25.012 16.198 22.341 15.002 20.161 13.74C19.667 13.721 19.167 13.709 18.659 13.709C16.79 13.709 15.007 13.841 13.37 14.079L10.867 16.88C10.757 17.003 10.562 16.971 10.483 16.826C9.95298 15.864 9.40998 15.756 9.19798 15.754C9.19598 15.754 9.19598 15.752 9.19398 15.752C8.43298 16.324 7.94098 17.197 7.94098 18.179C7.94098 19.251 8.51898 20.193 9.40098 20.752C9.92598 21.085 10.558 21.282 11.241 21.289C12.062 23.146 13.549 24.635 15.392 25.482C15.862 25.698 16.349 25.883 16.861 26.009V28.749C16.861 29.849 17.751 30.739 18.851 30.739L18.85 30.74Z" fill="#FFCCA8"/>
<path d="M16.51 18.603C16.9976 18.603 17.393 18.1285 17.393 17.543C17.393 16.9576 16.9976 16.483 16.51 16.483C16.0223 16.483 15.627 16.9576 15.627 17.543C15.627 18.1285 16.0223 18.603 16.51 18.603Z" fill="black"/>
<path d="M21.1749 18.603C21.6626 18.603 22.0579 18.1285 22.0579 17.543C22.0579 16.9576 21.6626 16.483 21.1749 16.483C20.6873 16.483 20.2919 16.9576 20.2919 17.543C20.2919 18.1285 20.6873 18.603 21.1749 18.603Z" fill="black"/>
<path d="M19.942 21.723C20.141 21.723 20.282 21.914 20.229 22.105C20.062 22.713 19.505 23.16 18.843 23.16C18.181 23.16 17.624 22.713 17.457 22.105C17.404 21.914 17.545 21.723 17.744 21.723H19.942Z" fill="#5C2F17"/>
<path d="M18.853 29.1441C18.03 29.1441 17.306 28.7351 16.862 28.1121V28.7521C16.862 29.8511 17.753 30.7431 18.853 30.7431C19.953 30.7431 20.844 29.8521 20.844 28.7521V28.1121C20.4 28.7341 19.676 29.1441 18.853 29.1441Z" fill="#FF502E"/>
<path d="M15.828 32.895C16.2047 32.895 16.51 32.5897 16.51 32.213C16.51 31.8363 16.2047 31.531 15.828 31.531C15.4513 31.531 15.146 31.8363 15.146 32.213C15.146 32.5897 15.4513 32.895 15.828 32.895Z" fill="#FF502E"/>
<path d="M22.059 32.895C22.4357 32.895 22.741 32.5897 22.741 32.213C22.741 31.8363 22.4357 31.531 22.059 31.531C21.6824 31.531 21.377 31.8363 21.377 32.213C21.377 32.5897 21.6824 32.895 22.059 32.895Z" fill="#FF502E"/>
<path d="M15.828 36.8039C16.2047 36.8039 16.51 36.4986 16.51 36.1219C16.51 35.7453 16.2047 35.4399 15.828 35.4399C15.4513 35.4399 15.146 35.7453 15.146 36.1219C15.146 36.4986 15.4513 36.8039 15.828 36.8039Z" fill="#FF502E"/>
<path d="M22.059 36.8039C22.4357 36.8039 22.741 36.4986 22.741 36.1219C22.741 35.7453 22.4357 35.4399 22.059 35.4399C21.6824 35.4399 21.377 35.7453 21.377 36.1219C21.377 36.4986 21.6824 36.8039 22.059 36.8039Z" fill="#FF502E"/>
<path d="M31.09 9.056C31.09 7.343 29.701 5.955 27.989 5.955C27.916 5.955 27.848 5.972 27.776 5.976C27.04 4.843 25.651 4.069 24.036 4.069C23.535 4.069 23.061 4.157 22.613 4.293C21.822 3.211 20.553 2.5 19.11 2.5C17.535 2.5 16.169 3.345 15.406 4.598C14.764 4.27 14.023 4.069 13.222 4.069C11.613 4.069 10.226 4.839 9.48898 5.966C9.45298 5.965 9.41898 5.955 9.38298 5.955C7.66998 5.955 6.28198 7.344 6.28198 9.056C6.28198 10.655 7.49698 11.956 9.05098 12.124V14.965C9.05098 14.989 9.06198 15.009 9.07798 15.022C9.06098 15.009 9.05098 14.989 9.05098 14.965V12.149C11.591 11.309 14.962 10.797 18.66 10.797C22.358 10.797 25.728 11.309 28.268 12.149V14.965V12.13C29.849 11.987 31.091 10.674 31.091 9.057L31.09 9.056Z" fill="#E6E6E6"/>
<path d="M28.178 15.031C28.189 15.035 28.198 15.028 28.208 15.026C28.239 15.021 28.266 15 28.266 14.964C28.266 15.012 28.224 15.045 28.178 15.031Z" fill="#E6E6E6"/>
<path d="M18.658 10.797C14.96 10.797 11.59 11.309 9.04999 12.149V14.965C9.04999 14.989 9.06099 15.009 9.07699 15.022C9.08699 15.029 9.09999 15.027 9.11199 15.028C9.12099 15.028 9.12799 15.035 9.13799 15.032C10.374 14.63 11.805 14.307 13.369 14.08C15.006 13.842 16.789 13.71 18.658 13.71C19.166 13.71 19.666 13.722 20.16 13.741C23.222 13.858 26 14.325 28.178 15.033C28.223 15.048 28.267 15.014 28.267 14.966V12.15C25.727 11.31 22.356 10.798 18.658 10.798V10.797Z" fill="#C4C4C4"/>
<path d="M32.586 22.68C31.231 21.974 29.417 22.56 28.334 24.64C27.647 25.959 27.771 27.498 28.09 28.519C28.279 29.125 28.169 29.786 27.862 30.342L27.593 30.803L23.684 37.499H26.117L28.897 31.482L29.18 30.87C29.465 30.291 29.973 29.872 30.574 29.637C31.53 29.263 32.775 28.525 33.418 27.291C34.502 25.211 33.942 23.386 32.587 22.679L32.586 22.68Z" fill="#807057"/>
</g>
<defs>
<clipPath id="clip0_4983_26209">
<rect width="40" height="40" fill="white"/>
</clipPath>
</defs>
</svg>
