<svg width="64" height="61" viewBox="0 0 64 61" fill="none" xmlns="http://www.w3.org/2000/svg">
<g filter="url(#filter0_g_3151_37807)">
<path fill-rule="evenodd" clip-rule="evenodd" d="M45.0678 16.5994C48.4861 13.4488 54.0772 14.135 57.5556 18.1318C61.0337 22.1285 61.0822 27.9225 57.6642 31.0732C56.4652 32.1784 54.9986 32.8096 53.4499 32.9933C53.945 36.4778 53.6562 39.8933 52.4367 42.7889C48.4074 52.3559 34.4989 55.6293 23.4136 50.9608C12.3284 46.2923 5.5622 34.312 9.59104 24.7448C10.7404 22.0156 12.7472 19.5335 15.2858 17.4878C13.8535 16.1073 12.9614 14.2756 12.902 12.2231C12.7677 7.57639 16.9468 3.56286 22.2362 3.25842C27.526 2.95418 31.9235 6.47456 32.0579 11.1214C32.0643 11.343 32.0577 11.563 32.0448 11.7814C34.519 11.8586 36.9685 12.345 39.2684 13.3136C41.2967 14.1678 43.1581 15.3766 44.8217 16.8391C44.902 16.758 44.9833 16.6773 45.0678 16.5994Z" fill="#CD7314"/>
</g>
<g filter="url(#filter1_g_3151_37807)">
<path fill-rule="evenodd" clip-rule="evenodd" d="M43.9953 18.0132C47.1435 15.1925 52.3637 15.8838 55.6549 19.557C58.9459 23.2303 59.0613 28.4947 55.9132 31.3154C54.809 32.3045 53.45 32.8597 52.0088 33.0079C52.5127 36.1793 52.2842 39.2779 51.1827 41.8936C47.5431 50.536 34.6178 53.3413 24.2272 48.9653C13.8366 44.5894 7.38301 33.6229 11.0227 24.9806C12.0609 22.5155 13.9014 20.2856 16.2427 18.4582C14.8907 17.1866 14.0369 15.5112 13.9567 13.6458C13.7751 9.42279 17.6226 5.82725 22.5499 5.61519C27.4772 5.40331 31.619 8.65559 31.8008 12.8786C31.8094 13.0798 31.8058 13.2795 31.7965 13.4776C34.1039 13.5778 36.3933 14.0498 38.5492 14.9577C40.4502 15.7583 42.2001 16.8784 43.7685 18.2271C43.8423 18.1545 43.9176 18.0828 43.9953 18.0132Z" fill="url(#paint0_radial_3151_37807)"/>
</g>
<g filter="url(#filter2_g_3151_37807)">
<circle cx="23.7914" cy="27.5402" r="1.41826" transform="rotate(22.8379 23.7914 27.5402)" fill="#CD7314"/>
</g>
<g filter="url(#filter3_g_3151_37807)">
<circle cx="39.9825" cy="34.3566" r="1.41826" transform="rotate(22.8379 39.9825 34.3566)" fill="#CD7314"/>
</g>
<g filter="url(#filter4_g_3151_37807)">
<path d="M27.5921 31.7812C27.5439 32.9599 28.7999 34.001 30.0623 33.2258C30.234 33.1204 30.4753 33.187 30.5465 33.3754C31.1532 34.9808 32.2133 35.6982 34.1269 34.5333" stroke="#CD7314" stroke-width="1.38023" stroke-linecap="round"/>
</g>
<defs>
<filter id="filter0_g_3151_37807" x="6.89894" y="1.72198" width="54.8156" height="52.8588" filterUnits="userSpaceOnUse" color-interpolation-filters="sRGB">
<feFlood flood-opacity="0" result="BackgroundImageFix"/>
<feBlend mode="normal" in="SourceGraphic" in2="BackgroundImageFix" result="shape"/>
<feTurbulence type="fractalNoise" baseFrequency="0.10813666135072708 0.10813666135072708" numOctaves="3" seed="4660" />
<feDisplacementMap in="shape" scale="3.0365114212036133" xChannelSelector="R" yChannelSelector="G" result="displacedImage" width="100%" height="100%" />
<feMerge result="effect1_texture_3151_37807">
<feMergeNode in="displacedImage"/>
</feMerge>
</filter>
<filter id="filter1_g_3151_37807" x="8.48061" y="4.08721" width="51.2384" height="48.4359" filterUnits="userSpaceOnUse" color-interpolation-filters="sRGB">
<feFlood flood-opacity="0" result="BackgroundImageFix"/>
<feBlend mode="normal" in="SourceGraphic" in2="BackgroundImageFix" result="shape"/>
<feTurbulence type="fractalNoise" baseFrequency="0.10813666135072708 0.10813666135072708" numOctaves="3" seed="4660" />
<feDisplacementMap in="shape" scale="3.0365114212036133" xChannelSelector="R" yChannelSelector="G" result="displacedImage" width="100%" height="100%" />
<feMerge result="effect1_texture_3151_37807">
<feMergeNode in="displacedImage"/>
</feMerge>
</filter>
<filter id="filter2_g_3151_37807" x="21.6827" y="25.431" width="4.21751" height="4.21812" filterUnits="userSpaceOnUse" color-interpolation-filters="sRGB">
<feFlood flood-opacity="0" result="BackgroundImageFix"/>
<feBlend mode="normal" in="SourceGraphic" in2="BackgroundImageFix" result="shape"/>
<feTurbulence type="fractalNoise" baseFrequency="0.3150067925453186 0.3150067925453186" numOctaves="3" seed="4660" />
<feDisplacementMap in="shape" scale="1.3802324533462524" xChannelSelector="R" yChannelSelector="G" result="displacedImage" width="100%" height="100%" />
<feMerge result="effect1_texture_3151_37807">
<feMergeNode in="displacedImage"/>
</feMerge>
</filter>
<filter id="filter3_g_3151_37807" x="37.8738" y="32.2474" width="4.21751" height="4.21812" filterUnits="userSpaceOnUse" color-interpolation-filters="sRGB">
<feFlood flood-opacity="0" result="BackgroundImageFix"/>
<feBlend mode="normal" in="SourceGraphic" in2="BackgroundImageFix" result="shape"/>
<feTurbulence type="fractalNoise" baseFrequency="0.3150067925453186 0.3150067925453186" numOctaves="3" seed="4660" />
<feDisplacementMap in="shape" scale="1.3802324533462524" xChannelSelector="R" yChannelSelector="G" result="displacedImage" width="100%" height="100%" />
<feMerge result="effect1_texture_3151_37807">
<feMergeNode in="displacedImage"/>
</feMerge>
</filter>
<filter id="filter4_g_3151_37807" x="26.2105" y="30.4007" width="9.29674" height="6.08824" filterUnits="userSpaceOnUse" color-interpolation-filters="sRGB">
<feFlood flood-opacity="0" result="BackgroundImageFix"/>
<feBlend mode="normal" in="SourceGraphic" in2="BackgroundImageFix" result="shape"/>
<feTurbulence type="fractalNoise" baseFrequency="0.3150067925453186 0.3150067925453186" numOctaves="3" seed="4660" />
<feDisplacementMap in="shape" scale="1.3802324533462524" xChannelSelector="R" yChannelSelector="G" result="displacedImage" width="100%" height="100%" />
<feMerge result="effect1_texture_3151_37807">
<feMergeNode in="displacedImage"/>
</feMerge>
</filter>
<radialGradient id="paint0_radial_3151_37807" cx="0" cy="0" r="1" gradientTransform="matrix(-10.6087 21.4374 -24.907 -12.3254 31.6662 30.2423)" gradientUnits="userSpaceOnUse">
<stop stop-color="#FFE091"/>
<stop offset="1" stop-color="#FB9932"/>
</radialGradient>
</defs>
</svg>
