<svg width="155" height="92" viewBox="0 0 155 92" fill="none" xmlns="http://www.w3.org/2000/svg">
<g filter="url(#filter0_g_1444_9176)">
<path d="M64.4659 11.7395C64.8618 11.7914 65.2525 11.8765 65.6342 11.9938L87.9189 18.839C88.6328 19.0582 89.3644 19.2148 90.1054 19.308L101.755 20.7726C106.115 21.3208 108.948 25.6423 107.712 29.8592L103.075 45.6782L103.046 45.7791L97.639 70.8208L97.6227 70.9568L96.3547 81.6121C95.8579 85.7884 91.8751 88.632 87.7641 87.7444L64.7003 82.7649L25.6904 72.4452L25.5262 72.4017L25.3588 72.3776L9.90736 70.1655C5.8108 69.5789 3.07057 65.6414 3.94395 61.5963L6.58677 49.3554L13.1912 26.6986L13.2446 26.5164L13.2732 26.328L15.8193 9.83183C16.4809 5.54491 20.7826 2.83487 24.9348 4.08971L38.3572 8.14756C39.0324 8.35165 39.7233 8.4999 40.4227 8.5915L64.4659 11.7395Z" stroke="#FF502E" stroke-width="5.7915"/>
</g>
<g filter="url(#filter1_g_1444_9176)">
<path d="M17.0487 6.33919L40.4636 40.318M73.1905 45.7931L106.712 25.6976" stroke="#FF502E" stroke-width="5.7915"/>
</g>
<g filter="url(#filter2_g_1444_9176)">
<path d="M50.1902 35.4976C50.2439 34.6806 50.617 33.9181 51.2555 33.409C53.0553 31.9739 56.888 29.1856 58.9467 29.6708C60.9952 30.1535 63.734 34.5471 65.0001 36.7612C65.4545 37.5559 65.4944 38.5117 65.1458 39.3556L58.2366 56.0824C57.9173 56.8553 57.3009 57.4721 56.4975 57.7008C55.4954 57.9861 54.0879 58.2793 53.0637 58.0598C52.0074 57.8334 50.7258 56.824 49.866 56.0489C49.2286 55.4743 48.9327 54.6272 48.9889 53.7718L50.1902 35.4976Z" fill="#FF502E"/>
<path d="M38.4406 40.689C37.9645 39.1306 38.8419 37.3488 40.4231 36.6698C41.3887 36.2552 42.6165 35.7285 44.13 35.0801C46.4532 34.0849 47.9213 33.938 48.8042 34.0351C49.6156 34.1242 49.9282 34.927 49.8584 35.7657L48.3434 53.9634C48.2906 54.5982 48.0229 55.2365 47.4208 55.4734C47.1396 55.584 46.7764 55.6849 46.3146 55.7447C45.5115 55.8488 44.5377 55.5831 43.8146 55.3181C43.1266 55.066 42.6529 54.4788 42.436 53.7688L38.4406 40.689Z" fill="#FF502E"/>
<path d="M73.0488 48.9022C74.3452 47.426 74.0862 44.7141 72.6176 43.2698C72.188 42.8473 71.7012 42.3614 71.1505 41.8029C69.0507 39.6733 67.4399 39.1837 66.4704 39.141C65.7802 39.1106 65.285 39.6731 65.0216 40.3557L58.7435 56.6255C58.5234 57.1959 58.4768 57.8575 58.8798 58.3331C59.0806 58.5702 59.3647 58.8408 59.7656 59.1218C60.4058 59.5704 61.343 59.7886 62.0926 59.8947C62.8693 60.0047 63.6021 59.6594 64.1273 59.0613L73.0488 48.9022Z" fill="#FF502E"/>
<path d="M32.8776 60.3083C31.6456 60.0196 30.7859 58.7587 30.9504 57.2414C31.2305 54.6577 31.9937 50.6208 34.0721 47.4634C35.5459 45.2242 36.6015 44.0509 37.3201 43.4384C38.0507 42.8156 38.7648 43.3465 39.057 44.305L41.7696 53.202C42.2306 54.7142 40.5128 55.83 39.3754 56.8388C38.7766 57.3698 37.4664 58.7257 36.5141 59.7254C35.8141 60.4601 34.8842 60.7785 34.0089 60.5734L32.8776 60.3083Z" fill="#FF502E"/>
<path d="M68.8431 70.0911C70.0682 70.4082 71.4075 69.6894 71.9551 68.2666C72.8876 65.8438 74.0559 61.9068 73.6552 58.1381C73.371 55.4655 72.9708 53.9331 72.6132 53.0553C72.2496 52.1628 71.3733 52.3015 70.6758 53.016L64.2019 59.648C63.1016 60.7751 64.1157 62.5645 64.6637 63.9888C64.9523 64.7387 65.495 66.5514 65.883 67.8816C66.1682 68.8592 66.8477 69.5745 67.7181 69.7998L68.8431 70.0911Z" fill="#FF502E"/>
</g>
<g filter="url(#filter3_g_1444_9176)">
<path d="M110.749 85.1484C117.225 84.4103 130.303 78.0102 133.804 71.7285C137.191 65.6518 136.766 60.8287 128.842 59.2112C120.919 57.5937 117.342 68.4008 118.29 72.6831C119.583 78.5206 134.217 99.3599 150.781 73.6107" stroke="#FF502E" stroke-width="6" stroke-linecap="round"/>
</g>
<defs>
<filter id="filter0_g_1444_9176" x="4.94473e-05" y="-7.31533e-05" width="111.785" height="91.6883" filterUnits="userSpaceOnUse" color-interpolation-filters="sRGB">
<feFlood flood-opacity="0" result="BackgroundImageFix"/>
<feBlend mode="normal" in="SourceGraphic" in2="BackgroundImageFix" result="shape"/>
<feTurbulence type="fractalNoise" baseFrequency="0.20616933703422546 0.20616933703422546" numOctaves="3" seed="4660" />
<feDisplacementMap in="shape" scale="1.7374503612518311" xChannelSelector="R" yChannelSelector="G" result="displacedImage" width="100%" height="100%" />
<feMerge result="effect1_texture_1444_9176">
<feMergeNode in="displacedImage"/>
</feMerge>
</filter>
<filter id="filter1_g_1444_9176" x="13.7815" y="3.81649" width="95.2983" height="45.3435" filterUnits="userSpaceOnUse" color-interpolation-filters="sRGB">
<feFlood flood-opacity="0" result="BackgroundImageFix"/>
<feBlend mode="normal" in="SourceGraphic" in2="BackgroundImageFix" result="shape"/>
<feTurbulence type="fractalNoise" baseFrequency="0.20616933703422546 0.20616933703422546" numOctaves="3" seed="4660" />
<feDisplacementMap in="shape" scale="1.7374503612518311" xChannelSelector="R" yChannelSelector="G" result="displacedImage" width="100%" height="100%" />
<feMerge result="effect1_texture_1444_9176">
<feMergeNode in="displacedImage"/>
</feMerge>
</filter>
<filter id="filter2_g_1444_9176" x="30.5168" y="29.2014" width="43.7829" height="41.3772" filterUnits="userSpaceOnUse" color-interpolation-filters="sRGB">
<feFlood flood-opacity="0" result="BackgroundImageFix"/>
<feBlend mode="normal" in="SourceGraphic" in2="BackgroundImageFix" result="shape"/>
<feTurbulence type="fractalNoise" baseFrequency="0.43500182032585144 0.43500182032585144" numOctaves="3" seed="4660" />
<feDisplacementMap in="shape" scale="0.82346546649932861" xChannelSelector="R" yChannelSelector="G" result="displacedImage" width="100%" height="100%" />
<feMerge result="effect1_texture_1444_9176">
<feMergeNode in="displacedImage"/>
</feMerge>
</filter>
<filter id="filter3_g_1444_9176" x="106.531" y="54.824" width="48.4695" height="35.5754" filterUnits="userSpaceOnUse" color-interpolation-filters="sRGB">
<feFlood flood-opacity="0" result="BackgroundImageFix"/>
<feBlend mode="normal" in="SourceGraphic" in2="BackgroundImageFix" result="shape"/>
<feTurbulence type="fractalNoise" baseFrequency="0.14925374090671539 0.14925374090671539" numOctaves="3" seed="4660" />
<feDisplacementMap in="shape" scale="2.4000000953674316" xChannelSelector="R" yChannelSelector="G" result="displacedImage" width="100%" height="100%" />
<feMerge result="effect1_texture_1444_9176">
<feMergeNode in="displacedImage"/>
</feMerge>
</filter>
</defs>
</svg>
