<svg width="61" height="53" viewBox="0 0 61 53" fill="none" xmlns="http://www.w3.org/2000/svg">
<g filter="url(#filter0_g_3732_78083)">
<path d="M8.91248 47.9009V20.1848C8.91248 19.8379 9.1937 19.5566 9.54061 19.5566H54.2447C54.5916 19.5566 54.8728 19.8379 54.8728 20.1848V47.9009C54.8728 48.2478 54.5916 48.529 54.2447 48.529H9.54061C9.1937 48.529 8.91248 48.2478 8.91248 47.9009Z" fill="#F2EBDE"/>
<path d="M8.91248 47.9009V20.1848C8.91248 19.8379 9.1937 19.5566 9.54061 19.5566H54.2447C54.5916 19.5566 54.8728 19.8379 54.8728 20.1848V47.9009C54.8728 48.2478 54.5916 48.529 54.2447 48.529H9.54061C9.1937 48.529 8.91248 48.2478 8.91248 47.9009Z" stroke="#C0B096" stroke-width="1.41329"/>
</g>
<g filter="url(#filter1_g_3732_78083)">
<path d="M53.5518 0.71608C33.4369 -0.227486 15.9156 0.302088 9.18948 0.710083C8.92993 0.725827 8.7128 0.906579 8.6361 1.15504C4.56108 14.3545 5.2177 18.939 6.14541 19.9695C6.18143 20.0095 6.21518 20.0503 6.24415 20.0957C7.88973 22.6744 11.216 23.0659 13.1847 20.8674C13.563 20.4449 14.4477 20.4793 14.8209 20.9062C16.5472 22.881 20.0874 23.2327 21.7371 21.0376C22.036 20.6399 22.6847 20.5497 23.0294 20.9084C25.6078 23.5917 29.0392 23.6273 31.1669 21.1854C31.4743 20.8326 32.0659 20.8366 32.3733 21.1893C34.5494 23.6865 38.2527 23.486 40.2026 20.8749C40.4794 20.5043 41.0573 20.4525 41.3777 20.7861C43.9022 23.4146 46.9715 23.0791 48.6812 21.0298C48.945 20.7134 49.4353 20.6556 49.7511 20.9202C53.5135 24.0729 57.7052 21.5437 57.7052 18.9336C57.7052 13.505 55.3936 5.07142 54.1171 1.14386C54.0369 0.897217 53.8108 0.728232 53.5518 0.71608Z" fill="#FF502E"/>
</g>
<g filter="url(#filter2_g_3732_78083)">
<rect x="8.18835" y="40.9824" width="47.3685" height="8.15143" fill="#8C7E66"/>
</g>
<g filter="url(#filter3_g_3732_78083)">
<path d="M30.6039 26.8317C30.6039 26.2246 31.096 25.7324 31.7031 25.7324H45.3934C46.0005 25.7324 46.4926 26.2246 46.4926 26.8317V37.2924C46.4926 37.8995 46.0005 38.3916 45.3934 38.3916H31.7031C31.096 38.3916 30.6039 37.8995 30.6039 37.2924V26.8317Z" fill="url(#paint0_radial_3732_78083)"/>
<path d="M31.7035 26.2822H45.3929C45.6965 26.2822 45.9427 26.5285 45.9427 26.832V37.292C45.9427 37.5955 45.6965 37.8418 45.3929 37.8418H31.7035C31.3999 37.8418 31.1537 37.5955 31.1537 37.292V26.832C31.1537 26.5285 31.3999 26.2822 31.7035 26.2822Z" stroke="#745A55" stroke-width="1.09923"/>
</g>
<g filter="url(#filter4_g_3732_78083)">
<path d="M34.0674 26.3779C34.2377 28.0735 34.0518 31.4704 32.0109 31.8579C32.8401 31.8199 34.1418 32.8583 33.8484 37.4349H31.615V26.3779H34.0674Z" fill="#745A55"/>
<path d="M43.2078 26.3779C43.0374 28.0735 43.2233 31.4704 45.2642 31.8579C44.4351 31.8199 43.1334 32.8583 43.4268 37.4349H45.6602V26.3779H43.2078Z" fill="#745A55"/>
</g>
<g filter="url(#filter5_g_3732_78083)">
<line x1="28.8857" y1="43.3703" x2="29.9175" y2="43.2693" stroke="#685B4A" stroke-width="1.25626" stroke-linecap="round"/>
</g>
<g filter="url(#filter6_g_3732_78083)">
<line x1="31.4297" y1="47.277" x2="32.4626" y2="47.365" stroke="#685B4A" stroke-width="1.25626" stroke-linecap="round"/>
</g>
<g filter="url(#filter7_g_3732_78083)">
<line x1="34.7953" y1="44.8151" x2="35.8282" y2="44.9031" stroke="#685B4A" stroke-width="1.25626" stroke-linecap="round"/>
</g>
<g filter="url(#filter8_g_3732_78083)">
<line x1="39.2274" y1="43.0681" x2="40.2603" y2="43.156" stroke="#685B4A" stroke-width="1.25626" stroke-linecap="round"/>
</g>
<g filter="url(#filter9_g_3732_78083)">
<line x1="43.1405" y1="47.1794" x2="44.1734" y2="47.2674" stroke="#685B4A" stroke-width="1.25626" stroke-linecap="round"/>
</g>
<g filter="url(#filter10_g_3732_78083)">
<line x1="46.3393" y1="44.2936" x2="47.3723" y2="44.3816" stroke="#685B4A" stroke-width="1.25626" stroke-linecap="round"/>
</g>
<g filter="url(#filter11_g_3732_78083)">
<line x1="9.936" y1="42.5329" x2="10.9689" y2="42.6209" stroke="#685B4A" stroke-width="1.25626" stroke-linecap="round"/>
</g>
<g filter="url(#filter12_g_3732_78083)">
<line x1="12.662" y1="46.4587" x2="13.6949" y2="46.5467" stroke="#685B4A" stroke-width="1.25626" stroke-linecap="round"/>
</g>
<g filter="url(#filter13_g_3732_78083)">
<mask id="path-16-inside-1_3732_78083" fill="white">
<path d="M13.8308 26.85C13.8308 26.5898 14.0417 26.3789 14.3019 26.3789H25.7814C26.0416 26.3789 26.2525 26.5898 26.2525 26.85V48.6645C26.2525 48.9247 26.0416 49.1356 25.7814 49.1356H14.3019C14.0417 49.1356 13.8308 48.9247 13.8308 48.6645V26.85Z"/>
</mask>
<path d="M13.8308 26.85C13.8308 26.5898 14.0417 26.3789 14.3019 26.3789H25.7814C26.0416 26.3789 26.2525 26.5898 26.2525 26.85V48.6645C26.2525 48.9247 26.0416 49.1356 25.7814 49.1356H14.3019C14.0417 49.1356 13.8308 48.9247 13.8308 48.6645V26.85Z" fill="#C0B096"/>
<path d="M13.8308 26.3789H26.2525H13.8308M13.8308 26.3789M26.2525 49.1356H13.8308H26.2525M14.3019 49.1356C13.6081 49.1356 13.0456 48.5731 13.0456 47.8793V27.6352C13.0456 26.9414 13.6081 26.3789 14.3019 26.3789H14.616C14.616 26.3789 14.616 26.5898 14.616 26.85V48.6645C14.616 48.9247 14.616 49.1356 14.616 49.1356H14.3019ZM14.616 49.1356M26.2525 26.3789V49.1356V26.3789" fill="#A6967B" mask="url(#path-16-inside-1_3732_78083)"/>
</g>
<g filter="url(#filter14_g_3732_78083)">
<line x1="22.5226" y1="37.8439" x2="24.955" y2="37.8439" stroke="#745A55" stroke-width="1.09923" stroke-linecap="round"/>
</g>
<g opacity="0.6">
<g opacity="0.87" filter="url(#filter15_g_3732_78083)">
<path d="M14.0317 6.29395L13.0709 10.9012L12.6202 15.1551" stroke="#FFE894" stroke-width="1.88439" stroke-linecap="round"/>
</g>
<g opacity="0.87" filter="url(#filter16_g_3732_78083)">
<path d="M22.1447 6.16598L21.5264 15.1175" stroke="#FFE894" stroke-width="1.88439" stroke-linecap="round"/>
</g>
<g opacity="0.87" filter="url(#filter17_g_3732_78083)">
<line x1="30.9023" y1="7.08161" x2="30.6146" y2="15.1504" stroke="#FFE894" stroke-width="1.88439" stroke-linecap="round"/>
</g>
<g opacity="0.87" filter="url(#filter18_g_3732_78083)">
<path d="M39.7565 6.06641L40.2011 12.3619L40.7496 14.9841" stroke="#FFE894" stroke-width="1.88439" stroke-linecap="round"/>
</g>
<g opacity="0.87" filter="url(#filter19_g_3732_78083)">
<path d="M47.8789 6.11632L48.6123 8.79764L49.1545 14.2791" stroke="#FFE894" stroke-width="1.88439" stroke-linecap="round"/>
</g>
</g>
<defs>
<filter id="filter0_g_3732_78083" x="8.01737" y="18.6612" width="47.7505" height="30.7626" filterUnits="userSpaceOnUse" color-interpolation-filters="sRGB">
<feFlood flood-opacity="0" result="BackgroundImageFix"/>
<feBlend mode="normal" in="SourceGraphic" in2="BackgroundImageFix" result="shape"/>
<feTurbulence type="fractalNoise" baseFrequency="0.95046359300613403 0.95046359300613403" numOctaves="3" seed="4660" />
<feDisplacementMap in="shape" scale="0.37687820196151733" xChannelSelector="R" yChannelSelector="G" result="displacedImage" width="100%" height="100%" />
<feMerge result="effect1_texture_3732_78083">
<feMergeNode in="displacedImage"/>
</feMerge>
</filter>
<filter id="filter1_g_3732_78083" x="5.25931" y="3.74615e-05" width="52.6343" height="23.1591" filterUnits="userSpaceOnUse" color-interpolation-filters="sRGB">
<feFlood flood-opacity="0" result="BackgroundImageFix"/>
<feBlend mode="normal" in="SourceGraphic" in2="BackgroundImageFix" result="shape"/>
<feTurbulence type="fractalNoise" baseFrequency="0.95046359300613403 0.95046359300613403" numOctaves="3" seed="4660" />
<feDisplacementMap in="shape" scale="0.37687820196151733" xChannelSelector="R" yChannelSelector="G" result="displacedImage" width="100%" height="100%" />
<feMerge result="effect1_texture_3732_78083">
<feMergeNode in="displacedImage"/>
</feMerge>
</filter>
<filter id="filter2_g_3732_78083" x="7.99992" y="40.794" width="47.7454" height="8.52825" filterUnits="userSpaceOnUse" color-interpolation-filters="sRGB">
<feFlood flood-opacity="0" result="BackgroundImageFix"/>
<feBlend mode="normal" in="SourceGraphic" in2="BackgroundImageFix" result="shape"/>
<feTurbulence type="fractalNoise" baseFrequency="0.95046359300613403 0.95046359300613403" numOctaves="3" seed="4660" />
<feDisplacementMap in="shape" scale="0.37687820196151733" xChannelSelector="R" yChannelSelector="G" result="displacedImage" width="100%" height="100%" />
<feMerge result="effect1_texture_3732_78083">
<feMergeNode in="displacedImage"/>
</feMerge>
</filter>
<filter id="filter3_g_3732_78083" x="30.4154" y="25.544" width="16.2657" height="13.0361" filterUnits="userSpaceOnUse" color-interpolation-filters="sRGB">
<feFlood flood-opacity="0" result="BackgroundImageFix"/>
<feBlend mode="normal" in="SourceGraphic" in2="BackgroundImageFix" result="shape"/>
<feTurbulence type="fractalNoise" baseFrequency="0.95046359300613403 0.95046359300613403" numOctaves="3" seed="4660" />
<feDisplacementMap in="shape" scale="0.37687820196151733" xChannelSelector="R" yChannelSelector="G" result="displacedImage" width="100%" height="100%" />
<feMerge result="effect1_texture_3732_78083">
<feMergeNode in="displacedImage"/>
</feMerge>
</filter>
<filter id="filter4_g_3732_78083" x="31.4266" y="26.1895" width="14.422" height="11.4335" filterUnits="userSpaceOnUse" color-interpolation-filters="sRGB">
<feFlood flood-opacity="0" result="BackgroundImageFix"/>
<feBlend mode="normal" in="SourceGraphic" in2="BackgroundImageFix" result="shape"/>
<feTurbulence type="fractalNoise" baseFrequency="0.95046359300613403 0.95046359300613403" numOctaves="3" seed="4660" />
<feDisplacementMap in="shape" scale="0.37687820196151733" xChannelSelector="R" yChannelSelector="G" result="displacedImage" width="100%" height="100%" />
<feMerge result="effect1_texture_3732_78083">
<feMergeNode in="displacedImage"/>
</feMerge>
</filter>
<filter id="filter5_g_3732_78083" x="28.0691" y="42.4522" width="2.66496" height="1.7343" filterUnits="userSpaceOnUse" color-interpolation-filters="sRGB">
<feFlood flood-opacity="0" result="BackgroundImageFix"/>
<feBlend mode="normal" in="SourceGraphic" in2="BackgroundImageFix" result="shape"/>
<feTurbulence type="fractalNoise" baseFrequency="0.95046359300613403 0.95046359300613403" numOctaves="3" seed="4660" />
<feDisplacementMap in="shape" scale="0.37687820196151733" xChannelSelector="R" yChannelSelector="G" result="displacedImage" width="100%" height="100%" />
<feMerge result="effect1_texture_3732_78083">
<feMergeNode in="displacedImage"/>
</feMerge>
</filter>
<filter id="filter6_g_3732_78083" x="30.6131" y="46.46" width="2.66618" height="1.7216" filterUnits="userSpaceOnUse" color-interpolation-filters="sRGB">
<feFlood flood-opacity="0" result="BackgroundImageFix"/>
<feBlend mode="normal" in="SourceGraphic" in2="BackgroundImageFix" result="shape"/>
<feTurbulence type="fractalNoise" baseFrequency="0.95046359300613403 0.95046359300613403" numOctaves="3" seed="4660" />
<feDisplacementMap in="shape" scale="0.37687820196151733" xChannelSelector="R" yChannelSelector="G" result="displacedImage" width="100%" height="100%" />
<feMerge result="effect1_texture_3732_78083">
<feMergeNode in="displacedImage"/>
</feMerge>
</filter>
<filter id="filter7_g_3732_78083" x="33.9787" y="43.9981" width="2.66618" height="1.7216" filterUnits="userSpaceOnUse" color-interpolation-filters="sRGB">
<feFlood flood-opacity="0" result="BackgroundImageFix"/>
<feBlend mode="normal" in="SourceGraphic" in2="BackgroundImageFix" result="shape"/>
<feTurbulence type="fractalNoise" baseFrequency="0.95046359300613403 0.95046359300613403" numOctaves="3" seed="4660" />
<feDisplacementMap in="shape" scale="0.37687820196151733" xChannelSelector="R" yChannelSelector="G" result="displacedImage" width="100%" height="100%" />
<feMerge result="effect1_texture_3732_78083">
<feMergeNode in="displacedImage"/>
</feMerge>
</filter>
<filter id="filter8_g_3732_78083" x="38.4108" y="42.251" width="2.66618" height="1.7216" filterUnits="userSpaceOnUse" color-interpolation-filters="sRGB">
<feFlood flood-opacity="0" result="BackgroundImageFix"/>
<feBlend mode="normal" in="SourceGraphic" in2="BackgroundImageFix" result="shape"/>
<feTurbulence type="fractalNoise" baseFrequency="0.95046359300613403 0.95046359300613403" numOctaves="3" seed="4660" />
<feDisplacementMap in="shape" scale="0.37687820196151733" xChannelSelector="R" yChannelSelector="G" result="displacedImage" width="100%" height="100%" />
<feMerge result="effect1_texture_3732_78083">
<feMergeNode in="displacedImage"/>
</feMerge>
</filter>
<filter id="filter9_g_3732_78083" x="42.3239" y="46.3623" width="2.66618" height="1.7216" filterUnits="userSpaceOnUse" color-interpolation-filters="sRGB">
<feFlood flood-opacity="0" result="BackgroundImageFix"/>
<feBlend mode="normal" in="SourceGraphic" in2="BackgroundImageFix" result="shape"/>
<feTurbulence type="fractalNoise" baseFrequency="0.95046359300613403 0.95046359300613403" numOctaves="3" seed="4660" />
<feDisplacementMap in="shape" scale="0.37687820196151733" xChannelSelector="R" yChannelSelector="G" result="displacedImage" width="100%" height="100%" />
<feMerge result="effect1_texture_3732_78083">
<feMergeNode in="displacedImage"/>
</feMerge>
</filter>
<filter id="filter10_g_3732_78083" x="45.5227" y="43.4766" width="2.66618" height="1.7216" filterUnits="userSpaceOnUse" color-interpolation-filters="sRGB">
<feFlood flood-opacity="0" result="BackgroundImageFix"/>
<feBlend mode="normal" in="SourceGraphic" in2="BackgroundImageFix" result="shape"/>
<feTurbulence type="fractalNoise" baseFrequency="0.95046359300613403 0.95046359300613403" numOctaves="3" seed="4660" />
<feDisplacementMap in="shape" scale="0.37687820196151733" xChannelSelector="R" yChannelSelector="G" result="displacedImage" width="100%" height="100%" />
<feMerge result="effect1_texture_3732_78083">
<feMergeNode in="displacedImage"/>
</feMerge>
</filter>
<filter id="filter11_g_3732_78083" x="9.11942" y="41.7159" width="2.66618" height="1.7216" filterUnits="userSpaceOnUse" color-interpolation-filters="sRGB">
<feFlood flood-opacity="0" result="BackgroundImageFix"/>
<feBlend mode="normal" in="SourceGraphic" in2="BackgroundImageFix" result="shape"/>
<feTurbulence type="fractalNoise" baseFrequency="0.95046359300613403 0.95046359300613403" numOctaves="3" seed="4660" />
<feDisplacementMap in="shape" scale="0.37687820196151733" xChannelSelector="R" yChannelSelector="G" result="displacedImage" width="100%" height="100%" />
<feMerge result="effect1_texture_3732_78083">
<feMergeNode in="displacedImage"/>
</feMerge>
</filter>
<filter id="filter12_g_3732_78083" x="11.8454" y="45.6416" width="2.66618" height="1.7216" filterUnits="userSpaceOnUse" color-interpolation-filters="sRGB">
<feFlood flood-opacity="0" result="BackgroundImageFix"/>
<feBlend mode="normal" in="SourceGraphic" in2="BackgroundImageFix" result="shape"/>
<feTurbulence type="fractalNoise" baseFrequency="0.95046359300613403 0.95046359300613403" numOctaves="3" seed="4660" />
<feDisplacementMap in="shape" scale="0.37687820196151733" xChannelSelector="R" yChannelSelector="G" result="displacedImage" width="100%" height="100%" />
<feMerge result="effect1_texture_3732_78083">
<feMergeNode in="displacedImage"/>
</feMerge>
</filter>
<filter id="filter13_g_3732_78083" x="13.6424" y="26.1905" width="12.7985" height="23.1337" filterUnits="userSpaceOnUse" color-interpolation-filters="sRGB">
<feFlood flood-opacity="0" result="BackgroundImageFix"/>
<feBlend mode="normal" in="SourceGraphic" in2="BackgroundImageFix" result="shape"/>
<feTurbulence type="fractalNoise" baseFrequency="0.95046359300613403 0.95046359300613403" numOctaves="3" seed="4660" />
<feDisplacementMap in="shape" scale="0.37687820196151733" xChannelSelector="R" yChannelSelector="G" result="displacedImage" width="100%" height="100%" />
<feMerge result="effect1_texture_3732_78083">
<feMergeNode in="displacedImage"/>
</feMerge>
</filter>
<filter id="filter14_g_3732_78083" x="21.7846" y="37.1055" width="3.90837" height="1.47649" filterUnits="userSpaceOnUse" color-interpolation-filters="sRGB">
<feFlood flood-opacity="0" result="BackgroundImageFix"/>
<feBlend mode="normal" in="SourceGraphic" in2="BackgroundImageFix" result="shape"/>
<feTurbulence type="fractalNoise" baseFrequency="0.95046359300613403 0.95046359300613403" numOctaves="3" seed="4660" />
<feDisplacementMap in="shape" scale="0.37687820196151733" xChannelSelector="R" yChannelSelector="G" result="displacedImage" width="100%" height="100%" />
<feMerge result="effect1_texture_3732_78083">
<feMergeNode in="displacedImage"/>
</feMerge>
</filter>
<filter id="filter15_g_3732_78083" x="11.4895" y="5.16312" width="3.67302" height="11.123" filterUnits="userSpaceOnUse" color-interpolation-filters="sRGB">
<feFlood flood-opacity="0" result="BackgroundImageFix"/>
<feBlend mode="normal" in="SourceGraphic" in2="BackgroundImageFix" result="shape"/>
<feTurbulence type="fractalNoise" baseFrequency="0.95046359300613403 0.95046359300613403" numOctaves="3" seed="4660" />
<feDisplacementMap in="shape" scale="0.37687820196151733" xChannelSelector="R" yChannelSelector="G" result="displacedImage" width="100%" height="100%" />
<feMerge result="effect1_texture_3732_78083">
<feMergeNode in="displacedImage"/>
</feMerge>
</filter>
<filter id="filter16_g_3732_78083" x="20.3957" y="5.03519" width="2.87969" height="11.2128" filterUnits="userSpaceOnUse" color-interpolation-filters="sRGB">
<feFlood flood-opacity="0" result="BackgroundImageFix"/>
<feBlend mode="normal" in="SourceGraphic" in2="BackgroundImageFix" result="shape"/>
<feTurbulence type="fractalNoise" baseFrequency="0.95046359300613403 0.95046359300613403" numOctaves="3" seed="4660" />
<feDisplacementMap in="shape" scale="0.37687820196151733" xChannelSelector="R" yChannelSelector="G" result="displacedImage" width="100%" height="100%" />
<feMerge result="effect1_texture_3732_78083">
<feMergeNode in="displacedImage"/>
</feMerge>
</filter>
<filter id="filter17_g_3732_78083" x="29.484" y="5.95121" width="2.54888" height="10.33" filterUnits="userSpaceOnUse" color-interpolation-filters="sRGB">
<feFlood flood-opacity="0" result="BackgroundImageFix"/>
<feBlend mode="normal" in="SourceGraphic" in2="BackgroundImageFix" result="shape"/>
<feTurbulence type="fractalNoise" baseFrequency="0.95046359300613403 0.95046359300613403" numOctaves="3" seed="4660" />
<feDisplacementMap in="shape" scale="0.37687820196151733" xChannelSelector="R" yChannelSelector="G" result="displacedImage" width="100%" height="100%" />
<feMerge result="effect1_texture_3732_78083">
<feMergeNode in="displacedImage"/>
</feMerge>
</filter>
<filter id="filter18_g_3732_78083" x="38.6258" y="4.93558" width="3.25469" height="11.1796" filterUnits="userSpaceOnUse" color-interpolation-filters="sRGB">
<feFlood flood-opacity="0" result="BackgroundImageFix"/>
<feBlend mode="normal" in="SourceGraphic" in2="BackgroundImageFix" result="shape"/>
<feTurbulence type="fractalNoise" baseFrequency="0.95046359300613403 0.95046359300613403" numOctaves="3" seed="4660" />
<feDisplacementMap in="shape" scale="0.37687820196151733" xChannelSelector="R" yChannelSelector="G" result="displacedImage" width="100%" height="100%" />
<feMerge result="effect1_texture_3732_78083">
<feMergeNode in="displacedImage"/>
</feMerge>
</filter>
<filter id="filter19_g_3732_78083" x="46.748" y="4.98539" width="3.53716" height="10.4247" filterUnits="userSpaceOnUse" color-interpolation-filters="sRGB">
<feFlood flood-opacity="0" result="BackgroundImageFix"/>
<feBlend mode="normal" in="SourceGraphic" in2="BackgroundImageFix" result="shape"/>
<feTurbulence type="fractalNoise" baseFrequency="0.95046359300613403 0.95046359300613403" numOctaves="3" seed="4660" />
<feDisplacementMap in="shape" scale="0.37687820196151733" xChannelSelector="R" yChannelSelector="G" result="displacedImage" width="100%" height="100%" />
<feMerge result="effect1_texture_3732_78083">
<feMergeNode in="displacedImage"/>
</feMerge>
</filter>
<radialGradient id="paint0_radial_3732_78083" cx="0" cy="0" r="1" gradientUnits="userSpaceOnUse" gradientTransform="translate(38.5483 27.7158) rotate(90) scale(11.9799 15.0361)">
<stop stop-color="#FFD28F"/>
<stop offset="1" stop-color="#5E4E46"/>
</radialGradient>
</defs>
</svg>
