<svg width="133" height="86" viewBox="0 0 133 86" fill="none" xmlns="http://www.w3.org/2000/svg">
<g filter="url(#filter0_g_2022_26543)">
<path d="M55.4298 12.0856C55.824 12.1372 56.2138 12.2222 56.5939 12.3389L75.2305 18.063C75.9413 18.2813 76.6695 18.4382 77.4073 18.531L85.4114 19.5368C89.7525 20.0826 92.5733 24.3855 91.3427 28.5841L87.9069 40.3056L87.877 40.407L83.289 61.6576L83.2727 61.793L82.3922 69.1938C81.8974 73.3519 77.9321 76.1823 73.8389 75.2987L55.9102 71.4278L22.8701 62.6869L22.7066 62.6436L22.54 62.6196L11.0325 60.9734C6.95379 60.3894 4.22545 56.4688 5.09493 52.4412L6.99304 43.6497L12.5848 24.4691L12.6372 24.2865L12.6665 24.1L14.5614 11.8201C15.2202 7.55169 19.5033 4.85337 23.6375 6.10278L33.2486 9.00806C33.9211 9.21133 34.6093 9.36003 35.3059 9.45124L55.4298 12.0856Z" stroke="#FF502E" stroke-width="5.7915"/>
</g>
<g filter="url(#filter1_g_2022_26543)">
<path d="M15.4379 7.09839L35.2754 35.8859M63.0022 40.5244L91.4021 23.4992" stroke="#FF502E" stroke-width="5.7915"/>
</g>
<g filter="url(#filter2_g_2022_26543)">
<path d="M43.5035 31.9916C43.557 31.1781 43.9274 30.419 44.566 29.9158C46.1444 28.6723 49.2449 26.4674 50.9347 26.8656C52.6143 27.2615 54.8417 30.7607 55.9557 32.686C56.4123 33.475 56.4521 34.4281 56.105 35.2684L50.4072 49.0625C50.0893 49.8321 49.4757 50.4492 48.6724 50.665C47.8417 50.8882 46.7561 51.09 45.9505 50.9174C45.1148 50.7383 44.1127 49.9807 43.3906 49.3465C42.7486 48.7827 42.4553 47.9371 42.5113 47.0853L43.5035 31.9916Z" fill="#FF502E"/>
<path d="M33.6886 36.616C33.2146 35.0644 34.089 33.2899 35.6635 32.6141C36.4085 32.2944 37.3107 31.9074 38.3818 31.4486C40.192 30.6731 41.3895 30.5056 42.1521 30.5477C42.9677 30.5926 43.2884 31.3891 43.2189 32.2242L41.9636 47.3021C41.911 47.9341 41.6393 48.5701 41.0318 48.7766C40.816 48.85 40.5522 48.9146 40.2326 48.956C39.6097 49.0367 38.8656 48.8549 38.2742 48.6513C37.5835 48.4135 37.1126 47.8252 36.8967 47.1183L33.6886 36.616Z" fill="#FF502E"/>
<path d="M62.5033 43.5908C63.7941 42.121 63.5433 39.411 62.0889 37.9632C61.8377 37.7131 61.5666 37.4407 61.2743 37.1442C59.605 35.4513 58.3006 34.9816 57.4674 34.9003C56.7805 34.8332 56.2835 35.3954 56.0213 36.075L50.8129 49.5724C50.5938 50.1404 50.5515 50.8021 50.9723 51.2548C51.134 51.4288 51.3475 51.62 51.6288 51.8171C52.121 52.162 52.8205 52.3462 53.4202 52.4445C54.1922 52.571 54.9229 52.2227 55.4459 51.6272L62.5033 43.5908Z" fill="#FF502E"/>
<path d="M29.1586 52.8952C27.932 52.6078 27.0742 51.352 27.2598 49.8434C27.5293 47.6527 28.1987 44.4646 29.8604 41.9401C30.9975 40.2126 31.8407 39.2339 32.4421 38.6809C33.1508 38.0292 33.8617 38.5356 34.1526 39.49L36.3819 46.802C36.7725 48.0831 35.3171 49.0284 34.3536 49.8831C33.8802 50.3029 32.8822 51.331 32.0952 52.1548C31.3975 52.8852 30.4715 53.2029 29.6 52.9986L29.1586 52.8952Z" fill="#FF502E"/>
<path d="M59.0109 61.0304C60.2307 61.3462 61.5658 60.6312 62.0908 59.2062C62.8531 57.137 63.7165 53.9968 63.3961 50.9835C63.1769 48.9216 62.8761 47.6608 62.5954 46.8903C62.2645 45.9823 61.4022 46.1008 60.7078 46.8122L55.3872 52.2627C54.455 53.2176 55.3142 54.7337 55.7784 55.9404C56.0065 56.5331 56.4221 57.9098 56.7438 59.0069C57.029 59.9797 57.7054 60.6925 58.572 60.9168L59.0109 61.0304Z" fill="#FF502E"/>
</g>
<g filter="url(#filter3_g_2022_26543)">
<path d="M94.8226 73.8673C100.309 73.242 111.389 67.8197 114.355 62.4977C117.224 57.3494 116.864 53.2632 110.152 51.8928C103.439 50.5224 100.408 59.6784 101.212 63.3065C102.307 68.2521 114.705 85.9076 128.739 64.0924" stroke="#FFCD14" stroke-width="6" stroke-linecap="round"/>
</g>
<defs>
<filter id="filter0_g_2022_26543" x="1.16826" y="2.03057" width="94.23" height="77.1952" filterUnits="userSpaceOnUse" color-interpolation-filters="sRGB">
<feFlood flood-opacity="0" result="BackgroundImageFix"/>
<feBlend mode="normal" in="SourceGraphic" in2="BackgroundImageFix" result="shape"/>
<feTurbulence type="fractalNoise" baseFrequency="0.20616933703422546 0.20616933703422546" numOctaves="3" seed="4660" />
<feDisplacementMap in="shape" scale="1.7374503612518311" xChannelSelector="R" yChannelSelector="G" result="displacedImage" width="100%" height="100%" />
<feMerge result="effect1_texture_2022_26543">
<feMergeNode in="displacedImage"/>
</feMerge>
</filter>
<filter id="filter1_g_2022_26543" x="12.1847" y="4.5866" width="81.575" height="39.2902" filterUnits="userSpaceOnUse" color-interpolation-filters="sRGB">
<feFlood flood-opacity="0" result="BackgroundImageFix"/>
<feBlend mode="normal" in="SourceGraphic" in2="BackgroundImageFix" result="shape"/>
<feTurbulence type="fractalNoise" baseFrequency="0.20616933703422546 0.20616933703422546" numOctaves="3" seed="4660" />
<feDisplacementMap in="shape" scale="1.7374503612518311" xChannelSelector="R" yChannelSelector="G" result="displacedImage" width="100%" height="100%" />
<feMerge result="effect1_texture_2022_26543">
<feMergeNode in="displacedImage"/>
</feMerge>
</filter>
<filter id="filter2_g_2022_26543" x="26.8228" y="26.4065" width="37.0537" height="35.1094" filterUnits="userSpaceOnUse" color-interpolation-filters="sRGB">
<feFlood flood-opacity="0" result="BackgroundImageFix"/>
<feBlend mode="normal" in="SourceGraphic" in2="BackgroundImageFix" result="shape"/>
<feTurbulence type="fractalNoise" baseFrequency="0.43500182032585144 0.43500182032585144" numOctaves="3" seed="4660" />
<feDisplacementMap in="shape" scale="0.82346546649932861" xChannelSelector="R" yChannelSelector="G" result="displacedImage" width="100%" height="100%" />
<feMerge result="effect1_texture_2022_26543">
<feMergeNode in="displacedImage"/>
</feMerge>
</filter>
<filter id="filter3_g_2022_26543" x="90.6223" y="47.5489" width="42.317" height="31.3933" filterUnits="userSpaceOnUse" color-interpolation-filters="sRGB">
<feFlood flood-opacity="0" result="BackgroundImageFix"/>
<feBlend mode="normal" in="SourceGraphic" in2="BackgroundImageFix" result="shape"/>
<feTurbulence type="fractalNoise" baseFrequency="0.14925374090671539 0.14925374090671539" numOctaves="3" seed="4660" />
<feDisplacementMap in="shape" scale="2.4000000953674316" xChannelSelector="R" yChannelSelector="G" result="displacedImage" width="100%" height="100%" />
<feMerge result="effect1_texture_2022_26543">
<feMergeNode in="displacedImage"/>
</feMerge>
</filter>
</defs>
</svg>
