<svg width="32" height="32" viewBox="0 0 32 32" fill="none" xmlns="http://www.w3.org/2000/svg">
<g clip-path="url(#clip0_4995_26238)">
<path d="M22.8 2.80005H9.19999C5.66537 2.80005 2.79999 5.66543 2.79999 9.20005V22.8C2.79999 26.3347 5.66537 29.2 9.19999 29.2H22.8C26.3346 29.2 29.2 26.3347 29.2 22.8V9.20005C29.2 5.66543 26.3346 2.80005 22.8 2.80005Z" fill="#C4C4C8"/>
<path d="M14.4824 21.3487C14.1136 21.3487 13.7456 21.2087 13.464 20.9271L8.6816 16.1447C8.1192 15.5823 8.1192 14.6703 8.6816 14.1079C9.244 13.5463 10.156 13.5463 10.7184 14.1079L14.4824 17.8727L21.2816 11.0735C21.8448 10.5119 22.7568 10.5119 23.3184 11.0735C23.8808 11.6359 23.8808 12.5479 23.3184 13.1103L15.5008 20.9271C15.2192 21.2079 14.8512 21.3487 14.4824 21.3487Z" fill="white"/>
</g>
<defs>
<clipPath id="clip0_4995_26238">
<rect width="32" height="32" fill="white"/>
</clipPath>
</defs>
</svg>
