<svg width="80" height="80" viewBox="0 0 80 80" fill="none" xmlns="http://www.w3.org/2000/svg">
<circle cx="40" cy="40" r="40" fill="#FFEDE9"/>
<path d="M34.5134 46.7461L53.5131 28.6258C53.9614 28.1982 54.4845 27.9844 55.0824 27.9844C55.6802 27.9844 56.2033 28.1982 56.6516 28.6258C57.1 29.0534 57.3242 29.5616 57.3242 30.1503C57.3242 30.7389 57.1 31.2464 56.6516 31.6726L36.0827 51.3429C35.6344 51.7706 35.1113 51.9844 34.5134 51.9844C33.9156 51.9844 33.3925 51.7706 32.9441 51.3429L23.3042 42.1492C22.8558 41.7216 22.6406 41.2141 22.6586 40.6269C22.6765 40.0396 22.9104 39.5315 23.3603 39.1024C23.8101 38.6734 24.3429 38.4596 24.9587 38.461C25.5745 38.4624 26.1065 38.6762 26.5549 39.1024L34.5134 46.7461Z" fill="#FF502E"/>
</svg>
