<svg width="24" height="24" viewBox="0 0 24 24" fill="none" xmlns="http://www.w3.org/2000/svg">
<path d="M23.587 14.9301L21.2842 13.0077C20.6176 12.4515 20.6176 11.5403 21.2842 10.9841L23.587 9.06046C24.2536 8.50424 24.0763 7.98677 23.1923 7.90552L20.1389 7.63428C19.2562 7.55679 18.7789 6.84308 19.0842 6.05187L20.7042 1.82335C21.0082 1.02964 20.6362 0.742157 19.8789 1.18088L16.2775 3.26827C16.099 3.37268 15.8997 3.44186 15.6917 3.47157C15.4837 3.50128 15.2714 3.49089 15.0678 3.44105C14.8643 3.3912 14.6737 3.30295 14.5078 3.18169C14.3418 3.06043 14.204 2.9087 14.1028 2.7358L12.7988 0.553418C12.3601 -0.181543 11.6361 -0.184043 11.1894 0.543418L9.9774 2.51831C9.52806 3.24952 8.50004 3.55951 7.69336 3.21327L5.55999 2.29582C4.74931 1.94584 4.1293 2.34832 4.1773 3.19078L4.29197 5.20942C4.34131 6.05187 3.6773 6.91807 2.81995 7.13556L0.759915 7.65303C-0.0960988 7.87052 -0.253435 8.50299 0.413243 9.05921L2.71595 10.9829C3.38262 11.5391 3.38262 12.4503 2.71595 13.0065L0.413243 14.9301C-0.253435 15.4864 -0.0774318 16.0263 0.803916 16.1263L3.59729 16.4438C4.47864 16.5438 4.96932 17.2813 4.68798 18.0825L3.25596 22.1548C2.97462 22.956 3.37596 23.2659 4.14664 22.8485L7.43069 21.0661C7.81375 20.8669 8.26226 20.8088 8.68858 20.9031C9.11491 20.9974 9.4884 21.2373 9.73606 21.576L11.0988 23.4997C11.5948 24.1984 12.3401 24.1609 12.7521 23.4147L13.9508 21.2486C14.1504 20.8892 14.4918 20.6171 14.9022 20.4903C15.3127 20.3635 15.7598 20.3921 16.1482 20.5698L18.4602 21.6535C19.2575 22.0248 19.8696 21.641 19.8216 20.8011L19.7056 18.7799C19.6589 17.9375 20.3202 17.0738 21.1802 16.8563L23.2376 16.3363C24.0963 16.1188 24.2536 15.4864 23.587 14.9301ZM13.3335 15.5715C13.3335 16.1237 12.8857 16.5715 12.3335 16.5715H11.6667C11.1145 16.5715 10.6667 16.1237 10.6667 15.5715V15.0716C10.6667 14.5193 11.1145 14.0716 11.6667 14.0716H12.3335C12.8857 14.0716 13.3335 14.5193 13.3335 15.0716V15.5715ZM13.5777 13.0844C13.4365 13.4509 13.0811 13.6788 12.6883 13.6788H11.3119C10.9191 13.6788 10.5637 13.4509 10.4225 13.0844C9.87613 11.6662 8.74725 8.1489 10.6667 7.42914C11.6337 7.06657 12.3665 7.06657 13.3335 7.42914C15.2529 8.1489 14.1241 11.6662 13.5777 13.0844Z" fill="#FF502E"/>
</svg>
