<svg width="58" height="58" viewBox="0 0 58 58" fill="none" xmlns="http://www.w3.org/2000/svg">
<circle cx="29" cy="29" r="29" fill="#D9D9D9"/>
<g clip-path="url(#clip0_3319_22435)">
<path d="M29.0033 57.9314C44.9801 57.9314 57.9319 44.9796 57.9319 29.0028C57.9319 13.026 44.9801 0.0742188 29.0033 0.0742188C13.0265 0.0742188 0.074707 13.026 0.074707 29.0028C0.074707 44.9796 13.0265 57.9314 29.0033 57.9314Z" fill="#F8E049"/>
<path d="M29.0033 11.9675C18.7664 11.9675 10.4634 18.5281 10.4634 26.6265C10.4634 31.8935 13.9813 36.5136 19.2614 39.0943C18.872 40.5397 17.8556 44.3414 17.651 45.1532C17.4002 46.1631 18.0206 46.1499 18.4298 45.8793C18.7466 45.6681 23.5119 42.4274 25.5646 41.0281C26.68 41.1931 27.8285 41.2789 29.0033 41.2789C39.2402 41.2789 47.5432 34.7184 47.5432 26.6199C47.5432 18.5215 39.2402 11.9609 29.0033 11.9609" fill="#371C1D"/>
<path d="M16.0669 23.9274H17.9744C17.9744 23.9274 17.9876 29.1679 17.9744 30.389C17.9744 31.28 19.961 31.2932 19.9544 30.4022V23.9934C19.9544 23.9934 20.6012 23.9934 21.8619 23.9934C23.0499 23.9934 23.0499 22.1255 21.8619 22.1255C20.522 22.1255 16.0603 22.0859 16.0603 22.0859C14.9383 22.0859 14.9449 23.9142 16.0603 23.9142" fill="#F8E049"/>
<mask id="mask0_3319_22435" style="mask-type:luminance" maskUnits="userSpaceOnUse" x="15" y="22" width="8" height="10">
<path d="M16.0669 23.9274H17.9744C17.9744 23.9274 17.9876 29.1679 17.9744 30.389C17.9744 31.28 19.961 31.2932 19.9544 30.4022V23.9934C19.9544 23.9934 20.6012 23.9934 21.8619 23.9934C23.0499 23.9934 23.0499 22.1255 21.8619 22.1255C20.522 22.1255 16.0603 22.0859 16.0603 22.0859C14.9383 22.0859 14.9449 23.9142 16.0603 23.9142" fill="white"/>
</mask>
<g mask="url(#mask0_3319_22435)">
<path d="M23.0567 22.0986H14.9451V31.2927H23.0567V22.0986Z" fill="#F8E049"/>
</g>
<path d="M25.2016 24.2639L26.2642 27.5904H24.0532L25.2016 24.2639ZM24.007 22.7063C23.5384 23.7425 21.8421 28.6267 21.2811 29.9203C20.8719 30.8575 22.6275 31.6231 23.0368 30.6859L23.4196 29.3527H26.9111C26.9111 29.3527 26.7923 29.4055 27.2543 30.6331C27.6305 31.6231 29.4455 30.9367 29.0693 29.9467C28.5347 28.5276 26.6801 23.4323 26.3434 22.7129C26.185 22.3763 25.6306 22.1387 25.0894 22.1387C24.6406 22.1387 24.205 22.3037 24.0202 22.7129" fill="#F8E049"/>
<mask id="mask1_3319_22435" style="mask-type:luminance" maskUnits="userSpaceOnUse" x="21" y="22" width="9" height="10">
<path d="M25.2016 24.2639L26.2642 27.5904H24.0532L25.2016 24.2639ZM24.007 22.7063C23.5384 23.7425 21.8421 28.6267 21.2811 29.9203C20.8719 30.8575 22.6275 31.6231 23.0368 30.6859L23.4196 29.3527H26.9111C26.9111 29.3527 26.7923 29.4055 27.2543 30.6331C27.6305 31.6231 29.4455 30.9367 29.0693 29.9467C28.5347 28.5276 26.6801 23.4323 26.3434 22.7129C26.185 22.3763 25.6306 22.1387 25.0894 22.1387C24.6406 22.1387 24.205 22.3037 24.0202 22.7129" fill="white"/>
</mask>
<g mask="url(#mask1_3319_22435)">
<path d="M29.4389 22.1318H20.8718V31.6163H29.4389V22.1318Z" fill="#F8E049"/>
</g>
<path d="M29.736 23.0097C29.736 24.6663 29.7426 30.0191 29.7426 30.0191C29.7426 30.0191 29.5908 31.0817 30.5017 31.0817C31.4125 31.0817 33.4387 31.0685 34.3364 31.0685C35.234 31.0685 35.2274 29.161 34.3364 29.161C33.4453 29.161 31.8019 29.1544 31.8019 29.1544C31.8019 29.1544 31.8085 24.2043 31.8019 23.0031C31.8019 22.4222 31.2871 22.1318 30.7723 22.1318C30.2575 22.1318 29.736 22.4222 29.736 23.0097Z" fill="#F8E049"/>
<mask id="mask2_3319_22435" style="mask-type:luminance" maskUnits="userSpaceOnUse" x="29" y="22" width="7" height="10">
<path d="M29.736 23.0097C29.736 24.6663 29.7426 30.0191 29.7426 30.0191C29.7426 30.0191 29.5908 31.0817 30.5017 31.0817C31.4125 31.0817 33.4387 31.0685 34.3364 31.0685C35.234 31.0685 35.2274 29.161 34.3364 29.161C33.4453 29.161 31.8019 29.1544 31.8019 29.1544C31.8019 29.1544 31.8085 24.2043 31.8019 23.0031C31.8019 22.4222 31.2871 22.1318 30.7723 22.1318C30.2575 22.1318 29.736 22.4222 29.736 23.0097Z" fill="white"/>
</mask>
<g mask="url(#mask2_3319_22435)">
<path d="M35.2274 22.1387H29.5908V31.0885H35.2274V22.1387Z" fill="#F8E049"/>
</g>
<path d="M35.4715 22.7457C35.4913 23.4717 35.4451 30.0521 35.4517 30.5405C35.4517 31.3127 37.412 31.3061 37.412 30.5405C37.412 29.6495 37.412 27.9533 37.412 27.9533L37.9862 27.4912L40.5008 30.9233C41.0091 31.5966 42.6129 30.3821 42.1047 29.7089L39.4316 26.191C39.4316 26.191 41.2467 24.2308 41.9595 23.5179C42.3753 23.1021 41.0883 21.8019 40.6658 22.2177C40.2632 22.6203 37.4186 25.465 37.4186 25.465C37.4186 25.465 37.445 23.6763 37.4186 22.6929C37.4054 22.3167 36.9499 22.1385 36.4813 22.1385C35.9797 22.1385 35.4649 22.3431 35.4715 22.7457Z" fill="#F8E049"/>
<mask id="mask3_3319_22435" style="mask-type:luminance" maskUnits="userSpaceOnUse" x="35" y="22" width="8" height="10">
<path d="M35.4715 22.7457C35.4913 23.4717 35.4451 30.0521 35.4517 30.5405C35.4517 31.3127 37.412 31.3061 37.412 30.5405C37.412 29.6495 37.412 27.9533 37.412 27.9533L37.9862 27.4912L40.5008 30.9233C41.0091 31.5966 42.6129 30.3821 42.1047 29.7089L39.4316 26.191C39.4316 26.191 41.2467 24.2308 41.9595 23.5179C42.3753 23.1021 41.0883 21.8019 40.6658 22.2177C40.2632 22.6203 37.4186 25.465 37.4186 25.465C37.4186 25.465 37.445 23.6763 37.4186 22.6929C37.4054 22.3167 36.9499 22.1385 36.4813 22.1385C35.9797 22.1385 35.4649 22.3431 35.4715 22.7457Z" fill="white"/>
</mask>
<g mask="url(#mask3_3319_22435)">
<path d="M42.6064 21.8086H35.4452V31.5967H42.6064V21.8086Z" fill="#F8E049"/>
</g>
</g>
<defs>
<clipPath id="clip0_3319_22435">
<rect width="57.8506" height="57.8506" fill="white" transform="translate(0.074707 0.0742188)"/>
</clipPath>
</defs>
</svg>
