<svg width="40" height="40" viewBox="0 0 40 40" fill="none" xmlns="http://www.w3.org/2000/svg">
<path d="M0 20C0 8.95431 8.95431 0 20 0V0C31.0457 0 40 8.95431 40 20V20C40 31.0457 31.0457 40 20 40V40C8.95431 40 0 31.0457 0 20V20Z" fill="#FEE500"/>
<g clip-path="url(#clip0_1651_13375)">
<path fill-rule="evenodd" clip-rule="evenodd" d="M20.0001 6.93335C12.2676 6.93335 6 11.7757 6 17.748C6 21.4623 8.42419 24.7366 12.1157 26.6842L10.5625 32.3581C10.4253 32.8595 10.9987 33.2591 11.439 32.9686L18.2475 28.475C18.822 28.5304 19.4059 28.5628 20.0001 28.5628C27.7319 28.5628 34 23.7206 34 17.748C34 11.7757 27.7319 6.93335 20.0001 6.93335" fill="black"/>
</g>
<defs>
<clipPath id="clip0_1651_13375">
<rect width="28" height="28" fill="white" transform="translate(6 6)"/>
</clipPath>
</defs>
</svg>
