<svg width="80" height="80" viewBox="0 0 80 80" fill="none" xmlns="http://www.w3.org/2000/svg">
<path d="M47.2188 9.32782C47.905 8.27927 49.4253 8.23564 50.1709 9.24286L60.4033 23.0661C63.4233 26.751 66.5761 32.8148 66.5762 38.6647C66.5762 44.5147 64.07 50.6657 58.5137 55.1882L41.7412 71.0651C41.1987 71.507 40.4672 71.7536 39.7061 71.7536C38.9453 71.7535 38.2151 71.5067 37.6729 71.0651L21.5537 55.1882C19.6752 53.5134 16.9465 50.3636 15.9102 48.3259C14.6004 45.7503 13.9259 42.9835 13.9258 40.1891C13.9258 35.2896 17.2258 29.0318 18.876 26.5153C19.0901 26.2745 19.7072 25.3374 19.7832 25.2165L29.7012 9.42645C30.3801 8.34551 31.9372 8.29504 32.6846 9.32977L38.7754 17.7634C39.5143 18.7865 41.0499 18.7518 41.7412 17.696L47.2188 9.32782ZM40.0264 28.7653C35.0558 28.7653 31.0264 32.7948 31.0264 37.7653C31.0266 42.7357 35.0559 46.7653 40.0264 46.7653C44.9966 46.7651 49.0262 42.7356 49.0264 37.7653C49.0264 32.7949 44.9967 28.7656 40.0264 28.7653Z" fill="#FF502E"/>
</svg>
