<svg width="54" height="68" viewBox="0 0 54 68" fill="none" xmlns="http://www.w3.org/2000/svg">
<g filter="url(#filter0_g_5047_19960)">
<path fill-rule="evenodd" clip-rule="evenodd" d="M11.9559 58.8872C11.9515 58.8439 11.9541 58.8004 11.9621 58.7575C12.5511 55.6074 15.0263 55.2059 16.3413 55.4122C16.4467 55.4288 16.5409 55.4836 16.6135 55.5618L22.7926 62.2211C22.8214 62.2521 22.8473 62.2883 22.8673 62.3256C24.6883 65.7206 21.1408 66.3696 19.0481 66.2694C18.9903 66.2666 18.9335 66.2531 18.8802 66.2305C13.7029 64.043 12.1153 60.4713 11.9559 58.8872ZM20.6943 2.39372C20.9115 1.44085 22.0258 1.01216 22.8252 1.57438L35.2871 10.339C41.7098 14.4024 50.9854 24.9363 38.8858 35.5931C38.6474 35.8031 38.6367 36.184 38.8778 36.3909L41.4668 38.6125C44.7484 41.4287 45.7097 45.6372 44.656 49.3037C44.5656 49.6186 44.7676 49.9499 45.0924 49.993L45.9976 50.1132C46.1687 50.1359 46.3389 50.0704 46.4572 49.9448C48.3711 47.9108 50.013 48.5113 50.6745 49.1367C50.7198 49.1796 50.7714 49.2173 50.8266 49.2464C53.2162 50.5039 52.0838 54.3945 51.1863 56.2521C51.17 56.286 51.1575 56.3213 51.1482 56.3577C50.4936 58.9125 47.9144 59.068 46.6982 58.8234L34.07 57.9548C33.9899 57.9493 33.9096 57.9626 33.8356 57.9936L30.5127 59.3849C23.0864 62.4927 15.1227 56.2689 16.3437 48.3117L17.0046 44.0021C17.0532 43.6856 16.8043 43.4026 16.4841 43.3996C16.1422 43.3964 15.8056 43.3836 15.4755 43.3586C6.41838 42.6726 -2.64237 36.4302 3.14352 23.9679C3.18893 23.8701 3.225 23.764 3.24703 23.6584L6.63375 7.42497C6.83695 6.45093 7.97598 6.00825 8.78317 6.59L16.5088 12.1593C17.3071 12.7348 18.4346 12.3093 18.6533 11.3498L20.6943 2.39372Z" fill="#FF502E"/>
<path d="M20.6943 2.39372L19.6055 2.14557L19.6055 2.14558L20.6943 2.39372ZM22.8252 1.57438L23.4676 0.660928L23.4676 0.660926L22.8252 1.57438ZM35.2871 10.339L34.6446 11.2525L34.667 11.2682L34.69 11.2828L35.2871 10.339ZM41.4668 38.6125L42.194 37.765L42.194 37.765L41.4668 38.6125ZM46.6982 58.8234L46.9184 57.7286L46.8472 57.7143L46.7748 57.7093L46.6982 58.8234ZM30.5127 59.3849L30.9438 60.4151L30.944 60.415L30.5127 59.3849ZM16.3437 48.3117L17.4475 48.4811L17.4476 48.481L16.3437 48.3117ZM15.4755 43.3586L15.3912 44.4721H15.3912L15.4755 43.3586ZM3.14352 23.9679L4.15642 24.4382L4.15648 24.4381L3.14352 23.9679ZM3.24703 23.6584L2.15382 23.4303L2.15382 23.4303L3.24703 23.6584ZM6.63375 7.42497L7.72696 7.65304L7.72697 7.65303L6.63375 7.42497ZM8.78317 6.59L9.43622 5.68411L9.43611 5.68403L8.78317 6.59ZM16.5088 12.1593L15.8557 13.0652L15.8557 13.0653L16.5088 12.1593ZM18.6533 11.3498L19.7421 11.5979L19.7421 11.5979L18.6533 11.3498ZM17.0046 44.0021L15.9008 43.8328L17.0046 44.0021ZM16.4841 43.3996L16.4736 44.5163L16.4841 43.3996ZM45.9976 50.1132L45.8507 51.2203L45.9976 50.1132ZM46.4572 49.9448L45.6439 49.1795L46.4572 49.9448ZM44.656 49.3037L43.5827 48.9953L44.656 49.3037ZM45.0924 49.993L45.2394 48.886L45.0924 49.993ZM34.07 57.9548L33.9934 59.0689L34.07 57.9548ZM33.8356 57.9936L34.2669 59.0237L33.8356 57.9936ZM19.0481 66.2694L19.1015 65.1539L19.0481 66.2694ZM18.8802 66.2305L18.4455 67.2592L18.8802 66.2305ZM38.8778 36.3909L38.1506 37.2384L38.8778 36.3909ZM22.7926 62.2211L23.6112 61.4615L22.7926 62.2211ZM22.8673 62.3256L23.8514 61.7977L22.8673 62.3256ZM51.1863 56.2521L50.1808 55.7663L51.1863 56.2521ZM51.1482 56.3577L52.23 56.6349L51.1482 56.3577ZM16.3413 55.4122L16.5144 54.309L16.3413 55.4122ZM16.6135 55.5618L15.7948 56.3214L16.6135 55.5618ZM50.6745 49.1367L51.4417 48.3252L50.6745 49.1367ZM50.8266 49.2464L51.3467 48.2581L50.8266 49.2464ZM11.9621 58.7575L13.0598 58.9628L11.9621 58.7575ZM11.9559 58.8872L10.8448 58.999L11.9559 58.8872ZM11.9621 58.7575L13.0598 58.9628C13.2974 57.6922 13.8741 57.1019 14.4151 56.8061C15.0069 56.4826 15.6928 56.4409 16.1682 56.5155L16.3413 55.4122L16.5144 54.309C15.6748 54.1772 14.4655 54.2331 13.3438 54.8463C12.1712 55.4873 11.2158 56.6728 10.8644 58.5523L11.9621 58.7575ZM16.6135 55.5618L15.7948 56.3214L21.974 62.9807L22.7926 62.2211L23.6112 61.4615L17.4321 54.8022L16.6135 55.5618ZM22.8673 62.3256L21.8832 62.8535C22.268 63.5709 22.2774 63.9756 22.2388 64.1655C22.2058 64.3274 22.1069 64.4907 21.8345 64.6605C21.2078 65.0513 20.0804 65.2008 19.1015 65.1539L19.0481 66.2694L18.9947 67.3849C20.1085 67.4382 21.8012 67.3133 23.0162 66.5559C23.6646 66.1516 24.242 65.5224 24.4274 64.6108C24.6072 63.7274 24.3771 62.7778 23.8514 61.7977L22.8673 62.3256ZM18.8802 66.2305L19.3148 65.2018C14.4702 63.1549 13.181 59.9083 13.067 58.7755L11.9559 58.8872L10.8448 58.999C11.0495 61.0344 12.9356 64.9312 18.4455 67.2592L18.8802 66.2305ZM20.6943 2.39372L21.7831 2.64186C21.824 2.46253 22.0334 2.38281 22.1827 2.48783L22.8252 1.57438L23.4676 0.660926C22.0182 -0.358488 19.9989 0.419161 19.6055 2.14557L20.6943 2.39372ZM22.8252 1.57438L22.1827 2.48783L34.6446 11.2525L35.2871 10.339L35.9295 9.42558L23.4676 0.660928L22.8252 1.57438ZM35.2871 10.339L34.69 11.2828C37.7885 13.243 41.4883 16.7208 42.9815 20.8715C43.7184 22.92 43.9158 25.1213 43.2578 27.4147C42.5978 29.7148 41.0512 32.1978 38.1477 34.7551L38.8858 35.5931L39.6239 36.4312C42.7702 33.66 44.6015 30.83 45.4046 28.0307C46.2097 25.2248 45.9555 22.5406 45.0831 20.1155C43.3577 15.3192 39.2084 11.4984 35.8841 9.39529L35.2871 10.339ZM38.8778 36.3909L38.1506 37.2384L40.7395 39.46L41.4668 38.6125L42.194 37.765L39.605 35.5434L38.8778 36.3909ZM41.4668 38.6125L40.7395 39.4599C43.6643 41.9699 44.5252 45.7155 43.5827 48.9953L44.656 49.3037L45.7294 49.6121C46.8941 45.559 45.8326 40.8874 42.194 37.765L41.4668 38.6125ZM45.0924 49.993L44.9454 51.1001L45.8507 51.2203L45.9976 50.1132L46.1446 49.0062L45.2394 48.886L45.0924 49.993ZM46.4572 49.9448L47.2705 50.7101C48.077 49.853 48.7037 49.6727 49.075 49.6595C49.4696 49.6455 49.7637 49.8125 49.9073 49.9482L50.6745 49.1367L51.4417 48.3252C50.9237 47.8355 50.0661 47.3895 48.996 47.4274C47.9025 47.4661 46.7513 48.0026 45.6439 49.1795L46.4572 49.9448ZM50.8266 49.2464L50.3065 50.2346C50.9056 50.5499 51.2108 51.238 51.1252 52.4453C51.0418 53.6205 50.5915 54.9162 50.1808 55.7663L51.1863 56.2521L52.1919 56.7379C52.6786 55.7304 53.2432 54.1521 53.3531 52.6032C53.4606 51.0864 53.1372 49.2004 51.3467 48.2581L50.8266 49.2464ZM51.1482 56.3577L50.0664 56.0806C49.8417 56.9574 49.3272 57.3764 48.7436 57.594C48.1035 57.8327 47.3734 57.8201 46.9184 57.7286L46.6982 58.8234L46.478 59.9182C47.2393 60.0713 48.4069 60.1033 49.524 59.6867C50.6978 59.249 51.8001 58.3128 52.23 56.6349L51.1482 56.3577ZM46.6982 58.8234L46.7748 57.7093L34.1466 56.8407L34.07 57.9548L33.9934 59.0689L46.6216 59.9375L46.6982 58.8234ZM33.8356 57.9936L33.4043 56.9635L30.0814 58.3548L30.5127 59.3849L30.944 60.415L34.2669 59.0237L33.8356 57.9936ZM30.5127 59.3849L30.0815 58.3547C23.4598 61.1258 16.3588 55.5763 17.4475 48.4811L16.3437 48.3117L15.2399 48.1423C13.8866 56.9616 22.7129 63.8596 30.9438 60.4151L30.5127 59.3849ZM16.3437 48.3117L17.4476 48.481L18.1085 44.1714L17.0046 44.0021L15.9008 43.8328L15.2399 48.1424L16.3437 48.3117ZM16.4841 43.3996L16.4946 42.2829C16.1736 42.2799 15.862 42.2679 15.5599 42.245L15.4755 43.3586L15.3912 44.4721C15.7493 44.4992 16.1107 44.5129 16.4736 44.5163L16.4841 43.3996ZM15.4755 43.3586L15.5599 42.245C11.2131 41.9158 7.01649 40.2583 4.60077 37.3638C2.26309 34.5628 1.40289 30.369 4.15642 24.4382L3.14352 23.9679L2.13061 23.4977C-0.901738 30.029 -0.124513 35.1877 2.886 38.7949C5.81848 42.3086 10.6808 44.1154 15.3912 44.4721L15.4755 43.3586ZM3.14352 23.9679L4.15648 24.4381C4.23532 24.2682 4.29964 24.0811 4.34025 23.8864L3.24703 23.6584L2.15382 23.4303C2.15037 23.4468 2.14254 23.472 2.13055 23.4978L3.14352 23.9679ZM3.24703 23.6584L4.34024 23.8864L7.72696 7.65304L6.63375 7.42497L5.54054 7.19689L2.15382 23.4303L3.24703 23.6584ZM6.63375 7.42497L7.72697 7.65303C7.76521 7.4697 7.97945 7.38732 8.13022 7.49598L8.78317 6.59L9.43611 5.68403C7.97251 4.62919 5.90869 5.43216 5.54054 7.1969L6.63375 7.42497ZM8.78317 6.59L8.13011 7.4959L15.8557 13.0652L16.5088 12.1593L17.1618 11.2534L9.43622 5.68411L8.78317 6.59ZM16.5088 12.1593L15.8557 13.0653C17.3024 14.1081 19.3457 13.3375 19.7421 11.5979L18.6533 11.3498L17.5645 11.1016C17.5235 11.2812 17.3118 11.3615 17.1618 11.2534L16.5088 12.1593ZM18.6533 11.3498L19.7421 11.5979L21.7831 2.64185L20.6943 2.39372L19.6055 2.14558L17.5645 11.1016L18.6533 11.3498ZM17.0046 44.0021L18.1085 44.1714C18.2638 43.1587 17.4702 42.2921 16.4946 42.2829L16.4841 43.3996L16.4736 44.5163C16.1384 44.5132 15.8426 44.2125 15.9008 43.8328L17.0046 44.0021ZM45.9976 50.1132L45.8507 51.2203C46.4006 51.2933 46.9218 51.0807 47.2705 50.7101L46.4572 49.9448L45.6439 49.1795C45.7561 49.0602 45.9367 48.9786 46.1446 49.0062L45.9976 50.1132ZM44.656 49.3037L43.5827 48.9953C43.3169 49.9204 43.8982 50.9611 44.9454 51.1001L45.0924 49.993L45.2394 48.886C45.637 48.9388 45.8142 49.3168 45.7294 49.6121L44.656 49.3037ZM34.07 57.9548L34.1466 56.8407C33.893 56.8233 33.6388 56.8653 33.4043 56.9635L33.8356 57.9936L34.2669 59.0237C34.1805 59.0599 34.0868 59.0754 33.9934 59.0689L34.07 57.9548ZM19.0481 66.2694L19.1015 65.1539C19.183 65.1578 19.2549 65.1765 19.3148 65.2018L18.8802 66.2305L18.4455 67.2592C18.6121 67.3296 18.7976 67.3754 18.9947 67.3849L19.0481 66.2694ZM38.8858 35.5931L38.1477 34.7551C37.4385 35.3797 37.3565 36.557 38.1506 37.2384L38.8778 36.3909L39.605 35.5434C39.917 35.811 39.8563 36.2265 39.6239 36.4312L38.8858 35.5931ZM22.7926 62.2211L21.974 62.9807C21.9385 62.9424 21.9087 62.901 21.8832 62.8535L22.8673 62.3256L23.8514 61.7977C23.786 61.6757 23.7042 61.5617 23.6112 61.4615L22.7926 62.2211ZM51.1863 56.2521L50.1808 55.7663C50.1284 55.8746 50.0919 55.9809 50.0664 56.0806L51.1482 56.3577L52.23 56.6349C52.2231 56.6617 52.2115 56.6973 52.1919 56.7379L51.1863 56.2521ZM16.3413 55.4122L16.1682 56.5155C15.9964 56.4885 15.8712 56.4037 15.7948 56.3214L16.6135 55.5618L17.4321 54.8022C17.2105 54.5634 16.897 54.369 16.5144 54.309L16.3413 55.4122ZM50.6745 49.1367L49.9073 49.9482C50.0204 50.0552 50.1541 50.1544 50.3065 50.2346L50.8266 49.2464L51.3467 48.2581C51.3887 48.2803 51.4192 48.304 51.4417 48.3252L50.6745 49.1367ZM11.9621 58.7575L10.8644 58.5523C10.8393 58.6867 10.8285 58.8375 10.8448 58.999L11.9559 58.8872L13.067 58.7755C13.0746 58.8502 13.069 58.9141 13.0598 58.9628L11.9621 58.7575Z" fill="#FF502E"/>
</g>
<g filter="url(#filter1_g_5047_19960)">
<mask id="path-3-outside-1_5047_19960" maskUnits="userSpaceOnUse" x="19.87" y="25.9622" width="31.2444" height="22.6445" fill="black">
<rect fill="white" x="19.87" y="25.9622" width="31.2444" height="22.6445"/>
<path d="M35.3396 29.7536C38.2904 29.1443 40.7636 31.1056 41.6314 32.1629C41.6555 32.1641 41.6793 32.1683 41.7033 32.1702L41.7332 32.3957C42.962 33.7696 43.7867 38.3858 43.0724 40.8005C43.3733 40.7636 43.6231 40.8358 44.1782 40.6037C44.0964 39.1383 44.5546 35.155 41.8091 32.1808C43.261 32.349 44.7085 33.6754 45.2689 34.3447C50.8972 37.4502 47.5916 39.2477 45.2355 39.7583C44.0646 41.0017 43.1213 41.0701 42.7955 40.9485C42.0012 44.6659 37.2997 44.9135 35.0481 44.5726C34.2729 45.0712 31.3206 45.2315 29.9414 45.2493C29.677 45.3392 29.4222 45.4186 29.1773 45.4894C29.4123 45.3921 29.6695 45.2808 29.9541 45.1442C30.6384 44.1703 31.7775 41.4796 26.2394 38.8332C27.177 35.4225 28.9815 34.0126 29.99 33.7054C30.6956 30.9902 33.8506 29.9397 35.3396 29.7536ZM25.9912 39.1085C29.843 41.2941 30.4844 44.7712 27.0382 45.9029C22.1794 46.2655 23.4314 41.1752 25.9912 39.1085ZM29.9701 33.9789C35.6212 36.7919 37.3022 44.9338 31.1564 45.1484C32.6488 45.101 33.3078 45.1116 35.0911 44.3985C37.461 43.1563 35.5015 35.4853 29.9583 33.8898L29.9701 33.9789ZM45.2619 34.6934C45.5841 37.1253 45.3115 38.0293 45.3215 39.6267L45.7817 39.4199C45.8295 36.3267 45.9852 36.4699 45.2129 34.3235L45.2619 34.6934Z"/>
</mask>
<path d="M35.3396 29.7536C38.2904 29.1443 40.7636 31.1056 41.6314 32.1629C41.6555 32.1641 41.6793 32.1683 41.7033 32.1702L41.7332 32.3957C42.962 33.7696 43.7867 38.3858 43.0724 40.8005C43.3733 40.7636 43.6231 40.8358 44.1782 40.6037C44.0964 39.1383 44.5546 35.155 41.8091 32.1808C43.261 32.349 44.7085 33.6754 45.2689 34.3447C50.8972 37.4502 47.5916 39.2477 45.2355 39.7583C44.0646 41.0017 43.1213 41.0701 42.7955 40.9485C42.0012 44.6659 37.2997 44.9135 35.0481 44.5726C34.2729 45.0712 31.3206 45.2315 29.9414 45.2493C29.677 45.3392 29.4222 45.4186 29.1773 45.4894C29.4123 45.3921 29.6695 45.2808 29.9541 45.1442C30.6384 44.1703 31.7775 41.4796 26.2394 38.8332C27.177 35.4225 28.9815 34.0126 29.99 33.7054C30.6956 30.9902 33.8506 29.9397 35.3396 29.7536ZM25.9912 39.1085C29.843 41.2941 30.4844 44.7712 27.0382 45.9029C22.1794 46.2655 23.4314 41.1752 25.9912 39.1085ZM29.9701 33.9789C35.6212 36.7919 37.3022 44.9338 31.1564 45.1484C32.6488 45.101 33.3078 45.1116 35.0911 44.3985C37.461 43.1563 35.5015 35.4853 29.9583 33.8898L29.9701 33.9789ZM45.2619 34.6934C45.5841 37.1253 45.3115 38.0293 45.3215 39.6267L45.7817 39.4199C45.8295 36.3267 45.9852 36.4699 45.2129 34.3235L45.2619 34.6934Z" fill="white"/>
<path d="M35.3396 29.7536L35.5197 31.1949L35.5769 31.1878L35.6333 31.1761L35.3396 29.7536ZM41.6314 32.1629L40.5087 33.0844L40.9175 33.5825L41.5612 33.6137L41.6314 32.1629ZM41.7033 32.1702L43.1432 31.9794L42.9885 30.8115L41.8138 30.7219L41.7033 32.1702ZM41.7332 32.3957L40.2933 32.5865L40.3521 33.0303L40.6506 33.364L41.7332 32.3957ZM43.0724 40.8005L41.6796 40.3884L41.0516 42.5112L43.2489 42.2422L43.0724 40.8005ZM44.1782 40.6037L44.7385 41.9438L45.6856 41.5478L45.6284 40.5228L44.1782 40.6037ZM41.8091 32.1808L41.9764 30.7379L38.0842 30.2869L40.7419 33.166L41.8091 32.1808ZM45.2689 34.3447L44.1551 35.2771L44.3294 35.4853L44.5671 35.6164L45.2689 34.3447ZM45.2355 39.7583L44.9279 38.3388L44.4872 38.4343L44.178 38.7625L45.2355 39.7583ZM42.7955 40.9485L43.3034 39.5877L41.7267 38.9991L41.3751 40.645L42.7955 40.9485ZM35.0481 44.5726L35.2655 43.1365L34.7235 43.0545L34.2625 43.351L35.0481 44.5726ZM29.9414 45.2493L29.9227 43.7969L29.6919 43.7999L29.4734 43.8742L29.9414 45.2493ZM29.1773 45.4894L28.6215 44.1475L29.5809 46.8847L29.1773 45.4894ZM29.9541 45.1442L30.5829 46.4535L30.9246 46.2894L31.1425 45.9792L29.9541 45.1442ZM26.2394 38.8332L24.8389 38.4483L24.5169 39.6199L25.6132 40.1438L26.2394 38.8332ZM29.99 33.7054L30.4133 35.0948L31.1912 34.8578L31.3958 34.0707L29.99 33.7054ZM25.9912 39.1085L26.708 37.8452L25.8481 37.3572L25.0788 37.9783L25.9912 39.1085ZM27.0382 45.9029L27.1463 47.3513L27.323 47.3381L27.4914 47.2828L27.0382 45.9029ZM29.9701 33.9789L28.5302 34.1697L28.6316 34.9351L29.3228 35.2792L29.9701 33.9789ZM31.1564 45.1484L31.1058 43.6968L31.2025 46.6001L31.1564 45.1484ZM35.0911 44.3985L35.6304 45.7471L35.6995 45.7195L35.7654 45.685L35.0911 44.3985ZM29.9583 33.8898L30.36 32.494L28.2268 31.88L28.5184 34.0806L29.9583 33.8898ZM45.3215 39.6267L43.869 39.6358L43.883 41.8654L45.9167 40.9516L45.3215 39.6267ZM45.7817 39.4199L46.377 40.7448L47.2198 40.3662L47.234 39.4424L45.7817 39.4199ZM45.2129 34.3235L46.5796 33.8318L43.773 34.5143L45.2129 34.3235ZM35.3396 29.7536L35.6333 31.1761C36.7098 30.9538 37.7315 31.1908 38.6185 31.6331C39.52 32.0827 40.1965 32.7041 40.5087 33.0844L41.6314 32.1629L42.7542 31.2414C42.1985 30.5644 41.2045 29.6765 39.9148 29.0334C38.6106 28.3831 36.9202 27.9441 35.0458 28.3312L35.3396 29.7536ZM41.6314 32.1629L41.5612 33.6137C41.5368 33.6125 41.5179 33.6108 41.5074 33.6098C41.4975 33.6088 41.491 33.608 41.4949 33.6085C41.4957 33.6086 41.4965 33.6087 41.4982 33.6089C41.4996 33.6091 41.5017 33.6093 41.504 33.6096C41.5085 33.6101 41.5154 33.6109 41.5233 33.6118C41.539 33.6136 41.5635 33.6162 41.5929 33.6184L41.7033 32.1702L41.8138 30.7219C41.8311 30.7232 41.8437 30.7246 41.8473 30.725C41.8483 30.7251 41.8525 30.7256 41.8399 30.7241C41.8317 30.7231 41.8133 30.7209 41.7915 30.7188C41.769 30.7166 41.7381 30.7139 41.7017 30.7122L41.6314 32.1629ZM41.7033 32.1702L40.2634 32.3609L40.2933 32.5865L41.7332 32.3957L43.1731 32.2049L43.1432 31.9794L41.7033 32.1702ZM41.7332 32.3957L40.6506 33.364C40.7749 33.503 40.9802 33.8452 41.1947 34.441C41.3988 35.0078 41.575 35.702 41.6986 36.4459C41.9537 37.9809 41.9464 39.4864 41.6796 40.3884L43.0724 40.8005L44.4652 41.2125C44.9127 39.6999 44.8502 37.6899 44.5643 35.9697C44.4174 35.086 44.2018 34.2176 43.9279 33.457C43.6645 32.7254 43.3059 31.9754 42.8158 31.4274L41.7332 32.3957ZM43.0724 40.8005L43.2489 42.2422C43.1623 42.2528 43.9429 42.2764 44.7385 41.9438L44.1782 40.6037L43.6179 39.2636C43.3032 39.3952 43.5844 39.2744 42.8959 39.3587L43.0724 40.8005ZM44.1782 40.6037L45.6284 40.5228C45.5657 39.3992 46.0743 34.6599 42.8764 31.1956L41.8091 32.1808L40.7419 33.166C43.035 35.6501 42.6271 38.8774 42.728 40.6846L44.1782 40.6037ZM41.8091 32.1808L41.6419 33.6236C42.0198 33.6674 42.5087 33.8867 43.0315 34.2585C43.5372 34.6182 43.9491 35.0309 44.1551 35.2771L45.2689 34.3447L46.3826 33.4123C46.0283 32.9892 45.4363 32.4041 44.7152 31.8912C44.0111 31.3904 43.0503 30.8624 41.9764 30.7379L41.8091 32.1808ZM45.2689 34.3447L44.5671 35.6164C45.9044 36.3543 46.5342 36.9241 46.7937 37.2817C47.0001 37.5663 46.8696 37.541 46.9283 37.4143C46.9298 37.4111 46.9067 37.4606 46.8053 37.55C46.7048 37.6386 46.5561 37.7406 46.354 37.8461C45.9453 38.0595 45.4273 38.2305 44.9279 38.3388L45.2355 39.7583L45.5431 41.1778C46.2217 41.0308 47.0005 40.7856 47.6984 40.4213C48.3583 40.0768 49.156 39.5169 49.5644 38.6349C50.0404 37.6068 49.8283 36.5179 49.1452 35.5761C48.5151 34.7073 47.4474 33.8879 45.9706 33.073L45.2689 34.3447ZM45.2355 39.7583L44.178 38.7625C43.7152 39.254 43.3677 39.4386 43.1922 39.5039C43.1032 39.537 43.0606 39.5389 43.0665 39.5386C43.0694 39.5384 43.0892 39.5374 43.1244 39.5418C43.1571 39.5458 43.2201 39.5566 43.3034 39.5877L42.7955 40.9485L42.2875 42.3092C43.4106 42.7285 44.9425 42.1881 46.2929 40.754L45.2355 39.7583ZM42.7955 40.9485L41.3751 40.645C41.1254 41.8136 40.2921 42.5051 39.0369 42.8955C37.7476 43.2965 36.2421 43.2844 35.2655 43.1365L35.0481 44.5726L34.8307 46.0088C36.1057 46.2018 38.0768 46.2363 39.8996 45.6694C41.7566 45.0918 43.6713 43.8007 44.2159 41.252L42.7955 40.9485ZM35.0481 44.5726L34.2625 43.351C34.3112 43.3197 34.2126 43.3821 33.819 43.4646C33.4796 43.5358 33.0493 43.5969 32.5712 43.6465C31.618 43.7455 30.5804 43.7884 29.9227 43.7969L29.9414 45.2493L29.9601 46.7016C30.6816 46.6923 31.8098 46.6462 32.8713 46.536C33.4006 46.481 33.9399 46.4074 34.4152 46.3078C34.8364 46.2195 35.3975 46.0749 35.8338 45.7943L35.0481 44.5726ZM29.9414 45.2493L29.4734 43.8742C29.2322 43.9563 28.9989 44.029 28.7736 44.0941L29.1773 45.4894L29.5809 46.8847C29.8455 46.8081 30.1219 46.7221 30.4094 46.6243L29.9414 45.2493ZM29.1773 45.4894L29.733 46.8314C29.9842 46.7273 30.2671 46.6051 30.5829 46.4535L29.9541 45.1442L29.3253 43.8348C29.0718 43.9565 28.8405 44.0568 28.6215 44.1475L29.1773 45.4894ZM29.9541 45.1442L31.1425 45.9792C31.6048 45.3213 32.3207 43.9434 31.8266 42.2163C31.3383 40.5096 29.797 38.9234 26.8657 37.5227L26.2394 38.8332L25.6132 40.1438C28.22 41.3895 28.8781 42.4718 29.0337 43.0155C29.1834 43.5388 28.9877 43.9931 28.7657 44.3091L29.9541 45.1442ZM26.2394 38.8332L27.64 39.2182C28.4874 36.1354 30.0149 35.2162 30.4133 35.0948L29.99 33.7054L29.5667 32.3159C27.9482 32.809 25.8666 34.7095 24.8389 38.4483L26.2394 38.8332ZM29.99 33.7054L31.3958 34.0707C31.6194 33.2102 32.2458 32.5398 33.1074 32.0331C33.9753 31.5226 34.9411 31.2672 35.5197 31.1949L35.3396 29.7536L35.1595 28.3124C34.249 28.4261 32.8929 28.789 31.6347 29.5291C30.3701 30.2729 29.0662 31.4854 28.5842 33.34L29.99 33.7054ZM25.9912 39.1085L25.2744 40.3717C27.0039 41.3531 27.707 42.4597 27.8182 43.1365C27.8676 43.4368 27.8087 43.6551 27.6811 43.837C27.5409 44.0369 27.2311 44.3107 26.5851 44.5229L27.0382 45.9029L27.4914 47.2828C28.5684 46.9292 29.4708 46.344 30.0592 45.5054C30.6602 44.6487 30.8464 43.649 30.6847 42.6653C30.3739 40.7743 28.8303 39.0494 26.708 37.8452L25.9912 39.1085ZM27.0382 45.9029L26.9301 44.4544C25.9398 44.5283 25.5489 44.303 25.4194 44.1901C25.3058 44.091 25.1773 43.8908 25.185 43.4417C25.2021 42.449 25.9063 41.0438 26.9037 40.2386L25.9912 39.1085L25.0788 37.9783C23.5163 39.2399 22.3146 41.4131 22.2805 43.3916C22.2626 44.4282 22.5721 45.5617 23.5103 46.3797C24.4325 47.1837 25.7072 47.4587 27.1463 47.3513L27.0382 45.9029ZM29.9701 33.9789L29.3228 35.2792C31.7368 36.4808 33.2638 38.8216 33.5504 40.7514C33.6916 41.7025 33.5151 42.4052 33.19 42.8454C32.892 43.249 32.3052 43.6549 31.1058 43.6968L31.1564 45.1484L31.2071 46.6C33.0806 46.5346 34.5883 45.8422 35.527 44.571C36.4387 43.3363 36.641 41.7875 36.4238 40.3247C35.9935 37.4266 33.8545 34.29 30.6174 32.6786L29.9701 33.9789ZM31.1564 45.1484L31.2025 46.6001C31.9101 46.5777 32.5577 46.5678 33.2454 46.4571C33.9595 46.3422 34.6777 46.1282 35.6304 45.7471L35.0911 44.3985L34.5517 43.0499C33.7212 43.382 33.2183 43.5192 32.7839 43.5891C32.3232 43.6632 31.8952 43.6717 31.1103 43.6966L31.1564 45.1484ZM35.0911 44.3985L35.7654 45.685C37.0193 45.0277 37.4407 43.6769 37.5175 42.5561C37.5983 41.3758 37.3467 40.0342 36.8453 38.7487C35.8488 36.1945 33.6933 33.4534 30.36 32.494L29.9583 33.8898L29.5566 35.2857C31.7665 35.9217 33.3623 37.8138 34.1389 39.8045C34.524 40.7916 34.6643 41.7003 34.6193 42.3575C34.5702 43.0743 34.3478 43.1482 34.4167 43.112L35.0911 44.3985ZM29.9583 33.8898L28.5184 34.0806L28.5302 34.1697L29.9701 33.9789L31.41 33.7881L31.3982 33.6991L29.9583 33.8898ZM45.2619 34.6934L43.822 34.8841C44.1319 37.2234 43.8571 37.7234 43.869 39.6358L45.3215 39.6267L46.7739 39.6176C46.7659 38.3353 47.0362 37.0271 46.7018 34.5026L45.2619 34.6934ZM45.3215 39.6267L45.9167 40.9516L46.377 40.7448L45.7817 39.4199L45.1865 38.095L44.7262 38.3018L45.3215 39.6267ZM45.7817 39.4199L47.234 39.4424C47.2561 38.0107 47.3118 37.1099 47.2523 36.3959C47.1829 35.5644 46.964 34.9001 46.5796 33.8318L45.2129 34.3235L43.8462 34.8153C44.234 35.8933 44.3234 36.2306 44.3574 36.6374C44.4011 37.1617 44.3551 37.736 44.3294 39.3975L45.7817 39.4199ZM45.2129 34.3235L43.773 34.5143L43.822 34.8841L45.2619 34.6934L46.7018 34.5026L46.6528 34.1328L45.2129 34.3235Z" fill="#FF502E" mask="url(#path-3-outside-1_5047_19960)"/>
</g>
<g filter="url(#filter2_g_5047_19960)">
<path d="M34.72 47.5692C35.5817 48.6887 33.3613 49.6782 32.0144 49.5674C32.0144 49.5674 25.8662 50.0056 22.2168 49.9143L19.4235 40.1848C21.9082 40.2131 26.2126 40.5636 26.2126 40.5636L32.5112 40.5429C35.8073 40.5496 35.9981 42.6714 35.0336 43.1063C36.0319 43.579 36.7059 46.8088 34.72 47.5692Z" fill="#FF502E"/>
</g>
<g filter="url(#filter3_g_5047_19960)">
<path d="M22.2168 49.9143C25.8662 50.0056 32.0144 49.5674 32.0144 49.5674C33.3613 49.6782 35.5817 48.6887 34.72 47.5692C36.7059 46.8088 36.0319 43.579 35.0336 43.1063C35.9981 42.6714 35.8073 40.5496 32.5112 40.5429L26.2126 40.5636C26.2126 40.5636 21.9082 40.2131 19.4235 40.1848" stroke="white" stroke-width="1.45248"/>
</g>
<g filter="url(#filter4_g_5047_19960)">
<rect width="3.73824" height="6.4084" rx="1.86912" transform="matrix(-0.983659 0.180043 0.180043 0.983659 37.6763 19.9697)" fill="white"/>
<rect width="3.90448" height="6.69339" rx="1.95224" transform="matrix(-0.983659 0.180043 0.180043 0.983659 24.7277 23.4893)" fill="white"/>
<rect width="1.36087" height="1.53057" rx="0.680437" transform="matrix(-0.966882 0.255223 0.255223 0.966882 31.8429 26.0098)" fill="white"/>
</g>
<g filter="url(#filter5_g_5047_19960)">
<path d="M11.2352 30.4484C11.7467 30.9024 14.0379 31.6587 19.1111 31.0517" stroke="white" stroke-width="1.54627"/>
</g>
<g filter="url(#filter6_g_5047_19960)">
<path d="M44.2903 26.6952C44.0586 27.0819 43.0207 27.7259 40.7225 27.2091" stroke="white" stroke-width="1.54627"/>
</g>
<g filter="url(#filter7_g_5047_19960)">
<path d="M44.2085 23.5941C44.0499 24.016 43.1442 24.8357 40.7906 24.7393" stroke="white" stroke-width="1.54627"/>
</g>
<g filter="url(#filter8_g_5047_19960)">
<path d="M12.1552 34.543C12.7473 34.8852 15.1437 35.1668 19.9921 33.5551" stroke="white" stroke-width="1.54627"/>
</g>
<defs>
<filter id="filter0_g_5047_19960" x="7.7039e-06" y="-0.000114366" width="53.5777" height="67.6018" filterUnits="userSpaceOnUse" color-interpolation-filters="sRGB">
<feFlood flood-opacity="0" result="BackgroundImageFix"/>
<feBlend mode="normal" in="SourceGraphic" in2="BackgroundImageFix" result="shape"/>
<feTurbulence type="fractalNoise" baseFrequency="0.86872619390487671 0.86872619390487671" numOctaves="3" seed="4660" />
<feDisplacementMap in="shape" scale="0.41233810782432556" xChannelSelector="R" yChannelSelector="G" result="displacedImage" width="100%" height="100%" />
<feMerge result="effect1_texture_5047_19960">
<feMergeNode in="displacedImage"/>
</feMerge>
</filter>
<filter id="filter1_g_5047_19960" x="21.4473" y="27.353" width="29.2064" height="20.8535" filterUnits="userSpaceOnUse" color-interpolation-filters="sRGB">
<feFlood flood-opacity="0" result="BackgroundImageFix"/>
<feBlend mode="normal" in="SourceGraphic" in2="BackgroundImageFix" result="shape"/>
<feTurbulence type="fractalNoise" baseFrequency="0.21514064073562622 0.21514064073562622" numOctaves="3" seed="4660" />
<feDisplacementMap in="shape" scale="1.66499924659729" xChannelSelector="R" yChannelSelector="G" result="displacedImage" width="100%" height="100%" />
<feMerge result="effect1_texture_5047_19960">
<feMergeNode in="displacedImage"/>
</feMerge>
</filter>
<filter id="filter2_g_5047_19960" x="19.2173" y="39.9784" width="16.9888" height="10.1545" filterUnits="userSpaceOnUse" color-interpolation-filters="sRGB">
<feFlood flood-opacity="0" result="BackgroundImageFix"/>
<feBlend mode="normal" in="SourceGraphic" in2="BackgroundImageFix" result="shape"/>
<feTurbulence type="fractalNoise" baseFrequency="0.86872619390487671 0.86872619390487671" numOctaves="3" seed="4660" />
<feDisplacementMap in="shape" scale="0.41233810782432556" xChannelSelector="R" yChannelSelector="G" result="displacedImage" width="100%" height="100%" />
<feMerge result="effect1_texture_5047_19960">
<feMergeNode in="displacedImage"/>
</feMerge>
</filter>
<filter id="filter3_g_5047_19960" x="19.2091" y="39.2528" width="17.723" height="11.6067" filterUnits="userSpaceOnUse" color-interpolation-filters="sRGB">
<feFlood flood-opacity="0" result="BackgroundImageFix"/>
<feBlend mode="normal" in="SourceGraphic" in2="BackgroundImageFix" result="shape"/>
<feTurbulence type="fractalNoise" baseFrequency="0.86872619390487671 0.86872619390487671" numOctaves="3" seed="4660" />
<feDisplacementMap in="shape" scale="0.41233810782432556" xChannelSelector="R" yChannelSelector="G" result="displacedImage" width="100%" height="100%" />
<feMerge result="effect1_texture_5047_19960">
<feMergeNode in="displacedImage"/>
</feMerge>
</filter>
<filter id="filter4_g_5047_19960" x="21" y="20.0692" width="17.7306" height="10.594" filterUnits="userSpaceOnUse" color-interpolation-filters="sRGB">
<feFlood flood-opacity="0" result="BackgroundImageFix"/>
<feBlend mode="normal" in="SourceGraphic" in2="BackgroundImageFix" result="shape"/>
<feTurbulence type="fractalNoise" baseFrequency="0.86872619390487671 0.86872619390487671" numOctaves="3" seed="4660" />
<feDisplacementMap in="shape" scale="0.41233810782432556" xChannelSelector="R" yChannelSelector="G" result="displacedImage" width="100%" height="100%" />
<feMerge result="effect1_texture_5047_19960">
<feMergeNode in="displacedImage"/>
</feMerge>
</filter>
<filter id="filter5_g_5047_19960" x="10.5158" y="29.6639" width="8.8933" height="2.593" filterUnits="userSpaceOnUse" color-interpolation-filters="sRGB">
<feFlood flood-opacity="0" result="BackgroundImageFix"/>
<feBlend mode="normal" in="SourceGraphic" in2="BackgroundImageFix" result="shape"/>
<feTurbulence type="fractalNoise" baseFrequency="0.86872619390487671 0.86872619390487671" numOctaves="3" seed="4660" />
<feDisplacementMap in="shape" scale="0.41233810782432556" xChannelSelector="R" yChannelSelector="G" result="displacedImage" width="100%" height="100%" />
<feMerge result="effect1_texture_5047_19960">
<feMergeNode in="displacedImage"/>
</feMerge>
</filter>
<filter id="filter6_g_5047_19960" x="40.2438" y="26.1093" width="4.86607" height="2.29417" filterUnits="userSpaceOnUse" color-interpolation-filters="sRGB">
<feFlood flood-opacity="0" result="BackgroundImageFix"/>
<feBlend mode="normal" in="SourceGraphic" in2="BackgroundImageFix" result="shape"/>
<feTurbulence type="fractalNoise" baseFrequency="0.86872619390487671 0.86872619390487671" numOctaves="3" seed="4660" />
<feDisplacementMap in="shape" scale="0.41233810782432556" xChannelSelector="R" yChannelSelector="G" result="displacedImage" width="100%" height="100%" />
<feMerge result="effect1_texture_5047_19960">
<feMergeNode in="displacedImage"/>
</feMerge>
</filter>
<filter id="filter7_g_5047_19960" x="40.4562" y="23.12" width="4.62267" height="2.64964" filterUnits="userSpaceOnUse" color-interpolation-filters="sRGB">
<feFlood flood-opacity="0" result="BackgroundImageFix"/>
<feBlend mode="normal" in="SourceGraphic" in2="BackgroundImageFix" result="shape"/>
<feTurbulence type="fractalNoise" baseFrequency="0.86872619390487671 0.86872619390487671" numOctaves="3" seed="4660" />
<feDisplacementMap in="shape" scale="0.41233810782432556" xChannelSelector="R" yChannelSelector="G" result="displacedImage" width="100%" height="100%" />
<feMerge result="effect1_texture_5047_19960">
<feMergeNode in="displacedImage"/>
</feMerge>
</filter>
<filter id="filter8_g_5047_19960" x="11.5621" y="32.6151" width="8.87999" height="3.17113" filterUnits="userSpaceOnUse" color-interpolation-filters="sRGB">
<feFlood flood-opacity="0" result="BackgroundImageFix"/>
<feBlend mode="normal" in="SourceGraphic" in2="BackgroundImageFix" result="shape"/>
<feTurbulence type="fractalNoise" baseFrequency="0.86872619390487671 0.86872619390487671" numOctaves="3" seed="4660" />
<feDisplacementMap in="shape" scale="0.41233810782432556" xChannelSelector="R" yChannelSelector="G" result="displacedImage" width="100%" height="100%" />
<feMerge result="effect1_texture_5047_19960">
<feMergeNode in="displacedImage"/>
</feMerge>
</filter>
</defs>
</svg>
