<svg width="117" height="117" viewBox="0 0 117 117" fill="none" xmlns="http://www.w3.org/2000/svg">
<path d="M53.9496 5.29464C56.3437 2.50898 60.6563 2.50898 63.0504 5.29465L69.9132 13.2799C71.3751 14.9809 73.6637 15.7245 75.8462 15.2077L86.092 12.7813C89.6662 11.9349 93.1552 14.4698 93.4547 18.1306L94.3132 28.6247C94.496 30.8601 95.9105 32.8069 97.98 33.6716L107.695 37.731C111.084 39.1471 112.417 43.2486 110.507 46.3863L105.034 55.3808C103.868 57.2968 103.868 59.7032 105.034 61.6192L110.507 70.6137C112.417 73.7514 111.084 77.8529 107.695 79.269L97.98 83.3284C95.9105 84.1931 94.496 86.1399 94.3132 88.3753L93.4547 98.8694C93.1552 102.53 89.6662 105.065 86.092 104.219L75.8462 101.792C73.6637 101.275 71.3751 102.019 69.9132 103.72L63.0504 111.705C60.6563 114.491 56.3437 114.491 53.9496 111.705L47.0868 103.72C45.6249 102.019 43.3363 101.275 41.1538 101.792L30.908 104.219C27.3338 105.065 23.8448 102.53 23.5453 98.8694L22.6868 88.3753C22.504 86.1399 21.0895 84.1931 19.02 83.3284L9.30484 79.269C5.9157 77.8529 4.58304 73.7514 6.49255 70.6137L11.9663 61.6192C13.1323 59.7032 13.1323 57.2968 11.9663 55.3808L6.49255 46.3863C4.58304 43.2486 5.91571 39.1471 9.30485 37.731L19.02 33.6716C21.0895 32.8069 22.504 30.8601 22.6868 28.6247L23.5453 18.1306C23.8448 14.4698 27.3338 11.9349 30.908 12.7813L41.1538 15.2077C43.3363 15.7245 45.6249 14.9809 47.0868 13.2799L53.9496 5.29464Z" fill="#FFEDE9"/>
<path d="M58.5 61.9375C71.7344 61.9375 82.5625 70.5312 82.5625 77.4062C82.5625 78.7738 82.0193 80.0853 81.0523 81.0523C80.0853 82.0193 78.7738 82.5625 77.4062 82.5625H39.5938C38.2262 82.5625 36.9147 82.0193 35.9477 81.0523C34.9807 80.0853 34.4375 78.7738 34.4375 77.4062C34.4375 70.5312 45.2656 61.9375 58.5 61.9375ZM58.5 34.4375C61.6909 34.4375 64.7511 35.7051 67.0074 37.9614C69.2637 40.2177 70.5312 43.2779 70.5312 46.4688C70.5312 49.6596 69.2637 52.7198 67.0074 54.9761C64.7511 57.2324 61.6909 58.5 58.5 58.5C55.3091 58.5 52.2489 57.2324 49.9926 54.9761C47.7363 52.7198 46.4688 49.6596 46.4688 46.4688C46.4688 43.2779 47.7363 40.2177 49.9926 37.9614C52.2489 35.7051 55.3091 34.4375 58.5 34.4375Z" fill="#FF502E"/>
</svg>
