<svg width="115" height="82" viewBox="0 0 115 82" fill="none" xmlns="http://www.w3.org/2000/svg">
<g filter="url(#filter0_g_1444_10836)">
<path d="M40.1728 16.3784L19.4186 22.5211L49.6093 34.765L81.3045 22.5211L60.8179 16.3784H40.1728Z" fill="#FFB3A3"/>
</g>
<g filter="url(#filter1_g_1444_10836)">
<path d="M37.5225 26.7012L19.2994 22.2427L28.5967 54.5944V77.1526L54.069 81.3184L74.1089 77.1526L72.1581 66.3127L81.5643 22.2427L69.4666 25.1668L55.3777 22.2427L37.5225 26.7012Z" fill="#FF502E"/>
</g>
<g filter="url(#filter2_g_1444_10836)">
<path d="M34.0973 0.800781L36.8061 10.9108" stroke="#FF502E" stroke-width="1.66522"/>
</g>
<g filter="url(#filter3_g_1444_10836)">
<path d="M48.8961 0L48.9914 10.4662" stroke="#FF502E" stroke-width="1.66522"/>
</g>
<g filter="url(#filter4_g_1444_10836)">
<path d="M64.444 1.21191L61.5689 11.276" stroke="#FF502E" stroke-width="1.66522"/>
</g>
<g filter="url(#filter5_g_1444_10836)">
<path d="M50.144 44.7338C50.355 43.5998 51.074 42.6155 52.1453 42.1879C53.5225 41.6381 55.4153 41.0545 56.4607 41.4753C57.5077 41.8966 58.6934 43.7576 59.4887 45.2108C60.0984 46.3247 59.9857 47.6729 59.2934 48.7374L54.9397 55.4317C54.3497 56.3389 53.3924 56.981 52.311 56.9402C51.8152 56.9215 51.2974 56.8566 50.888 56.6998C50.4407 56.5285 49.9498 56.1553 49.5182 55.765C48.704 55.0286 48.4395 53.8922 48.6404 52.8128L50.144 44.7338Z" fill="#FFF2C2"/>
<path d="M42.815 47.2643C42.322 45.1656 43.7022 43.0876 45.8286 42.7321C46.0064 42.7024 46.1909 42.6715 46.382 42.6396C47.3173 42.4834 48.04 42.4549 48.5937 42.4919C49.7209 42.5672 50.1292 43.6701 49.8994 44.7762L48.1792 53.0567C48.0073 53.884 47.4904 54.6022 46.6473 54.5459C46.6262 54.5445 46.6048 54.543 46.5831 54.5412C46.2728 54.5161 45.9321 54.4138 45.6109 54.2853C44.7295 53.9326 44.1828 53.0869 43.9658 52.1627L42.815 47.2643Z" fill="#FFF2C2"/>
<path d="M63.2109 55.0584C64.829 53.914 65.0586 51.3509 63.7688 49.8462C62.9493 48.8902 62.2252 48.3539 61.6444 48.056C60.7583 47.6015 59.8599 48.1907 59.3406 49.0405L55.0876 55.9994C54.6662 56.6889 54.54 57.5259 55.1424 58.0644C55.1725 58.0913 55.2038 58.1185 55.2365 58.1462C55.4454 58.3227 55.7129 58.4734 55.9907 58.5992C56.9237 59.0215 57.9894 58.7514 58.8255 58.16L63.2109 55.0584Z" fill="#FFF2C2"/>
<path d="M37.8713 55.57C36.832 55.153 36.1929 54.0951 36.4858 53.0143C36.8655 51.6125 37.6089 49.7012 39.0186 48.3318C39.8595 47.515 40.5037 47.015 40.9882 46.711C41.7327 46.2439 42.3924 46.7715 42.5929 47.6272L43.749 52.5616C43.9568 53.4485 42.756 53.8556 41.9489 54.2779C41.5825 54.4696 40.8331 54.9378 40.1936 55.3461C39.4998 55.789 38.6352 55.8765 37.8713 55.57Z" fill="#FFF2C2"/>
<path d="M60.1514 65.295C61.1825 65.7318 62.3815 65.432 62.9357 64.4589C63.6544 63.1969 64.4745 61.3172 64.4399 59.3522C64.4193 58.1801 64.3148 57.3713 64.1854 56.8141C63.9866 55.958 63.1468 55.8673 62.4014 56.3329L58.103 59.0179C57.3305 59.5004 57.8951 60.6357 58.17 61.5041C58.2947 61.8984 58.4962 62.7587 58.662 63.4992C58.8419 64.3024 59.3935 64.9739 60.1514 65.295Z" fill="#FFF2C2"/>
</g>
<g filter="url(#filter6_g_1444_10836)">
<path d="M93.243 1.00293C99.1584 1.00293 103.919 5.6972 103.919 11.4453C103.919 17.1933 99.1583 21.8877 93.243 21.8877C87.3278 21.8877 82.5674 17.1933 82.5673 11.4453C82.5673 5.69721 87.3277 1.00295 93.243 1.00293Z" stroke="#FF502E" stroke-width="2.00559"/>
</g>
<g filter="url(#filter7_g_1444_10836)">
<path d="M106.658 28.7726L99.7805 21.1439C99.327 20.6409 99.3253 19.8772 99.7763 19.3721L101.395 17.5595C101.863 17.035 102.66 16.9671 103.21 17.4048L111.717 24.1704C112.378 24.6957 112.387 25.6961 111.735 26.2326L108.486 28.9083C107.939 29.3594 107.133 29.2996 106.658 28.7726Z" stroke="#FF502E" stroke-width="2.00559"/>
</g>
<defs>
<filter id="filter0_g_1444_10836" x="18.919" y="15.8789" width="62.8851" height="19.3859" filterUnits="userSpaceOnUse" color-interpolation-filters="sRGB">
<feFlood flood-opacity="0" result="BackgroundImageFix"/>
<feBlend mode="normal" in="SourceGraphic" in2="BackgroundImageFix" result="shape"/>
<feTurbulence type="fractalNoise" baseFrequency="0.35851919651031494 0.35851919651031494" numOctaves="3" seed="4660" />
<feDisplacementMap in="shape" scale="0.99913465976715088" xChannelSelector="R" yChannelSelector="G" result="displacedImage" width="100%" height="100%" />
<feMerge result="effect1_texture_1444_10836">
<feMergeNode in="displacedImage"/>
</feMerge>
</filter>
<filter id="filter1_g_1444_10836" x="18.7999" y="21.7431" width="63.264" height="60.0748" filterUnits="userSpaceOnUse" color-interpolation-filters="sRGB">
<feFlood flood-opacity="0" result="BackgroundImageFix"/>
<feBlend mode="normal" in="SourceGraphic" in2="BackgroundImageFix" result="shape"/>
<feTurbulence type="fractalNoise" baseFrequency="0.35851919651031494 0.35851919651031494" numOctaves="3" seed="4660" />
<feDisplacementMap in="shape" scale="0.99913465976715088" xChannelSelector="R" yChannelSelector="G" result="displacedImage" width="100%" height="100%" />
<feMerge result="effect1_texture_1444_10836">
<feMergeNode in="displacedImage"/>
</feMerge>
</filter>
<filter id="filter2_g_1444_10836" x="32.7935" y="0.0858819" width="5.3164" height="11.5402" filterUnits="userSpaceOnUse" color-interpolation-filters="sRGB">
<feFlood flood-opacity="0" result="BackgroundImageFix"/>
<feBlend mode="normal" in="SourceGraphic" in2="BackgroundImageFix" result="shape"/>
<feTurbulence type="fractalNoise" baseFrequency="0.35851919651031494 0.35851919651031494" numOctaves="3" seed="4660" />
<feDisplacementMap in="shape" scale="0.99913465976715088" xChannelSelector="R" yChannelSelector="G" result="displacedImage" width="100%" height="100%" />
<feMerge result="effect1_texture_1444_10836">
<feMergeNode in="displacedImage"/>
</feMerge>
</filter>
<filter id="filter3_g_1444_10836" x="47.564" y="-0.50738" width="2.75951" height="11.4806" filterUnits="userSpaceOnUse" color-interpolation-filters="sRGB">
<feFlood flood-opacity="0" result="BackgroundImageFix"/>
<feBlend mode="normal" in="SourceGraphic" in2="BackgroundImageFix" result="shape"/>
<feTurbulence type="fractalNoise" baseFrequency="0.35851919651031494 0.35851919651031494" numOctaves="3" seed="4660" />
<feDisplacementMap in="shape" scale="0.99913465976715088" xChannelSelector="R" yChannelSelector="G" result="displacedImage" width="100%" height="100%" />
<feMerge result="effect1_texture_1444_10836">
<feMergeNode in="displacedImage"/>
</feMerge>
</filter>
<filter id="filter4_g_1444_10836" x="60.2687" y="0.483831" width="5.47533" height="11.5206" filterUnits="userSpaceOnUse" color-interpolation-filters="sRGB">
<feFlood flood-opacity="0" result="BackgroundImageFix"/>
<feBlend mode="normal" in="SourceGraphic" in2="BackgroundImageFix" result="shape"/>
<feTurbulence type="fractalNoise" baseFrequency="0.35851919651031494 0.35851919651031494" numOctaves="3" seed="4660" />
<feDisplacementMap in="shape" scale="0.99913465976715088" xChannelSelector="R" yChannelSelector="G" result="displacedImage" width="100%" height="100%" />
<feMerge result="effect1_texture_1444_10836">
<feMergeNode in="displacedImage"/>
</feMerge>
</filter>
<filter id="filter5_g_1444_10836" x="35.915" y="40.832" width="29.1848" height="25.1583" filterUnits="userSpaceOnUse" color-interpolation-filters="sRGB">
<feFlood flood-opacity="0" result="BackgroundImageFix"/>
<feBlend mode="normal" in="SourceGraphic" in2="BackgroundImageFix" result="shape"/>
<feTurbulence type="fractalNoise" baseFrequency="0.35851919651031494 0.35851919651031494" numOctaves="3" seed="4660" />
<feDisplacementMap in="shape" scale="0.99913465976715088" xChannelSelector="R" yChannelSelector="G" result="displacedImage" width="100%" height="100%" />
<feMerge result="effect1_texture_1444_10836">
<feMergeNode in="displacedImage"/>
</feMerge>
</filter>
<filter id="filter6_g_1444_10836" x="80.7684" y="-0.795898" width="24.9493" height="24.4819" filterUnits="userSpaceOnUse" color-interpolation-filters="sRGB">
<feFlood flood-opacity="0" result="BackgroundImageFix"/>
<feBlend mode="normal" in="SourceGraphic" in2="BackgroundImageFix" result="shape"/>
<feTurbulence type="fractalNoise" baseFrequency="0.22503446042537689 0.22503446042537689" numOctaves="3" seed="4660" />
<feDisplacementMap in="shape" scale="1.5917960405349731" xChannelSelector="R" yChannelSelector="G" result="displacedImage" width="100%" height="100%" />
<feMerge result="effect1_texture_1444_10836">
<feMergeNode in="displacedImage"/>
</feMerge>
</filter>
<filter id="filter7_g_1444_10836" x="97.6405" y="15.3179" width="16.3765" height="15.6919" filterUnits="userSpaceOnUse" color-interpolation-filters="sRGB">
<feFlood flood-opacity="0" result="BackgroundImageFix"/>
<feBlend mode="normal" in="SourceGraphic" in2="BackgroundImageFix" result="shape"/>
<feTurbulence type="fractalNoise" baseFrequency="0.22503446042537689 0.22503446042537689" numOctaves="3" seed="4660" />
<feDisplacementMap in="shape" scale="1.5917960405349731" xChannelSelector="R" yChannelSelector="G" result="displacedImage" width="100%" height="100%" />
<feMerge result="effect1_texture_1444_10836">
<feMergeNode in="displacedImage"/>
</feMerge>
</filter>
</defs>
</svg>
