<svg width="91" height="91" viewBox="0 0 91 91" fill="none" xmlns="http://www.w3.org/2000/svg">
<path d="M40.9496 5.29464C43.3437 2.50898 47.6563 2.50898 50.0504 5.29464L53.848 9.71345C55.31 11.4145 57.5985 12.1581 59.7811 11.6412L65.4508 10.2985C69.025 9.45209 72.514 11.987 72.8135 15.6478L73.2885 21.4549C73.4714 23.6904 74.8858 25.6372 76.9554 26.5019L82.3314 28.7482C85.7206 30.1643 87.0532 34.2658 85.1437 37.4035L82.1147 42.3808C80.9487 44.2968 80.9487 46.7032 82.1147 48.6192L85.1437 53.5965C87.0532 56.7342 85.7206 60.8357 82.3314 62.2518L76.9554 64.4981C74.8858 65.3628 73.4714 67.3096 73.2885 69.5451L72.8135 75.3522C72.514 79.013 69.025 81.5479 65.4508 80.7015L59.7811 79.3588C57.5986 78.8419 55.31 79.5855 53.848 81.2866L50.0504 85.7054C47.6563 88.491 43.3437 88.491 40.9496 85.7054L37.152 81.2866C35.69 79.5855 33.4014 78.8419 31.2189 79.3588L25.5492 80.7015C21.975 81.5479 18.486 79.013 18.1865 75.3522L17.7115 69.5451C17.5286 67.3096 16.1142 65.3628 14.0447 64.4981L8.66858 62.2518C5.27944 60.8357 3.94678 56.7342 5.85629 53.5965L8.88528 48.6192C10.0513 46.7032 10.0513 44.2968 8.88528 42.3808L5.85629 37.4035C3.94678 34.2658 5.27944 30.1643 8.66858 28.7482L14.0447 26.5019C16.1142 25.6372 17.5286 23.6904 17.7115 21.4549L18.1865 15.6478C18.486 11.987 21.975 9.45209 25.5492 10.2985L31.2189 11.6412C33.4014 12.1581 35.69 11.4145 37.152 9.71345L40.9496 5.29464Z" fill="#FFEDE9"/>
<path d="M48.5484 28L48.0516 52.4331H42.9486L42.4067 28H48.5484ZM42.0002 59.2705C41.9777 57.2623 43.5808 55.6127 45.5227 55.5888C47.3968 55.6127 49 57.2623 49 59.2705C49 61.3265 47.3968 63 45.5227 63C43.5808 63 41.9777 61.3265 42.0002 59.2705Z" fill="#FF502E"/>
</svg>
