<svg width="40" height="40" viewBox="0 0 40 40" fill="none" xmlns="http://www.w3.org/2000/svg">
<g clip-path="url(#clip0_1651_13393)">
<path d="M20 40C31.0457 40 40 31.0457 40 20C40 8.9543 31.0457 0 20 0C8.9543 0 0 8.9543 0 20C0 31.0457 8.9543 40 20 40Z" fill="black"/>
<path d="M14.567 10.1205H11.5558L25.4162 29.9466H28.4274L14.567 10.1205ZM8.88892 8.64471H15.5061L21.2434 16.9944L28.4265 8.64471H30.3869L22.1139 18.2613L31.1111 31.3553H24.494L18.4351 22.5376L10.8494 31.3553H8.88892L17.5646 21.2707L8.88892 8.64471Z" fill="white"/>
</g>
<defs>
<clipPath id="clip0_1651_13393">
<rect width="40" height="40" fill="white"/>
</clipPath>
</defs>
</svg>
