<svg width="24" height="24" viewBox="0 0 24 24" fill="none" xmlns="http://www.w3.org/2000/svg">
<rect width="24" height="24" rx="6" fill="#D7191F"/>
<path d="M8.15098 12.0004C8.48452 11.8612 8.76135 11.5485 8.76135 11.0315C8.76135 10.2619 8.10095 9.79492 7.30464 9.79492H4.84317C4.83167 9.79492 4.82064 9.79949 4.81251 9.80762C4.80438 9.81575 4.79981 9.82678 4.79981 9.83828V10.5379C4.7997 10.5436 4.80074 10.5494 4.80287 10.5547C4.805 10.5601 4.80818 10.565 4.81221 10.5691C4.81625 10.5732 4.82107 10.5764 4.82638 10.5787C4.8317 10.5809 4.83741 10.5821 4.84317 10.5821H7.13454C7.50393 10.5821 7.75408 10.808 7.75408 11.0824C7.75408 11.3567 7.50393 11.5868 7.13454 11.5868H5.7729V11.069C5.77301 11.0632 5.77194 11.0574 5.76976 11.052C5.76758 11.0466 5.76433 11.0416 5.7602 11.0375C5.75608 11.0334 5.75116 11.0301 5.74575 11.028C5.74033 11.0258 5.73454 11.0247 5.7287 11.0248H4.84317C4.83741 11.0248 4.8317 11.026 4.82638 11.0282C4.82107 11.0304 4.81625 11.0337 4.81221 11.0378C4.80818 11.0419 4.805 11.0468 4.80287 11.0522C4.80074 11.0575 4.7997 11.0633 4.79981 11.069V14.16C4.79981 14.1715 4.80438 14.1826 4.81251 14.1907C4.82064 14.1988 4.83167 14.2034 4.84317 14.2034H7.26962C8.17683 14.2034 8.82639 13.7806 8.82639 12.9176C8.82824 12.7122 8.76341 12.5118 8.64162 12.3464C8.51983 12.181 8.34766 12.0596 8.15098 12.0004ZM7.18207 13.4371H5.7729V12.4031H7.18207C7.56063 12.4031 7.81745 12.635 7.81745 12.9201C7.81745 13.2053 7.56063 13.4371 7.18207 13.4371Z" fill="white"/>
<path d="M18.3303 10.5821H18.7013C18.713 10.5821 18.7243 10.5774 18.7326 10.5691C18.7408 10.5608 18.7455 10.5496 18.7455 10.5379V9.83829C18.7455 9.83252 18.7444 9.82682 18.7421 9.8215C18.7399 9.81619 18.7366 9.81137 18.7325 9.80733C18.7284 9.80329 18.7235 9.80012 18.7182 9.79799C18.7128 9.79586 18.7071 9.79482 18.7013 9.79493H18.1802C17.5773 9.79493 17.2579 9.98755 17.0753 10.397L15.9422 13.1728C15.9194 13.2493 15.8708 13.3155 15.8046 13.3602C15.7385 13.4049 15.6589 13.4253 15.5794 13.4179V9.83829C15.5794 9.83252 15.5783 9.82682 15.5761 9.8215C15.5738 9.81619 15.5706 9.81137 15.5665 9.80733C15.5623 9.80329 15.5575 9.80012 15.5521 9.79799C15.5467 9.79586 15.541 9.79482 15.5353 9.79493H14.7014C14.6957 9.79482 14.6899 9.79586 14.6846 9.79799C14.6792 9.80012 14.6743 9.80329 14.6702 9.80733C14.6661 9.81137 14.6628 9.81619 14.6606 9.8215C14.6584 9.82682 14.6572 9.83252 14.6572 9.83829V14.1284C14.6574 14.1488 14.6657 14.1683 14.6802 14.1827C14.6948 14.197 14.7144 14.2051 14.7348 14.2051H15.6695C16.2715 14.2051 16.5475 14.0125 16.7293 13.603L17.8483 10.8614C17.9384 10.6671 18.0676 10.5821 18.3303 10.5821Z" fill="white"/>
<path d="M19.1929 14.1542L17.7645 12.3281C17.7639 12.3271 17.7631 12.3262 17.7621 12.3256C17.761 12.325 17.7599 12.3247 17.7587 12.3247C17.7575 12.3247 17.7563 12.325 17.7553 12.3256C17.7543 12.3262 17.7534 12.3271 17.7528 12.3281L17.3684 13.2687C17.367 13.2714 17.3662 13.2744 17.3662 13.2775C17.3662 13.2805 17.367 13.2835 17.3684 13.2862L17.993 14.1201C18.011 14.1473 18.0359 14.1694 18.0652 14.184C18.0945 14.1987 18.1271 14.2054 18.1597 14.2034H19.1653C19.1714 14.2044 19.1776 14.2035 19.1832 14.2008C19.1887 14.1981 19.1933 14.1938 19.1963 14.1884C19.1993 14.1831 19.2006 14.1769 19.2 14.1708C19.1993 14.1647 19.1969 14.1589 19.1929 14.1542Z" fill="white"/>
<path d="M10.3897 11.0264H9.55591C9.54419 11.0264 9.53295 11.031 9.52466 11.0393C9.51637 11.0476 9.51172 11.0588 9.51172 11.0706V14.1616C9.51172 14.1673 9.51287 14.173 9.5151 14.1784C9.51733 14.1837 9.5206 14.1885 9.52471 14.1925C9.52883 14.1966 9.53371 14.1997 9.53906 14.2019C9.54442 14.204 9.55015 14.205 9.55591 14.2049H10.3897C10.4013 14.2049 10.4124 14.2004 10.4207 14.1923C10.429 14.1842 10.4337 14.1732 10.4339 14.1616V11.0689C10.4335 11.0575 10.4287 11.0466 10.4204 11.0387C10.4122 11.0308 10.4012 11.0264 10.3897 11.0264Z" fill="white"/>
<path d="M13.8211 9.79493H12.9873C12.9816 9.79493 12.9759 9.79605 12.9707 9.79823C12.9654 9.80041 12.9606 9.8036 12.9566 9.80763C12.9526 9.81166 12.9494 9.81644 12.9472 9.8217C12.945 9.82696 12.9439 9.83259 12.9439 9.83829V13.4179C12.8644 13.4253 12.7849 13.4049 12.7187 13.3602C12.6526 13.3155 12.604 13.2493 12.5812 13.1728L11.4464 10.397C11.2646 9.98755 10.9461 9.79493 10.3424 9.79493H9.55689C9.55112 9.79482 9.5454 9.79586 9.54004 9.79799C9.53468 9.80012 9.5298 9.80329 9.52569 9.80733C9.52157 9.81137 9.5183 9.81619 9.51607 9.8215C9.51384 9.82682 9.51269 9.83252 9.5127 9.83829V10.5379C9.5127 10.5496 9.51735 10.5608 9.52564 10.5691C9.53393 10.5774 9.54517 10.5821 9.55689 10.5821H10.1914C10.4549 10.5821 10.5833 10.6655 10.6734 10.8614L11.7924 13.603C11.975 14.0125 12.2502 14.2051 12.853 14.2051H13.7869C13.8073 14.2051 13.8269 14.197 13.8415 14.1827C13.856 14.1683 13.8642 14.1488 13.8645 14.1284V9.83829C13.8645 9.82679 13.8599 9.81576 13.8518 9.80763C13.8436 9.7995 13.8326 9.79493 13.8211 9.79493Z" fill="white"/>
</svg>
