<svg width="24" height="24" viewBox="0 0 24 24" fill="none" xmlns="http://www.w3.org/2000/svg">
<rect width="24" height="24" rx="6" fill="#00C4A6"/>
<path d="M6.96818 10.8682H4.2002V15.8988H6.96818V10.8682Z" fill="white"/>
<mask id="mask0_4784_23361" style="mask-type:luminance" maskUnits="userSpaceOnUse" x="6" y="8" width="9" height="8">
<path d="M6.96777 10.8681C8.30154 10.8695 9.58026 11.4 10.5234 12.3431C11.4665 13.2862 11.997 14.565 11.9984 15.8987H14.7664C14.7664 14.8746 14.5647 13.8605 14.1728 12.9143C13.7809 11.9682 13.2064 11.1084 12.4822 10.3843C11.7581 9.6601 10.8984 9.08565 9.95218 8.69373C9.00601 8.30182 7.99191 8.1001 6.96777 8.1001V10.8681Z" fill="white"/>
</mask>
<g mask="url(#mask0_4784_23361)">
<path d="M14.7664 8.10059H6.96777V15.8992H14.7664V8.10059Z" fill="white"/>
</g>
<path d="M19.8004 8.1001V10.8681C18.4666 10.8695 17.1879 11.4 16.2448 12.3431C15.3017 13.2862 14.7712 14.565 14.7698 15.8987H11.999C11.999 14.8744 12.2008 13.86 12.5929 12.9137C12.985 11.9673 13.5597 11.1075 14.2842 10.3833C15.0086 9.65909 15.8687 9.0847 16.8152 8.69295C17.7616 8.30119 18.776 8.09974 19.8004 8.1001Z" fill="white"/>
</svg>
