<svg width="24" height="24" viewBox="0 0 24 24" fill="none" xmlns="http://www.w3.org/2000/svg">
<rect width="24" height="24" rx="6" fill="#008485"/>
<path d="M13.8435 13.3641C13.8169 13.1996 13.7699 13.039 13.7034 12.8861C13.5134 12.4286 13.1823 12.0436 12.7584 11.7873C12.4261 11.5877 12.0453 11.4835 11.6576 11.4859C11.27 11.4883 10.8905 11.5973 10.5607 11.801C10.2539 11.9854 10.0046 12.2518 9.84096 12.5702C9.78693 12.679 9.74191 12.792 9.70635 12.9081C9.60578 13.21 9.56708 13.5291 9.59257 13.8463C9.61806 14.1634 9.70721 14.4722 9.8547 14.7542C9.95596 14.9274 10.1114 15.0626 10.297 15.1388C10.389 15.1768 10.4887 15.1926 10.5879 15.185C10.6872 15.1773 10.7833 15.1465 10.8684 15.0948C10.9634 15.0213 11.0345 14.9212 11.0727 14.8073C11.1108 14.6934 11.1143 14.5707 11.0827 14.4547C11.0077 14.1608 11.0153 13.8518 11.1046 13.5619C11.1378 13.4673 11.1912 13.381 11.2612 13.3092C11.3056 13.2665 11.3566 13.2312 11.4123 13.2048C11.5292 13.1455 11.6618 13.1243 11.7914 13.1444C11.9022 13.1684 12.0057 13.2183 12.0935 13.2899C12.1813 13.3615 12.251 13.4528 12.2969 13.5564C12.3865 13.7657 12.4332 13.9908 12.4342 14.2185C12.4379 15.2212 12.2897 16.2187 11.9947 17.1771C11.97 17.276 11.9425 17.3722 11.915 17.4683C11.8876 17.5645 11.8546 17.6386 11.915 17.7128C11.9378 17.7423 11.9682 17.7651 12.0029 17.7787C12.1513 17.8392 12.2777 17.7485 12.3683 17.6496C12.9279 17.0516 13.3399 16.331 13.5715 15.5453C13.6677 15.2568 13.7448 14.9622 13.8023 14.6635C13.8915 14.2334 13.9064 13.7911 13.8463 13.3559" fill="white"/>
<path d="M17.989 8.80132C17.9877 8.76713 17.9794 8.73357 17.9647 8.70268C17.95 8.67179 17.9291 8.6442 17.9034 8.6216C17.8778 8.59899 17.8477 8.58184 17.8152 8.57118C17.7827 8.56052 17.7484 8.55657 17.7143 8.55957C17.5726 8.57991 17.4352 8.62354 17.3077 8.68868C14.7612 9.65567 11.8904 9.83972 9.2065 9.45238C8.74773 9.38645 8.28347 9.29579 7.83295 9.22162C7.55824 9.17767 7.2588 9.11174 6.96761 9.08976C6.70555 9.03905 6.43404 9.09118 6.20941 9.23536C6.09342 9.36189 6.02139 9.52251 6.00407 9.69328C5.98674 9.86406 6.02504 10.0359 6.11326 10.1831C6.30986 10.5191 6.59493 10.7947 6.93739 10.9798C7.25368 11.2051 7.62894 11.3331 8.017 11.3479C9.04168 11.2847 10.0663 11.1831 11.0855 11.0512C12.8244 10.8259 14.6568 10.6117 16.2776 9.93862C16.8201 9.7247 17.3311 9.43823 17.7967 9.08702C17.8791 9.02383 18 8.91944 18 8.81231" fill="white"/>
<path d="M10.6846 7.9281C10.698 8.18459 10.8094 8.42615 10.9957 8.60296C11.182 8.77976 11.429 8.87833 11.6859 8.87833C11.9427 8.87833 12.1898 8.77976 12.3761 8.60296C12.5624 8.42615 12.6738 8.18459 12.6872 7.9281C12.688 7.84552 12.6702 7.76383 12.635 7.6891C12.5499 7.50504 12.451 7.41439 12.4619 7.20011C12.4619 6.90617 12.0966 6.90068 11.8933 6.90068C11.6672 6.89332 11.4425 6.93845 11.2367 7.03254C11.0748 7.11491 10.9381 7.23964 10.8414 7.39346C10.7447 7.54728 10.6914 7.72445 10.6873 7.90612V7.9281" fill="white"/>
</svg>
