<svg width="24" height="24" viewBox="0 0 24 24" fill="none" xmlns="http://www.w3.org/2000/svg">
<rect width="24" height="24" rx="6" fill="#0055A2"/>
<path d="M9.16305 6.73364C9.01468 6.80729 8.88246 6.90974 8.77409 7.03501C8.66572 7.16028 8.58337 7.30586 8.53184 7.46328L6.51465 13.5221C6.4091 13.8394 6.43392 14.1857 6.58366 14.4848C6.7334 14.7838 6.99579 15.0112 7.31313 15.1168L13.925 17.3367C14.2422 17.4411 14.5879 17.4158 14.8865 17.2662C15.1851 17.1166 15.4123 16.8548 15.5185 16.5382L17.5348 10.4794C17.64 10.1621 17.6151 9.81607 17.4657 9.51706C17.3163 9.21804 17.0544 8.99042 16.7376 8.88402L10.1257 6.66601C9.96876 6.61292 9.80284 6.59156 9.63758 6.60317C9.47232 6.61478 9.31101 6.65913 9.16305 6.73364V6.73364Z" fill="white"/>
<path d="M10.9243 7.39652C12.0811 7.82536 12.9255 9.06093 12.8434 10.408C12.8144 10.9101 12.66 11.397 12.3945 11.8241C12.0303 11.4163 11.5747 11.1005 11.0649 10.9028L10.7695 10.7868V13.5969L11.0692 13.4806C11.578 13.2809 12.0321 12.9633 12.3943 12.5539C12.7488 13.1221 12.9055 13.7915 12.8401 14.458C12.7748 15.1245 12.491 15.7508 12.0329 16.2393L12.0358 16.2371L12.0329 16.2405L7.44528 14.7064C7.23746 14.638 7.06514 14.4902 6.96596 14.2951C6.86677 14.1001 6.8488 13.8738 6.91595 13.6656L8.9383 7.60268C9.00443 7.39696 9.14955 7.22593 9.34175 7.12719C9.53394 7.02844 9.75749 7.01006 9.96324 7.0761L9.96978 7.07833L10.9243 7.39652Z" fill="#0092D8"/>
<path d="M9.74009 13.7666H9.28613V10.6187H9.74009V13.7666Z" fill="white"/>
<path d="M12.1289 12.189C11.8734 11.8843 11.5601 11.6332 11.207 11.4502V12.9301C11.5598 12.7457 11.873 12.4939 12.1289 12.189V12.189Z" fill="#E43D30"/>
<path d="M16.5916 9.28711L12.3789 7.88135C12.9086 8.45899 13.2271 9.19895 13.2825 9.98071C13.3379 10.7625 13.127 11.54 12.6842 12.1866C13.1162 12.812 13.3307 13.5622 13.2946 14.3215C13.2584 15.0808 12.9737 15.8071 12.4842 16.3887L14.0657 16.9169C14.1678 16.9504 14.2755 16.9635 14.3826 16.9554C14.4898 16.9473 14.5943 16.9182 14.6902 16.8697C14.786 16.8212 14.8714 16.7542 14.9414 16.6727C15.0115 16.5912 15.0647 16.4967 15.0982 16.3946V16.3923L17.1205 10.3298C17.1877 10.1213 17.1698 9.89481 17.0707 9.69952C16.9717 9.50423 16.7994 9.356 16.5916 9.28711V9.28711ZM15.473 13.7574H14.9051L13.7349 12.1866L14.9244 10.612H15.5009L14.3073 12.1866L15.473 13.7574Z" fill="#004B9D"/>
</svg>
