<svg width="24" height="24" viewBox="0 0 24 24" fill="none" xmlns="http://www.w3.org/2000/svg">
<rect width="24" height="24" rx="6" fill="#0046FF"/>
<mask id="mask0_4784_23388" style="mask-type:luminance" maskUnits="userSpaceOnUse" x="6" y="6" width="12" height="12">
<path d="M10.7808 16.5775C10.1852 16.5189 9.47332 16.3314 8.85242 15.7933C8.28103 15.3017 7.92788 14.6242 7.75611 14.0264C7.5808 13.4161 7.50704 12.7042 7.79703 12.7608C7.88646 12.7769 8.04105 13.1695 8.20828 13.4545C8.38156 13.7485 8.52201 13.9122 8.65337 14.0123C8.71349 14.0573 8.91709 13.605 9.21365 13.3469C9.38592 13.2034 9.57234 13.1554 9.60569 13.5803C9.64105 14.0997 9.54759 14.7186 9.70016 14.7186C9.8396 14.7186 10.1609 14.612 10.8637 14.5519C11.1289 14.5297 11.2805 14.5797 11.0279 14.9339C10.9016 15.1117 10.7338 15.3618 10.3347 15.6493C10.9324 16.2092 11.6488 16.141 11.6624 16.3789C11.6705 16.5164 11.4032 16.5922 11.0526 16.5922C10.9662 16.5922 10.8748 16.5871 10.7808 16.577M12.7921 11.5471C12.2449 11.4329 12.1328 10.9363 12.1328 10.9363C12.0878 10.7609 12.0772 10.5396 12.1141 10.2572C12.1878 9.66704 12.3475 9.39116 12.5283 8.9334C12.7724 8.3195 12.1802 7.96026 12.2767 7.73542C12.4106 7.43024 12.833 7.81828 13.3064 7.84708C13.7131 7.86881 13.9576 7.84961 14.2733 7.89205C14.6937 7.94713 15.1974 8.09011 15.4212 8.35285C15.6258 8.59386 15.3115 8.88641 14.9362 8.7035C14.6603 8.5691 14.3138 8.65095 14.5168 8.93845C14.7614 9.21129 14.8786 9.21887 15.1297 9.28405C15.8173 9.46594 15.8314 10.1258 15.3646 10.4653C14.8366 10.8534 14.2976 10.6922 14.0844 9.9323C13.9763 9.55234 13.7095 9.35984 13.4337 9.46796C13.1619 9.57508 13.323 10.0743 13.5312 10.5376C13.8904 11.4557 13.1639 11.5522 12.885 11.5522C12.8411 11.5522 12.8087 11.5501 12.7926 11.5481M12.3975 16.7503C12.3929 16.629 12.5703 16.5982 12.5703 16.5982C14.1683 16.2829 13.7009 15.235 13.1361 14.701C12.8982 14.4771 10.6752 12.5576 10.6752 12.5576C8.55536 10.7316 8.72511 9.3078 8.72511 9.3078C8.82968 7.55353 10.3625 7.1185 11.5245 7.22005C11.6604 7.23167 11.7367 7.31302 11.7109 7.42822C11.6867 7.55201 11.5063 7.56009 11.5063 7.56009C11.1365 7.58182 10.8061 7.61871 10.555 7.78898C9.61984 8.41904 9.89366 9.48969 11.142 10.6821C11.2997 10.8312 11.4664 10.9903 11.6387 11.1515C11.6387 11.1515 11.8872 11.3723 12.3879 11.8462C13.3483 12.7304 13.8732 13.2069 13.8732 13.2069C15.5657 14.6161 14.9862 15.905 14.341 16.3516C13.8469 16.6937 13.3013 16.8539 12.5844 16.8928L12.5662 16.8938C12.5011 16.8938 12.402 16.8539 12.398 16.7503M11.7533 6.60566C8.77563 6.74006 6.47035 9.26535 6.60524 12.2444C6.74013 15.2229 9.26518 17.5289 12.2434 17.3945C15.2206 17.2601 17.5284 14.7358 17.394 11.7568C17.2637 8.85963 14.8735 6.6006 12.0014 6.6001C11.9196 6.6001 11.8367 6.60212 11.7538 6.60566" fill="white"/>
</mask>
<g mask="url(#mask0_4784_23388)">
<path d="M6.47168 6.59961H17.5292V17.5284H6.47168V6.59961Z" fill="white"/>
</g>
</svg>
