<svg width="24" height="24" viewBox="0 0 24 24" fill="none" xmlns="http://www.w3.org/2000/svg">
<rect width="24" height="24" rx="6" fill="#140064"/>
<path d="M6.66147 9.8999H5.57751L3.86552 11.8926V9.8999H3V14.2472H3.86552V12.2494L5.63403 14.2472H6.71799L4.79391 12.0735L6.66147 9.8999Z" fill="white"/>
<path d="M20.9998 14.2472L19.6999 12.7435L20.961 11.2398H20.0276L18.9284 12.5409V9.8999H18.0635V14.2472H18.9284V12.9429L20.0485 14.2472H20.9998Z" fill="white"/>
<path d="M8.79127 11.135C8.42741 11.135 8.11689 11.2918 7.86161 11.5071V9.8999H6.99609V12.7632C6.99609 13.6255 7.5676 14.3469 8.6395 14.3469C9.60408 14.3469 10.2829 13.6808 10.2829 12.7473C10.2829 11.8634 9.6987 11.135 8.79127 11.135ZM8.6395 13.5646C8.42544 13.5638 8.22003 13.48 8.06661 13.3307C7.91319 13.1814 7.82375 12.9784 7.81716 12.7644C7.81716 12.7568 7.81716 12.7492 7.81716 12.7416C7.81716 12.5783 7.86558 12.4187 7.95629 12.2829C8.04699 12.1472 8.17592 12.0414 8.32677 11.9789C8.47761 11.9164 8.64359 11.9001 8.80373 11.9319C8.96386 11.9638 9.11095 12.0424 9.2264 12.1578C9.34185 12.2733 9.42048 12.4204 9.45233 12.5805C9.48418 12.7407 9.46783 12.9066 9.40535 13.0575C9.34287 13.2083 9.23706 13.3373 9.10131 13.428C8.96555 13.5187 8.80595 13.5671 8.64268 13.5671L8.6395 13.5646Z" fill="white"/>
<path d="M16.4002 11.1349C16.0312 11.1304 15.6742 11.2666 15.402 11.5159V11.2295H14.5371V14.2464H15.402V12.5554C15.402 12.3861 15.4692 12.2238 15.5889 12.1041C15.7086 11.9844 15.8709 11.9172 16.0402 11.9172C16.2094 11.9172 16.3718 11.9844 16.4914 12.1041C16.6111 12.2238 16.6784 12.3861 16.6784 12.5554V14.2464H17.549V12.3141C17.549 12.302 17.549 12.2906 17.549 12.2792C17.5466 11.9756 17.4247 11.6853 17.2097 11.471C16.9946 11.2568 16.7038 11.136 16.4002 11.1349Z" fill="white"/>
<path d="M12.3536 11.1348C11.3782 11.1348 10.6924 11.8009 10.6924 12.735C10.6924 13.6183 11.2829 14.3479 12.2005 14.3479C12.4004 14.3444 12.5969 14.296 12.7755 14.2063C12.9541 14.1166 13.1103 13.9879 13.2324 13.8298V14.2463H14.0154V12.7369H14.0084L14.0154 12.7198C14.0154 11.858 13.4388 11.1348 12.3536 11.1348ZM12.372 13.5573C12.2087 13.5573 12.0491 13.5089 11.9134 13.4182C11.7776 13.3275 11.6718 13.1986 11.6093 13.0477C11.5468 12.8969 11.5305 12.7309 11.5623 12.5708C11.5942 12.4106 11.6728 12.2635 11.7883 12.1481C11.9037 12.0326 12.0508 11.954 12.2109 11.9222C12.3711 11.8903 12.5371 11.9067 12.6879 11.9691C12.8387 12.0316 12.9677 12.1374 13.0584 12.2732C13.1491 12.4089 13.1975 12.5685 13.1975 12.7318C13.1977 12.8402 13.1765 12.9476 13.1351 13.0478C13.0938 13.148 13.0331 13.2391 12.9566 13.3159C12.8801 13.3927 12.7892 13.4536 12.6891 13.4953C12.589 13.5369 12.4817 13.5584 12.3733 13.5586L12.372 13.5573Z" fill="white"/>
</svg>
