<svg width="24" height="24" viewBox="0 0 24 24" fill="none" xmlns="http://www.w3.org/2000/svg">
<rect width="24" height="24" rx="6" fill="#7C7266"/>
<g clip-path="url(#clip0_4784_23337)">
<path d="M17.8065 12.1089L17.7021 12.0455C17.3479 11.7025 16.854 11.5535 16.1963 11.5902C15.6482 11.6232 15.213 11.8344 14.8809 12.0341C14.8809 12.029 14.8809 12.0239 14.8809 12.0189C14.8847 11.8438 14.8975 11.669 14.9194 11.4951C14.942 11.3184 14.9551 11.1406 14.9586 10.9625C14.9645 10.7975 14.9364 10.6329 14.8757 10.4787C14.8683 10.4606 14.8552 10.4452 14.8384 10.4346C14.8216 10.4241 14.8018 10.4189 14.7817 10.4197C14.6043 10.4235 14.2598 10.5415 14.1743 10.6131L14.1286 10.7101C14.1286 10.9004 14.083 11.4336 14.0392 11.4983L14.0158 11.5617C13.9416 12.2275 13.9392 12.8991 14.0086 13.5654C14.0164 13.6225 14.1299 13.7093 14.218 13.7404C14.3061 13.7715 14.6154 13.6966 14.7889 13.6326L14.8542 13.6231C14.8673 13.6213 14.88 13.617 14.8914 13.6104C14.9029 13.6038 14.9128 13.595 14.9207 13.5846C14.9286 13.5742 14.9343 13.5624 14.9375 13.5499C14.9406 13.5373 14.9411 13.5242 14.939 13.5115C14.939 13.5115 14.9423 13.346 14.9423 13.346C15.0682 12.8501 15.5764 12.2598 16.1767 12.1704C16.5166 12.1184 16.7848 12.2021 16.9962 12.424C17.0249 12.464 17.0869 12.8203 16.8657 13.2306C16.6987 13.5343 16.3659 13.7892 15.9275 13.9496C15.5125 14.1025 15.0558 14.1646 14.4921 14.1449L13.9616 13.7981C13.5153 13.4931 12.9601 13.1133 12.4557 12.9275C12.3677 12.8952 12.2085 12.7671 12.1138 12.6904L12.0617 12.6491C11.7713 12.4221 11.2187 12.0645 10.7744 11.7773L10.5349 11.6213V11.5725C10.5473 11.5592 10.8259 11.3968 10.8259 11.3968C11.2174 11.1749 11.3968 11.0658 11.4353 11.0094C11.4275 11.0183 11.4875 10.9796 11.4875 10.9796L12.4551 10.4476C13.3835 9.95114 14.4366 9.38808 14.9899 8.83199L15.0166 8.74703L15.0284 8.67157C15.0647 8.56926 15.0677 8.45854 15.0369 8.35453C15.032 8.3372 15.0225 8.32144 15.0093 8.30885C14.9961 8.29626 14.9797 8.2873 14.9618 8.28288C14.5305 8.24167 13.9734 8.49276 13.4664 8.95437C13.3732 9.03821 13.2682 9.10867 13.1545 9.16362L13.0769 9.20546C12.5184 9.51426 11.2591 10.2733 10.5975 10.6835C10.6601 9.84958 10.7723 9.01987 10.9336 8.19855L10.9153 8.1009L10.85 7.97408L10.7985 7.88595L10.7835 7.88214C10.7345 7.85849 10.6811 7.84468 10.6265 7.84152C10.5719 7.83836 10.5173 7.84592 10.4657 7.86375L10.3352 7.91004L10.1604 7.97345C10.1435 7.97666 10.1278 7.98424 10.1149 7.9954C10.102 8.00656 10.0925 8.02088 10.0873 8.03686C9.77283 8.77619 9.51054 9.99362 9.45182 10.965C8.96766 10.6698 8.46664 10.4016 7.95117 10.1617L7.94269 10.1572L7.90811 10.1502C7.80632 10.1369 7.68105 10.064 7.56035 9.99299L7.32155 9.84271L6.95813 9.61318C6.96204 9.61318 6.86222 9.59225 6.86222 9.59225C6.70497 9.61825 6.4055 9.81545 6.3148 9.9486C6.30348 9.96579 6.2978 9.98591 6.29849 10.0063C6.30003 10.0348 6.30552 10.0629 6.3148 10.09L6.33112 10.1623L6.34808 10.206C6.52294 10.3804 6.96465 10.6715 7.39854 10.8985L7.90093 11.1572L8.66887 11.5674C8.66887 11.5706 8.79936 11.6682 8.79936 11.6682L8.89005 11.7189L8.90571 11.7285L7.50945 12.6365L6.77674 13.1101C6.63949 13.1837 6.49812 13.2497 6.3533 13.3079C6.21349 13.3542 6.09586 13.4484 6.0225 13.573L6.00293 13.6142L6.02316 13.6415L6.07861 13.6827L6.15495 13.7309L6.2352 13.7848L6.31219 13.7962C6.44269 13.8013 6.6332 13.7296 6.9914 13.5774C7.31763 13.4354 8.21346 12.9123 8.59514 12.6897L8.75826 12.5946C8.8235 12.5997 8.89984 12.5445 8.96574 12.4957C9.0736 12.4175 9.18922 12.3499 9.31089 12.2941C9.31089 12.2941 9.37222 12.2617 9.42572 12.2307C9.42572 12.2478 9.42572 12.2738 9.42572 12.2738C9.44269 13.4088 9.51054 14.2337 9.63777 14.8697V14.8817L9.65017 14.9071C9.71541 14.9971 9.78457 15.266 9.8459 15.5031L9.9914 15.9768C9.9914 15.9825 10.0332 16.0218 10.0332 16.0218C10.116 16.0757 10.3685 16.1702 10.5382 16.1486L10.5799 16.1435L10.6067 16.0858C10.6206 16.0144 10.6271 15.9417 10.6262 15.869C10.6262 15.7821 10.6197 15.6864 10.6112 15.5697L10.6001 15.3985C10.5466 14.6091 10.4958 13.4639 10.4958 12.703C10.4958 12.6821 10.4958 12.6631 10.4958 12.6396C10.6334 12.7246 11.2402 13.0955 11.2402 13.0955C12.2717 13.7455 13.8298 14.7283 14.7713 14.9883C14.7948 14.9954 14.8198 14.9964 14.8437 14.991C14.8677 14.9857 14.8898 14.9742 14.9077 14.9578C14.9077 14.9578 15.0532 14.8671 15.0532 14.8671L15.0793 14.8564C15.1341 14.8316 15.1706 14.7429 15.1765 14.6465C15.9705 14.6084 17.0777 14.3111 17.6695 13.5876C17.882 13.3255 17.9991 13.0024 18.0023 12.6688C18.0023 12.4285 17.9331 12.2199 17.8065 12.1057" fill="#F8B500"/>
</g>
<defs>
<clipPath id="clip0_4784_23337">
<rect width="12" height="8.30769" fill="white" transform="translate(6 7.84619)"/>
</clipPath>
</defs>
</svg>
