<svg width="24" height="24" viewBox="0 0 24 24" fill="none" xmlns="http://www.w3.org/2000/svg">
<rect width="24" height="24" rx="6" fill="#00A84D"/>
<g clip-path="url(#clip0_4784_23331)">
<path d="M14.2221 6.6001L12.0685 7.67002L9.91797 6.6001L12.0685 10.6495L14.2221 6.6001Z" fill="#FDB913"/>
<path d="M14.9744 9.72851L14.941 9.70142L16.4771 9.06338V6.93408L13.817 8.05215C13.817 8.05215 12.3707 10.7608 12.3387 10.8225C12.9074 10.8889 13.4288 11.1678 13.7965 11.602C14.1641 12.0363 14.3502 12.5932 14.3166 13.1587C14.283 13.7242 14.0322 14.2556 13.6157 14.6443C13.1991 15.0329 12.6482 15.2494 12.0756 15.2494C11.5031 15.2494 10.9522 15.0329 10.5356 14.6443C10.119 14.2556 9.86829 13.7242 9.83467 13.1587C9.80106 12.5932 9.98712 12.0363 10.3548 11.602C10.7224 11.1678 11.2439 10.8889 11.8125 10.8225L10.3373 8.05215L7.66353 6.93408V9.07091L9.19811 9.70895L9.16465 9.73603C8.48698 10.3211 8.00593 11.0969 7.78577 11.9598C7.56562 12.8226 7.61685 13.7313 7.93263 14.5646C8.2484 15.3978 8.81368 16.1159 9.55292 16.6228C10.2922 17.1297 11.1701 17.4012 12.0695 17.4012C12.969 17.4012 13.8469 17.1297 14.5862 16.6228C15.3254 16.1159 15.8907 15.3978 16.2065 14.5646C16.5222 13.7313 16.5735 12.8226 16.3533 11.9598C16.1332 11.0969 15.6521 10.3211 14.9744 9.73603V9.72851Z" fill="#FDB913"/>
</g>
<defs>
<clipPath id="clip0_4784_23331">
<rect width="8.83636" height="10.8" fill="white" transform="translate(7.65039 6.6001)"/>
</clipPath>
</defs>
</svg>
