<svg width="24" height="24" viewBox="0 0 24 24" fill="none" xmlns="http://www.w3.org/2000/svg">
<rect width="24" height="24" rx="6" fill="#E72410"/>
<g clip-path="url(#clip0_4784_23370)">
<path d="M4.22181 11.9048C4.21578 11.9067 4.21048 11.9104 4.20662 11.9155C4.20276 11.9205 4.20053 11.9266 4.20023 11.9329C4.19993 11.9392 4.20157 11.9455 4.20492 11.9509C4.20828 11.9562 4.2132 11.9604 4.21903 11.9629L6.6258 13.5524L7.31521 10.3081L4.22181 11.9048Z" fill="white"/>
<path d="M18.4724 10.3076H17.8638C17.8262 10.3091 17.7892 10.318 17.7551 10.3339L14.7047 11.9059C14.6986 11.9077 14.6932 11.9113 14.6893 11.9163C14.6853 11.9212 14.683 11.9273 14.6827 11.9336C14.6823 11.94 14.6839 11.9463 14.6873 11.9516C14.6907 11.957 14.6956 11.9612 14.7015 11.9636L17.0704 13.5205C17.1024 13.5397 17.1387 13.5507 17.176 13.5524H17.7841C17.8156 13.5524 17.82 13.538 17.7941 13.5209L15.3786 11.9314L18.4787 10.3343C18.5066 10.3196 18.5042 10.3076 18.4724 10.3076Z" fill="white"/>
<path d="M17.1697 10.3076H12.9292L12.2402 13.5532H16.4799C16.5113 13.5532 16.5157 13.5388 16.4894 13.5213L14.0779 11.9322L17.176 10.3343C17.2039 10.3196 17.2011 10.3076 17.1697 10.3076Z" fill="white"/>
<path d="M19.7747 10.3076H19.1665C19.1289 10.3091 19.0919 10.318 19.0578 10.3339L16.0074 11.9059C16.0013 11.9077 15.9959 11.9113 15.992 11.9163C15.9881 11.9212 15.9857 11.9273 15.9854 11.9336C15.985 11.94 15.9867 11.9463 15.99 11.9516C15.9934 11.957 15.9984 11.9612 16.0042 11.9636L18.3708 13.5205C18.4028 13.5397 18.439 13.5507 18.4763 13.5524H19.0849C19.1163 13.5524 19.1207 13.538 19.0944 13.5209L16.6789 11.9314L19.7795 10.3343C19.8093 10.3196 19.8066 10.3076 19.7747 10.3076Z" fill="white"/>
<path d="M16.9807 8.18359H6.99918C6.4416 8.18359 6.05208 8.53447 5.96008 8.9678C5.93569 9.0778 5.94378 9.19253 5.98337 9.29802C6.02297 9.40352 6.09236 9.49523 6.18312 9.56202L9.76957 11.9298H9.77236L16.9871 8.21028C17.0154 8.19594 17.0126 8.18359 16.9807 8.18359Z" fill="white"/>
<path d="M15.3985 15.6449L9.77366 11.9302H9.77127L5.17718 14.2987C4.93264 14.4429 4.75262 14.6548 4.70204 14.8929C4.60924 15.3251 4.8498 15.6763 5.40738 15.6763H15.3889C15.4208 15.6763 15.4248 15.6624 15.3985 15.6449Z" fill="white"/>
</g>
<defs>
<clipPath id="clip0_4784_23370">
<rect width="15.6" height="7.49233" fill="white" transform="translate(4.2002 8.18408)"/>
</clipPath>
</defs>
</svg>
