<svg width="24" height="24" viewBox="0 0 24 24" fill="none" xmlns="http://www.w3.org/2000/svg">
<rect x="0.15" y="0.15" width="23.7" height="23.7" rx="5.85" fill="white"/>
<rect x="0.15" y="0.15" width="23.7" height="23.7" rx="5.85" stroke="#E4E9F1" stroke-width="0.3"/>
<path d="M9.95329 15.0162C9.05135 15.0162 8.32028 14.2851 8.32028 13.3832C8.32028 12.9555 8.48456 12.5661 8.75399 12.2748C8.47251 11.7584 8.31261 11.1664 8.31261 10.5372C8.31261 10.4397 8.31644 10.3433 8.32411 10.248C6.9682 10.7415 6 12.0421 6 13.5683C6 15.5184 7.58153 17.0999 9.53162 17.0999C10.1565 17.0999 10.743 16.9373 11.2522 16.653V14.3733C10.9538 14.7643 10.4828 15.0167 9.95329 15.0167V15.0162Z" fill="url(#paint0_linear_4784_23355)"/>
<path d="M9.95318 11.7502C10.1377 11.7502 10.3146 11.7809 10.48 11.8373C10.2965 11.5591 10.1892 11.2261 10.1892 10.868C10.1892 9.8954 10.9772 9.10737 11.9498 9.10737C12.6595 9.10737 13.2707 9.52685 13.5494 10.1314C13.8123 10.069 14.0861 10.0356 14.3681 10.0356C14.7925 10.0356 15.1994 10.1106 15.5762 10.2475C15.4289 8.37465 13.8616 6.8999 11.9493 6.8999C9.94113 6.8999 8.3125 8.52853 8.3125 10.5372C8.3125 11.1664 8.47241 11.7584 8.75388 12.2748C9.05234 11.9523 9.47894 11.7502 9.95318 11.7502V11.7502Z" fill="url(#paint1_linear_4784_23355)"/>
<path d="M14.3671 10.0361C14.0851 10.0361 13.8113 10.0695 13.5484 10.132C13.6519 10.3559 13.7094 10.6057 13.7094 10.8685C13.7094 11.2267 13.6026 11.5596 13.4186 11.8373C13.584 11.7809 13.7609 11.7507 13.9454 11.7507C14.8474 11.7507 15.5785 12.4818 15.5785 13.3837C15.5785 14.2857 14.8474 15.0168 13.9454 15.0168C13.4159 15.0168 12.9449 14.7649 12.6465 14.3738V16.6531C13.1558 16.9378 13.7423 17.0999 14.3671 17.0999C16.3172 17.0999 17.8987 15.5184 17.8987 13.5683C17.8987 11.6182 16.3172 10.0361 14.3671 10.0361V10.0361Z" fill="url(#paint2_linear_4784_23355)"/>
<defs>
<linearGradient id="paint0_linear_4784_23355" x1="9.15704" y1="17.1371" x2="7.94132" y2="10.242" gradientUnits="userSpaceOnUse">
<stop offset="0.15" stop-color="#54C3F1"/>
<stop offset="0.3" stop-color="#4EBDED"/>
<stop offset="0.5" stop-color="#3FACE2"/>
<stop offset="0.73" stop-color="#2691D1"/>
<stop offset="0.97" stop-color="#036CB9"/>
<stop offset="1" stop-color="#0068B7"/>
</linearGradient>
<linearGradient id="paint1_linear_4784_23355" x1="8.07428" y1="10.5274" x2="14.9124" y2="8.03841" gradientUnits="userSpaceOnUse">
<stop offset="0.15" stop-color="#54C3F1"/>
<stop offset="0.3" stop-color="#4EBDED"/>
<stop offset="0.5" stop-color="#3FACE2"/>
<stop offset="0.73" stop-color="#2691D1"/>
<stop offset="0.97" stop-color="#036CB9"/>
<stop offset="1" stop-color="#0068B7"/>
</linearGradient>
<linearGradient id="paint2_linear_4784_23355" x1="15.9382" y1="10.3527" x2="14.7269" y2="17.2248" gradientUnits="userSpaceOnUse">
<stop offset="0.15" stop-color="#54C3F1"/>
<stop offset="0.3" stop-color="#4EBDED"/>
<stop offset="0.5" stop-color="#3FACE2"/>
<stop offset="0.73" stop-color="#2691D1"/>
<stop offset="0.97" stop-color="#036CB9"/>
<stop offset="1" stop-color="#0068B7"/>
</linearGradient>
</defs>
</svg>
