<svg width="24" height="24" viewBox="0 0 24 24" fill="none" xmlns="http://www.w3.org/2000/svg">
<rect x="0.15" y="0.15" width="23.7" height="23.7" rx="5.85" fill="white"/>
<rect x="0.15" y="0.15" width="23.7" height="23.7" rx="5.85" stroke="#E4E9F1" stroke-width="0.3"/>
<g clip-path="url(#clip0_4784_23391)">
<path fill-rule="evenodd" clip-rule="evenodd" d="M10.2921 18.2576C9.99331 18.4601 9.64408 18.5755 9.28345 18.5908C8.86346 18.5832 8.46184 18.4172 8.15902 18.1261C7.85621 17.8349 7.67454 17.4402 7.65039 17.0208L9.34349 16.0151L11.9702 17.1919L10.2921 18.2576Z" fill="#72A3B6"/>
<path fill-rule="evenodd" clip-rule="evenodd" d="M11.2918 13.9289L10.037 13.3765C9.47565 13.1304 8.9473 12.9172 8.9473 12.3018C8.93901 12.1819 8.95671 12.0616 8.99919 11.9492C9.04168 11.8368 9.10795 11.7348 9.19347 11.6504L11.8442 12.8151L11.1928 13.1994C11.0096 13.3075 10.8926 13.4065 10.8926 13.5476C10.8926 13.6887 11.0637 13.8268 11.3008 13.9289H11.2918Z" fill="#96CE8E"/>
<path fill-rule="evenodd" clip-rule="evenodd" d="M12.5231 8.13792L11.2353 8.92143C11.1212 8.99047 10.9651 9.09855 10.9651 9.27266C10.9651 9.44677 11.2653 9.61488 11.5265 9.74096L9.92042 9.0325C9.44911 8.82236 8.9718 8.58821 8.9718 8.01484C8.96858 7.80094 9.03148 7.59126 9.15192 7.41445L12.6342 5.28906C12.8779 5.42307 13.0818 5.61918 13.2252 5.8575C13.3687 6.09581 13.4464 6.36785 13.4507 6.64595C13.4528 6.95804 13.3669 7.2644 13.2028 7.52988C13.0388 7.79537 12.8032 8.00923 12.5231 8.14693V8.13792Z" fill="#72A3B6"/>
<path fill-rule="evenodd" clip-rule="evenodd" d="M15.2573 10.6478L14.9391 10.8309L12.2764 9.65719L15.3684 7.79297C15.6128 7.92773 15.8177 8.1242 15.9625 8.36281C16.1074 8.60141 16.1872 8.87381 16.1939 9.15285C16.1989 9.46665 16.1131 9.77522 15.947 10.0415C15.7808 10.3077 15.5414 10.5204 15.2573 10.6538V10.6478Z" fill="#96CE8E"/>
<path fill-rule="evenodd" clip-rule="evenodd" d="M13.0095 12.9111L14.5855 13.6016C15.1859 13.8657 15.357 14.178 15.357 14.5682C15.3518 14.6837 15.3224 14.7969 15.2707 14.9003C15.219 15.0037 15.1461 15.0951 15.0568 15.1686L12.4121 13.9918L12.8564 13.7457C13.2346 13.5325 13.3637 13.4095 13.3637 13.2714C13.3637 13.1333 13.2707 13.0342 13.0125 12.9141L13.0095 12.9111Z" fill="#72A3B6"/>
<path fill-rule="evenodd" clip-rule="evenodd" d="M15.822 18.714C15.1216 18.209 14.3638 17.7888 13.5645 17.4622L9.55993 15.682C8.55127 15.2317 7.88184 14.6373 7.88184 13.6287C7.88184 12.62 8.35615 12.1757 8.97155 11.7855L9.19369 11.6504C9.10817 11.7348 9.0419 11.8368 8.99941 11.9492C8.95693 12.0616 8.93923 12.1819 8.94753 12.3018C8.94753 12.9172 9.47587 13.1304 10.0372 13.3765L14.6963 15.4298C15.5128 15.7811 16.2513 16.3815 16.2513 17.3961C16.2613 17.8713 16.11 18.3359 15.822 18.714V18.714Z" fill="#4C9847"/>
<path fill-rule="evenodd" clip-rule="evenodd" d="M15.3421 14.9826L15.0419 15.1657C15.1312 15.0923 15.204 15.0009 15.2557 14.8974C15.3074 14.794 15.3369 14.6809 15.3421 14.5653C15.3421 14.1751 15.1589 13.8629 14.5705 13.5987L9.5873 11.4103C8.57865 10.957 7.95124 10.3836 7.95124 9.38098C7.94795 8.97488 8.05694 8.57578 8.26619 8.22773C8.47544 7.87969 8.77681 7.59624 9.13701 7.40869C9.01658 7.5855 8.95367 7.79518 8.95689 8.00908C8.95689 8.58245 9.4342 8.81661 9.90551 9.02675L14.7477 11.1641C15.6332 11.5574 16.3477 12.1518 16.3477 13.2205C16.358 13.5792 16.2678 13.9337 16.0875 14.2439C15.9072 14.5542 15.6438 14.808 15.327 14.9766L15.3421 14.9826Z" fill="#296085"/>
</g>
<defs>
<clipPath id="clip0_4784_23391">
<rect width="8.71767" height="13.4277" fill="white" transform="translate(7.6416 5.28613)"/>
</clipPath>
</defs>
</svg>
