<svg width="24" height="24" viewBox="0 0 24 24" fill="none" xmlns="http://www.w3.org/2000/svg">
<rect width="24" height="24" rx="6" fill="#0056A7"/>
<g clip-path="url(#clip0_4784_23367)">
<path d="M17.3424 13.0078C16.759 14.4324 15.781 14.8353 15.781 14.8353C18.6578 11.9709 16.9009 8.67032 16.9009 8.67032C16.4763 7.93057 17.017 7.60855 17.017 7.60855C15.7816 7.91166 16.1678 8.9173 16.1678 8.9173C16.7885 10.3702 16.6634 11.5502 16.4528 12.2805L16.0457 12.0565L16.0517 12.0471C16.0517 12.0471 17.0164 8.31226 13.0817 7.00233L13.0787 6.2998H12.2481V10.928L16.11 13.0905C16.0396 13.2312 15.9651 13.3629 15.8875 13.4882L12.0087 11.2807L8.11315 13.4876C8.03556 13.3629 7.96099 13.2306 7.89062 13.0899L11.7519 10.9274V6.2998H10.9219L10.9183 7.00233C6.98363 8.31226 7.94835 12.0471 7.94835 12.0471L7.95437 12.0565L7.54719 12.2805C7.33608 11.5502 7.21098 10.3702 7.83227 8.9173C7.83227 8.9173 8.21841 7.91166 6.98243 7.60855C6.98243 7.60855 7.52313 7.93057 7.09851 8.67032C7.09851 8.67032 5.34167 11.9709 8.21841 14.8353C8.21841 14.8353 7.24045 14.4324 6.65704 13.0078C6.65704 13.0078 6.32625 12.313 5.39941 12.4642C5.39941 12.4642 5.74886 12.6196 5.95455 13.2495C5.95455 13.2495 6.78996 15.8593 10.0143 16.2575V17.6992H11.5979V15.5745C11.5979 15.5745 9.9181 15.5615 8.63581 14.1753L9.03337 13.9473C9.10795 14.0164 10.3271 15.1248 11.9901 15.1538C11.9931 15.1538 11.9961 15.1538 11.9997 15.1538C12.0027 15.1538 12.0063 15.1538 12.0093 15.1538C13.6723 15.1243 14.8915 14.0158 14.9661 13.9467L15.3642 14.1747C14.0819 15.5609 12.4021 15.5739 12.4021 15.5739V17.6986H13.9857V16.2569C17.2101 15.8587 18.0449 13.2489 18.0449 13.2489C18.25 12.619 18.6 12.4636 18.6 12.4636C17.6732 12.3118 17.3424 13.0072 17.3424 13.0072V13.0078ZM15.2794 11.6299L15.2764 11.6335L13.0974 10.4346L13.0853 7.87385H13.0974C13.0974 7.87385 15.7233 8.57579 15.2794 11.6293V11.6299ZM10.9027 7.87385H10.9147L10.9027 10.4346L8.72362 11.6335L8.72062 11.6299C8.27675 8.57579 10.9027 7.87444 10.9027 7.87444V7.87385ZM12.0063 12.248L14.1788 13.4959V13.4994L14.1595 13.4888C13.3824 14.0914 12.6415 14.2906 12.0003 14.2911C11.3592 14.2911 10.6182 14.0914 9.84111 13.4888L9.82187 13.4994V13.4959L12.0069 12.248H12.0063Z" fill="white"/>
</g>
<defs>
<clipPath id="clip0_4784_23367">
<rect width="13.2" height="11.4" fill="white" transform="translate(5.40039 6.2998)"/>
</clipPath>
</defs>
</svg>
