<svg width="24" height="24" viewBox="0 0 24 24" fill="none" xmlns="http://www.w3.org/2000/svg">
<rect width="24" height="24" rx="6" fill="#1277BD"/>
<path d="M9.31989 11.9727C10.6691 12.8402 10.7998 13.6166 10.5098 14.2566C10.3898 14.5238 10.1363 14.7566 10.1363 14.7566C10.1363 14.7566 11.2814 14.2042 11.6438 13.3966C12.049 12.4947 11.6101 11.5396 10.383 10.7116C9.36636 10.0265 9.78874 9.3784 9.78874 9.3784C9.78874 9.3784 10.1239 8.52457 11.3757 8.52494C12.6556 8.52494 12.75 9.38562 12.75 9.38562L13.25 8.39495C13.32 8.23885 12.4352 7.80018 11.1633 7.7998C9.91096 7.7998 8.75603 8.30329 8.30588 9.30637C7.75555 10.5313 8.45402 11.4168 9.31989 11.9727Z" fill="white"/>
<path d="M17.5511 13.3613C17.7268 12.8685 18.7291 10.3915 17.0044 10.3911C15.8273 10.3911 14.4954 11.3146 14.4954 11.3146L15.6642 8.59475C15.6642 8.59475 15.9877 7.94275 15.2397 7.94238H14.0346C14.0346 7.94238 14.4818 8.11885 14.0867 8.99916L12.3436 12.9693C12.3436 12.9693 11.3541 15.116 9.36385 15.1156C6.74439 15.1156 6.94716 12.4537 6.94716 12.4537L6 14.544C6 14.544 6.84679 16.1531 8.91777 16.1535C10.1701 16.1535 10.9645 15.6256 11.3504 15.2091C11.3504 15.2091 10.9765 16.0794 11.9685 16.0794H12.9869C12.9869 16.0794 12.7001 15.8794 12.7214 15.6259C12.7427 15.3724 13.0834 14.5716 13.3139 14.1523C13.5445 13.7331 14.6866 11.6992 16.0177 11.5714C17.2176 11.4566 15.4094 15.2256 15.4094 15.2256C15.4094 15.2256 15.0601 16.0415 15.9673 16.0655C16.8744 16.0896 17.0413 16.0887 17.0413 16.0887C17.0413 16.0887 16.7 15.8335 16.8685 15.3687C17.037 14.9039 17.3752 13.8544 17.5511 13.3613Z" fill="white"/>
</svg>
