<svg width="24" height="24" viewBox="0 0 24 24" fill="none" xmlns="http://www.w3.org/2000/svg">
<rect width="24" height="24" rx="6" fill="#0064FF"/>
<path d="M12.6533 8.88781L13.1509 6.50524C13.1565 6.47752 13.1553 6.44881 13.1472 6.42171C13.1392 6.39461 13.1247 6.36995 13.1049 6.34993C13.0852 6.32992 13.0609 6.31519 13.0342 6.30705C13.0075 6.2989 12.9792 6.2976 12.9519 6.30327C12.1868 6.44377 11.4403 6.67351 10.7272 6.98792C7.37224 8.43081 5.34047 11.2578 6.19524 13.3078C6.83913 14.8402 8.92376 15.4941 11.3475 15.1135L10.8487 17.4944C10.8431 17.5221 10.8444 17.5508 10.8524 17.5779C10.8604 17.605 10.875 17.6297 10.8947 17.6497C10.9144 17.6697 10.9387 17.6844 10.9654 17.6926C10.9921 17.7007 11.0204 17.702 11.0478 17.6963C11.8129 17.5553 12.5595 17.3256 13.273 17.0117C16.6336 15.5677 18.6592 12.7401 17.8044 10.6913C17.1616 9.16109 15.077 8.50783 12.6533 8.88781Z" fill="white"/>
</svg>
