<svg width="24" height="24" viewBox="0 0 24 24" fill="none" xmlns="http://www.w3.org/2000/svg">
<rect width="24" height="24" rx="4.8" fill="#0067AC"/>
<path d="M17.3996 12.0001C17.3996 13.0678 17.0831 14.1115 16.4901 14.9993C15.8971 15.8872 15.0542 16.5793 14.068 16.9883C13.0818 17.3972 11.9964 17.5046 10.9491 17.2969C9.90187 17.0892 8.93967 16.5758 8.18414 15.8214C7.42861 15.067 6.91367 14.1056 6.70438 13.0586C6.49509 12.0117 6.60085 10.9262 7.0083 9.93931C7.41575 8.95245 8.1066 8.10852 8.99354 7.51417C9.88049 6.91982 10.9237 6.60173 11.9914 6.6001C12.7012 6.59902 13.4043 6.7379 14.0604 7.00879C14.7165 7.27968 15.3128 7.67728 15.8151 8.17882C16.3174 8.68036 16.7159 9.27601 16.9878 9.93171C17.2597 10.5874 17.3996 11.2903 17.3996 12.0001Z" fill="white"/>
<path d="M11.9907 17.1493C13.0093 17.1501 14.0052 16.8488 14.8525 16.2835C15.6998 15.7182 16.3605 14.9143 16.7508 13.9735C17.1412 13.0327 17.2437 11.9973 17.0455 10.9982C16.8473 9.99907 16.3572 9.08121 15.6373 8.36068C14.9173 7.64015 13.9998 7.14933 13.0009 6.95032C12.0019 6.7513 10.9664 6.85303 10.0253 7.24263C9.08419 7.63224 8.27976 8.29221 7.71378 9.13907C7.14781 9.98592 6.84571 10.9816 6.8457 12.0002C6.84516 12.6762 6.97785 13.3457 7.23617 13.9704C7.49449 14.5951 7.87337 15.1627 8.35119 15.6409C8.829 16.1191 9.39637 16.4985 10.0209 16.7573C10.6454 17.0161 11.3147 17.1493 11.9907 17.1493Z" fill="#0083CA"/>
<mask id="mask0_4784_23346" style="mask-type:luminance" maskUnits="userSpaceOnUse" x="6" y="6" width="12" height="12">
<path d="M11.9907 17.1494C13.0083 17.1494 14.003 16.8476 14.8491 16.2823C15.6952 15.717 16.3547 14.9134 16.7441 13.9733C17.1335 13.0332 17.2354 11.9987 17.0369 11.0006C16.8383 10.0026 16.3483 9.08585 15.6288 8.36631C14.9092 7.64677 13.9925 7.15676 12.9945 6.95824C11.9964 6.75972 10.9619 6.8616 10.0218 7.25102C9.08167 7.64043 8.27814 8.29988 7.7128 9.14597C7.14746 9.99206 6.8457 10.9868 6.8457 12.0044C6.84679 13.3686 7.38921 14.6766 8.35385 15.6413C9.31849 16.6059 10.6265 17.1483 11.9907 17.1494Z" fill="white"/>
</mask>
<g mask="url(#mask0_4784_23346)">
<path d="M12.0492 14.4842C14.3153 14.4842 16.2483 15.1176 17.0832 16.0101C17.3606 15.3516 17.5006 14.6435 17.4945 13.929C17.4554 12.507 16.8631 11.1563 15.8435 10.1643C14.8239 9.17223 13.4574 8.61719 12.0348 8.61719C10.6123 8.61719 9.24582 9.17223 8.22619 10.1643C7.20657 11.1563 6.61423 12.507 6.5752 13.929C6.57847 14.6366 6.72539 15.3362 7.00704 15.9854C7.85426 15.1176 9.79135 14.4842 12.0492 14.4842Z" fill="#0083CA"/>
<path d="M12.0494 14.4886C14.3073 14.4886 16.2361 15.1179 17.071 16.0021C17.3459 15.3516 17.4858 14.652 17.4823 13.9457C17.4823 12.5016 16.9086 11.1166 15.8874 10.0954C14.8662 9.07419 13.4812 8.50049 12.037 8.50049C10.5929 8.50049 9.20785 9.07419 8.18667 10.0954C7.16549 11.1166 6.5918 12.5016 6.5918 13.9457C6.5924 14.6536 6.73943 15.3538 7.02364 16.0021C7.87908 15.1179 9.79561 14.4886 12.0494 14.4886Z" fill="#0085CB"/>
<path d="M12.049 14.4969C14.2987 14.4969 16.2275 15.1179 17.0542 15.998C17.3326 15.3485 17.4727 14.6482 17.4655 13.9416C17.4265 12.5272 16.8373 11.1837 15.8231 10.197C14.8088 9.21028 13.4496 8.6582 12.0346 8.6582C10.6196 8.6582 9.26043 9.21028 8.24619 10.197C7.23196 11.1837 6.64271 12.5272 6.60378 13.9416C6.59658 14.6482 6.73664 15.3485 7.01505 15.998C7.87872 15.1179 9.79937 14.4969 12.049 14.4969Z" fill="#0086CD"/>
<path d="M12.0491 14.5004C14.2946 14.5004 16.2153 15.1173 17.0419 15.9892C17.3173 15.3475 17.4574 14.6558 17.4532 13.9575C17.3986 12.5575 16.8041 11.233 15.7943 10.2618C14.7845 9.29054 13.4378 8.74805 12.0367 8.74805C10.6357 8.74805 9.28904 9.29054 8.27923 10.2618C7.26941 11.233 6.67488 12.5575 6.62031 13.9575C6.61421 14.6547 6.75431 15.3454 7.03158 15.9851C7.8788 15.1173 9.80767 14.5004 12.0491 14.5004Z" fill="#0088CE"/>
<path d="M12.0494 14.5091C14.2868 14.5091 16.2033 15.1177 17.0299 15.9855C17.3049 15.3495 17.445 14.6633 17.4412 13.9703C17.3867 12.5735 16.7935 11.2521 15.786 10.2831C14.7785 9.31418 13.4349 8.77295 12.0371 8.77295C10.6393 8.77295 9.29572 9.31418 8.28821 10.2831C7.2807 11.2521 6.6875 12.5735 6.63299 13.9703C6.62704 14.6635 6.76717 15.3501 7.04427 15.9855C7.87915 15.1177 9.81213 14.5091 12.0494 14.5091Z" fill="#008ACF"/>
<path d="M12.0447 14.5127C14.282 14.5127 16.1903 15.1173 17.0129 15.9769C17.2901 15.3473 17.4302 14.666 17.4241 13.9781C17.4241 11.1444 15.01 8.8125 12.0324 8.8125C9.05475 8.8125 6.6447 11.1444 6.6447 13.9822C6.63903 14.6687 6.77922 15.3486 7.05597 15.9769C7.90319 15.1173 9.8156 14.5127 12.0447 14.5127Z" fill="#008CD0"/>
<path d="M12.0448 14.5175C14.2739 14.5175 16.1822 15.1221 17.0006 15.9693C17.2754 15.3462 17.4156 14.6721 17.4119 13.9911C17.4119 11.178 15.0018 8.8584 12.0324 8.8584C9.06305 8.8584 6.66122 11.1821 6.66122 13.9911C6.65702 14.6721 6.79719 15.3463 7.0725 15.9693C7.91149 15.1221 9.81979 14.5175 12.0448 14.5175Z" fill="#008ED2"/>
<path d="M12.0448 14.5257C14.2698 14.5257 16.1575 15.122 16.9801 15.9651C17.2553 15.3465 17.3955 14.6763 17.3913 13.9993C17.3913 11.2108 14.9895 8.90771 12.0448 8.90771C9.10009 8.90771 6.69826 11.2149 6.69826 14.0034C6.69649 14.6789 6.8366 15.3472 7.10953 15.9651C7.92385 15.122 9.82804 14.5257 12.0448 14.5257Z" fill="#008FD3"/>
<path d="M12.0448 14.5295C14.2615 14.5295 16.1575 15.1217 16.9801 15.9566C17.2553 15.3452 17.3955 14.6817 17.3913 14.0113C17.3913 11.2475 14.9936 8.95264 12.0448 8.95264C9.09597 8.95264 6.69826 11.2475 6.69826 14.0113C6.69646 14.6815 6.83663 15.3445 7.10953 15.9566C7.93207 15.1217 9.83215 14.5295 12.0448 14.5295Z" fill="#0091D4"/>
<path d="M12.0439 14.5379C14.2524 14.5379 16.1566 15.1219 16.9586 15.9527C17.2334 15.3455 17.3737 14.6861 17.3698 14.0197C17.3698 11.2806 14.9804 8.99805 12.0233 8.99805C9.06626 8.99805 6.67677 11.2806 6.67677 14.0197C6.67497 14.6859 6.81518 15.3449 7.08805 15.9527C7.94349 15.1219 9.83535 14.5379 12.0439 14.5379Z" fill="#0093D5"/>
<path d="M12.0449 14.5417C14.2494 14.5417 16.1371 15.1216 16.9473 15.9441C17.2201 15.3436 17.3604 14.6913 17.3586 14.0317C17.3586 11.3132 14.9732 9.04297 12.0367 9.04297C9.10022 9.04297 6.71486 11.3173 6.71486 14.0317C6.71307 14.6913 6.85334 15.3436 7.12613 15.9441C7.95279 15.1216 9.84052 14.5417 12.0449 14.5417Z" fill="#0095D7"/>
<path d="M12.041 14.5456C14.2413 14.5456 16.1249 15.1214 16.931 15.9357C17.2057 15.3416 17.3462 14.6943 17.3423 14.0398C17.3423 11.3459 14.9651 9.10449 12.0328 9.10449C9.10039 9.10449 6.73146 11.3665 6.73146 14.0398C6.72983 14.694 6.87015 15.3409 7.14273 15.9357C7.96527 15.1214 9.8489 14.5456 12.041 14.5456Z" fill="#0097D8"/>
<path d="M12.0401 14.5542C14.2363 14.5542 16.1117 15.1218 16.9178 15.932C17.1902 15.3429 17.3306 14.7014 17.3291 14.0524C17.3291 11.3833 14.9602 9.11719 12.036 9.11719C9.11189 9.11719 6.74708 11.3668 6.74708 14.0524C6.74561 14.7014 6.88597 15.3429 7.15835 15.932C7.97267 15.1218 9.85218 14.5542 12.0401 14.5542Z" fill="#0099D9"/>
<path d="M12.0415 14.5581C14.2295 14.5581 16.1007 15.1257 16.9068 15.9236C17.1796 15.3404 17.32 14.7042 17.3181 14.0605C17.3181 11.416 14.9533 9.17871 12.0374 9.17871C9.12145 9.17871 6.76076 11.416 6.76076 14.0605C6.75888 14.7042 6.89932 15.3404 7.17203 15.9236C7.98635 15.1257 9.85764 14.5581 12.0415 14.5581Z" fill="#009BDA"/>
<path d="M12.0409 14.5665C14.2206 14.5665 16.0919 15.1259 16.8898 15.9196C17.162 15.3407 17.3024 14.7086 17.301 14.0689C17.301 11.4491 14.9444 9.22412 12.0367 9.22412C9.12905 9.22412 6.77247 11.4491 6.77247 14.073C6.77152 14.7114 6.91197 15.342 7.18374 15.9196C7.99394 15.1259 9.86112 14.5665 12.0409 14.5665Z" fill="#009DDC"/>
<path d="M12.04 14.5703C14.2156 14.5703 16.0787 15.1255 16.8766 15.9111C17.1487 15.3394 17.2893 14.714 17.2879 14.0809C17.2879 11.4817 14.9354 9.26904 12.0359 9.26904C9.13644 9.26904 6.78809 11.4858 6.78809 14.0809C6.78848 14.7138 6.92893 15.3388 7.19936 15.9111C8.00545 15.1255 9.86851 14.5703 12.04 14.5703Z" fill="#009FDD"/>
<path d="M12.0402 14.5746C14.2076 14.5746 16.0665 15.1257 16.8644 15.903C17.1371 15.3374 17.2777 14.7172 17.2757 14.0893C17.2757 11.5189 14.9314 9.31445 12.0402 9.31445C9.14893 9.31445 6.80469 11.5189 6.80469 14.0893C6.80463 14.717 6.94516 15.3367 7.21596 15.903C8.01383 15.1257 9.87277 14.5746 12.0402 14.5746Z" fill="#00A1DE"/>
<path d="M12.0366 14.5833C14.204 14.5833 16.0548 15.1262 16.8485 15.8994C17.1198 15.3391 17.2605 14.7246 17.2598 14.1021C17.2598 11.5522 14.9196 9.36426 12.0325 9.36426C9.14539 9.36426 6.81348 11.5522 6.81348 14.1021C6.81434 14.7244 6.95489 15.3386 7.22475 15.8994C8.02262 15.1262 9.87744 14.5833 12.0366 14.5833Z" fill="#00A3DF"/>
<path d="M12.0358 14.5871C14.195 14.5871 16.0416 15.1258 16.8353 15.8908C17.1074 15.3367 17.2481 14.7273 17.2466 14.11C17.2466 11.5848 14.9147 9.40918 12.0358 9.40918C9.15689 9.40918 6.8291 11.5848 6.8291 14.11C6.82961 14.7271 6.97024 15.336 7.24037 15.8908C8.03413 15.1258 9.88484 14.5871 12.0358 14.5871Z" fill="#00A5E1"/>
<path d="M12.0371 14.595C14.1881 14.595 16.0347 15.1255 16.8243 15.8864C17.0941 15.3373 17.2348 14.7338 17.2356 14.122C17.2356 11.6174 14.9078 9.4541 12.0371 9.4541C9.16645 9.4541 6.84277 11.6215 6.84277 14.122C6.84362 14.7338 6.98429 15.3373 7.25405 15.8864C8.04369 15.1255 9.89029 14.595 12.0371 14.595Z" fill="#00A7E2"/>
<path d="M12.0361 14.5993C14.1829 14.5993 16.0213 15.1298 16.811 15.8783C17.0806 15.3351 17.2214 14.7369 17.2222 14.1304C17.2222 11.6628 14.9027 9.49951 12.0402 9.49951C9.17776 9.49951 6.8623 11.6546 6.8623 14.1304C6.86318 14.7369 7.00392 15.3351 7.27358 15.8783C8.05499 15.1504 9.89337 14.5993 12.0361 14.5993Z" fill="#00A9E3"/>
<path d="M12.0365 14.6036C14.1751 14.6036 16.0093 15.13 16.7949 15.8703C17.0646 15.3344 17.2054 14.7429 17.2061 14.1429C17.2061 11.6753 14.8948 9.54492 12.0406 9.54492C9.18635 9.54492 6.875 11.6876 6.875 14.1429C6.87576 14.7429 7.01659 15.3344 7.28627 15.8703C8.06358 15.1506 9.89784 14.6036 12.0365 14.6036Z" fill="#00ABE5"/>
<path d="M12.0368 14.612C14.1713 14.612 15.9974 15.1302 16.7829 15.8663C17.0524 15.3348 17.1933 14.7473 17.1942 14.1513C17.1942 11.7207 14.8869 9.59033 12.0409 9.59033C9.19493 9.59033 6.8877 11.7207 6.8877 14.1513C6.88855 14.7473 7.02943 15.3348 7.29897 15.8663C8.07627 15.1507 9.90643 14.612 12.0368 14.612Z" fill="#00ADE6"/>
<path d="M12.0329 14.6157C14.1632 14.6157 15.9893 15.1298 16.7707 15.8495C17.0385 15.3232 17.1793 14.7415 17.182 14.1509C17.182 11.745 14.883 9.62695 12.0411 9.62695C9.19919 9.62695 6.9043 11.7491 6.9043 14.1509C6.90711 14.7414 7.04795 15.3231 7.31557 15.8495C8.08465 15.1503 9.91069 14.6157 12.0329 14.6157Z" fill="#00AFE7"/>
<path d="M12.0315 14.6237C14.1577 14.6237 15.9756 15.1296 16.7529 15.8576C17.0222 15.3392 17.1632 14.7637 17.1641 14.1796C17.1641 11.7983 14.8692 9.68848 12.0356 9.68848C9.20191 9.68848 6.91113 11.7983 6.91113 14.1796C6.91394 14.7635 7.05487 15.3385 7.3224 15.8576C8.0956 15.1502 9.93399 14.6237 12.0315 14.6237Z" fill="#00B2E9"/>
<path d="M12.0324 14.6281C14.1504 14.6281 15.9641 15.1298 16.7414 15.8619C17.009 15.3473 17.15 14.7763 17.1527 14.1963C17.1527 11.8397 14.866 9.74219 12.0406 9.74219C9.21517 9.74219 6.93262 11.8397 6.93262 14.1963C6.93534 14.7763 7.07633 15.3473 7.34389 15.8619C8.10474 15.1504 9.9349 14.6281 12.0324 14.6281Z" fill="#00B4EA"/>
<path d="M12.0327 14.6327C14.1426 14.6327 15.9522 15.1304 16.7295 15.8377C16.9964 15.3303 17.1374 14.766 17.1407 14.1927C17.1407 11.8566 14.8582 9.77148 12.041 9.77148C9.22375 9.77148 6.94531 11.8566 6.94531 14.1927C6.94861 14.766 7.08966 15.3303 7.35658 15.8377C8.11744 15.1509 9.93526 14.6327 12.0327 14.6327Z" fill="#00B6EB"/>
<path d="M12.0321 14.6405C14.1378 14.6405 15.9392 15.1341 16.7124 15.8332C16.9832 15.3272 17.1245 14.7621 17.1237 14.1881C17.1237 11.8768 14.8452 9.80811 12.0403 9.80811C9.23547 9.80811 6.95703 11.8645 6.95703 14.1881C6.9582 14.7618 7.09938 15.3265 7.3683 15.8332C8.12504 15.1505 9.93464 14.6405 12.0321 14.6405Z" fill="#00B8ED"/>
<path d="M12.0284 14.6447C14.13 14.6447 15.9313 15.1341 16.7004 15.8251C16.9673 15.3294 17.1085 14.7758 17.1117 14.2129C17.1117 11.9262 14.8373 9.86572 12.0366 9.86572C9.23582 9.86572 6.96973 11.9221 6.96973 14.2129C6.97293 14.7758 7.11414 15.3294 7.381 15.8251C8.13363 15.1506 9.93499 14.6447 12.0284 14.6447Z" fill="#01BBEE"/>
<path d="M12.0283 14.6526C14.1258 14.6526 15.919 15.1338 16.688 15.8165C16.9548 15.3267 17.0961 14.7785 17.0993 14.2208C17.0993 11.9588 14.8332 9.91064 12.0407 9.91064C9.24812 9.91064 6.99023 11.967 6.99023 14.2208C6.99343 14.7785 7.13473 15.3267 7.40151 15.8165C8.14591 15.1502 9.93494 14.6526 12.0283 14.6526Z" fill="#11BDF0"/>
<path d="M12.0287 14.6574C14.1179 14.6574 15.907 15.1344 16.6719 15.813C16.9382 15.329 17.0795 14.7862 17.0832 14.2338C17.0832 11.9923 14.8253 9.95654 12.041 9.95654C9.2567 9.95654 7.00293 11.9923 7.00293 14.2297C7.00611 14.7835 7.14747 15.3277 7.4142 15.813C8.15449 15.1509 9.9353 14.6574 12.0287 14.6574Z" fill="#1AC0F1"/>
<path d="M12.0281 14.6612C14.1091 14.6612 15.894 15.1341 16.659 15.8045C16.9252 15.3264 17.0666 14.7889 17.0702 14.2417C17.0702 12.0249 14.8165 10.0015 12.0404 10.0015C9.26431 10.0015 7.01465 12.0249 7.01465 14.2417C7.01775 14.789 7.15923 15.3266 7.42592 15.8045C8.16621 15.1506 9.93468 14.6612 12.0281 14.6612Z" fill="#1FC4F4"/>
<path d="M12.0276 14.6775C14.1087 14.6775 15.8895 15.1464 16.6503 15.8126C16.9165 15.3375 17.058 14.8026 17.0616 14.258C17.0616 12.0577 14.8119 10.0425 12.04 10.0425C9.268 10.0425 7.02246 12.0577 7.02246 14.258C7.02885 14.8023 7.17017 15.3364 7.43373 15.8126C8.16991 15.1505 9.93426 14.6775 12.0276 14.6775Z" fill="#32C5F4"/>
<path d="M12.0284 14.6897C14.1053 14.6897 15.8861 15.1545 16.647 15.8166C16.9112 15.3451 17.0526 14.8148 17.0583 14.2744C17.0583 12.0864 14.8127 10.0835 12.0407 10.0835C9.26878 10.0835 7.02734 12.0864 7.02734 14.2744C7.03301 14.8148 7.17444 15.3451 7.43862 15.8166C8.17479 15.1504 9.9556 14.6897 12.0284 14.6897Z" fill="#3FC7F4"/>
<path d="M12.029 14.7022C14.0853 14.7022 15.8826 15.1629 16.6393 15.8209C16.9052 15.3546 17.0468 14.8278 17.0506 14.291C17.0506 12.1153 14.8092 10.1289 12.0413 10.1289C9.27344 10.1289 7.03613 12.1153 7.03613 14.291C7.04174 14.8275 7.18324 15.3539 7.4474 15.8209C8.18358 15.1505 9.96027 14.7022 12.029 14.7022Z" fill="#4AC8F5"/>
<path d="M12.0283 14.7145C14.0847 14.7145 15.8737 15.1751 16.6346 15.829C16.8983 15.3648 17.0398 14.8412 17.0459 14.3073C17.0459 12.1481 14.8085 10.1699 12.0448 10.1699C9.28105 10.1699 7.04785 12.1481 7.04785 14.3032C7.05344 14.8384 7.19496 15.3635 7.45912 15.829C8.18707 15.1751 9.96376 14.7145 12.0283 14.7145Z" fill="#54CAF5"/>
<path d="M12.0289 14.7396C14.0853 14.7396 15.8702 15.1961 16.6269 15.8459C16.8928 15.3856 17.0345 14.864 17.0382 14.3324C17.0382 12.1897 14.8009 10.2197 12.0413 10.2197C9.28162 10.2197 7.05664 12.1774 7.05664 14.3283C7.06413 14.8594 7.20559 15.38 7.46791 15.8418C8.19175 15.1838 9.96433 14.7396 12.0289 14.7396Z" fill="#5CCCF5"/>
<path d="M12.0289 14.7394C14.0853 14.7394 15.8661 15.1959 16.6228 15.8416C16.8863 15.3833 17.0279 14.865 17.0341 14.3364C17.0341 12.206 14.8009 10.2524 12.0454 10.2524C9.28985 10.2524 7.05664 12.206 7.05664 14.3281C7.06282 14.8568 7.20442 15.375 7.46791 15.8334C8.19586 15.1959 9.96844 14.7394 12.0289 14.7394Z" fill="#64CDF6"/>
<path d="M12.0283 14.7392C14.0847 14.7392 15.8613 15.1874 16.614 15.829C16.8775 15.3752 17.0192 14.8609 17.0252 14.3361C17.0252 12.2222 14.7962 10.2769 12.0447 10.2769C9.29334 10.2769 7.06836 12.2222 7.06836 14.3361C7.06945 14.8589 7.20394 15.3727 7.45907 15.829C8.19936 15.2039 9.97194 14.7392 12.0283 14.7392Z" fill="#6CCFF6"/>
<path d="M12.0289 14.7678C14.0853 14.7678 15.8537 15.2161 16.6105 15.8494C16.8739 15.4 17.0156 14.8897 17.0218 14.3688C17.0218 12.2673 14.7927 10.3384 12.0454 10.3384C9.29807 10.3384 7.05664 12.2714 7.05664 14.3688C7.06221 14.8898 7.204 15.4002 7.46791 15.8494C8.2082 15.2161 9.97256 14.7678 12.0289 14.7678Z" fill="#73D1F6"/>
<path d="M12.0289 14.78C14.0853 14.78 15.8496 15.2242 16.6023 15.8575C16.8655 15.4111 17.0073 14.9035 17.0135 14.3852C17.0135 12.2959 14.7886 10.3794 12.0454 10.3794C9.30219 10.3794 7.05664 12.2959 7.05664 14.3852C7.06288 14.9035 7.20467 15.4111 7.46791 15.8575C8.21231 15.2242 9.97667 14.78 12.0289 14.78Z" fill="#7AD2F7"/>
<path d="M12.028 14.7927C14.0844 14.7927 15.8446 15.2369 16.5973 15.862C16.8516 15.4173 16.9862 14.9143 16.988 14.402C16.988 12.3456 14.7671 10.4209 12.028 10.4209C9.28896 10.4209 7.09277 12.3292 7.09277 14.402C7.09453 14.9143 7.22915 15.4173 7.48349 15.862C8.21555 15.2369 9.9799 14.7927 12.028 14.7927Z" fill="#81D4F7"/>
<path d="M12.0282 14.8049C14.0845 14.8049 15.8407 15.245 16.5892 15.866C16.8522 15.4285 16.9941 14.9288 17.0005 14.4183C17.0005 12.362 14.7796 10.4619 12.0446 10.4619C9.30968 10.4619 7.10938 12.3579 7.10938 14.4142C7.1156 14.9273 7.25749 15.4296 7.52065 15.8701C8.21981 15.245 9.98005 14.8049 12.0282 14.8049Z" fill="#88D6F8"/>
<path d="M12.0294 14.8213C14.0857 14.8213 15.8336 15.2572 16.5863 15.8741C16.8405 15.4354 16.9752 14.9376 16.977 14.4306C16.977 12.3742 14.7602 10.5029 12.0417 10.5029C9.3232 10.5029 7.10645 12.3865 7.10645 14.4306C7.10821 14.9376 7.24293 15.4354 7.49716 15.8741C8.22922 15.2572 9.98535 14.8213 12.0294 14.8213Z" fill="#8ED8F8"/>
<path d="M12.0287 14.8338C14.0851 14.8338 15.8289 15.2451 16.5774 15.8784C16.8387 15.4461 16.9807 14.9523 16.9887 14.4472C16.9887 12.4196 14.776 10.5483 12.0534 10.5483C9.33081 10.5483 7.11816 12.4196 7.11816 14.4472C7.1242 14.9526 7.26627 15.4469 7.52944 15.8784C8.23271 15.2656 9.98884 14.8338 12.0287 14.8338Z" fill="#94DAF8"/>
<path d="M12.028 14.846C14.0844 14.846 15.8241 15.2573 16.552 15.8865C16.8143 15.4577 16.9564 14.9662 16.9633 14.4635C16.9633 12.4483 14.7507 10.5894 12.028 10.5894C9.30542 10.5894 7.09277 12.4483 7.09277 14.4635C7.09524 14.964 7.23004 15.455 7.48349 15.8865C8.23611 15.2737 9.98813 14.846 12.028 14.846Z" fill="#9BDCF9"/>
<path d="M12.0291 14.8582C14.0854 14.8582 15.821 15.2695 16.5531 15.8905C16.8064 15.4634 16.9413 14.9765 16.9438 14.4799C16.9438 12.477 14.7352 10.6304 12.0085 10.6304C9.28177 10.6304 7.07324 12.4811 7.07324 14.4799C7.07573 14.9765 7.21059 15.4634 7.46394 15.8905C8.24125 15.286 9.99327 14.8582 12.0291 14.8582Z" fill="#A1DDF9"/>
<path d="M12.0291 14.871C14.0854 14.871 15.8128 15.2822 16.5531 15.895C16.8063 15.4724 16.9413 14.9894 16.9438 14.4967C16.9438 12.5103 14.7393 10.6719 12.0085 10.6719C9.27766 10.6719 7.07324 12.5103 7.07324 14.4967C7.0762 14.9906 7.21108 15.4748 7.46394 15.8991C8.24947 15.2946 9.99738 14.871 12.0291 14.871Z" fill="#A7DFF9"/>
<path d="M12.0287 14.8832C14.0851 14.8832 15.8083 15.2945 16.5527 15.9031C16.8127 15.4854 16.9549 15.005 16.964 14.513C16.964 12.5389 14.7637 10.7129 12.0287 10.7129C9.29379 10.7129 7.11816 12.5389 7.11816 14.513C7.1269 15.0051 7.26905 15.4855 7.52944 15.9031C8.25327 15.3068 9.99707 14.8873 12.0287 14.8832Z" fill="#ADE1FA"/>
<path d="M12.0279 14.8993C14.0596 14.8993 15.8034 15.3106 16.5519 15.9069C16.805 15.4918 16.9401 15.0154 16.9426 14.5292C16.9426 12.5674 14.7464 10.7578 12.0361 10.7578C9.32586 10.7578 7.13379 12.5715 7.13379 14.5251C7.13431 15.0123 7.26799 15.4901 7.52039 15.9069C8.25656 15.3147 10.0004 14.8993 12.0279 14.8993Z" fill="#B3E3FA"/>
<path d="M12.0285 14.9115C14.0561 14.9115 15.7998 15.3228 16.5525 15.9109C16.8041 15.4999 16.9379 15.0275 16.9391 14.5455C16.9391 12.6002 14.747 10.7988 12.0408 10.7988C9.33466 10.7988 7.14258 12.6002 7.14258 14.5414C7.14521 15.0263 7.28032 15.5013 7.53329 15.915C8.26124 15.3269 10.005 14.9115 12.0285 14.9115Z" fill="#B8E5FA"/>
<path d="M12.0286 14.9244C14.0562 14.9244 15.7918 15.3357 16.5526 15.9197C16.8056 15.5105 16.9408 15.0394 16.9433 14.5584C16.9433 12.6295 14.7513 10.8569 12.0492 10.8569C9.34715 10.8569 7.15918 12.646 7.15918 14.5584C7.1624 15.0388 7.29602 15.5093 7.54578 15.9197C8.29018 15.3357 10.0052 14.9244 12.0286 14.9244Z" fill="#BEE7FB"/>
<path d="M12.0273 14.9369C14.0508 14.9369 15.7863 15.3482 16.5266 15.924C16.7763 15.5181 16.91 15.0515 16.9132 14.575C16.9132 12.6585 14.7252 10.8735 12.0273 10.8735C9.32936 10.8735 7.14551 12.6543 7.14551 14.575C7.14676 15.0518 7.28062 15.5189 7.5321 15.924C8.28884 15.3482 10.008 14.9369 12.0273 14.9369Z" fill="#C4E9FB"/>
<path d="M12.0281 14.9492C14.0474 14.9492 15.783 15.3605 16.5192 15.9321C16.7702 15.5299 16.9041 15.0656 16.9058 14.5914C16.9058 12.6913 14.7219 10.9229 12.0281 10.9229C9.33424 10.9229 7.15039 12.6913 7.15039 14.5914C7.15423 15.0653 7.28794 15.529 7.53699 15.9321C8.28961 15.3564 10.0128 14.9533 12.0281 14.9492Z" fill="#CAEBFC"/>
<path d="M12.0286 14.9655C14.048 14.9655 15.7794 15.3768 16.5156 15.9361C16.7646 15.5375 16.8984 15.0777 16.9022 14.6077C16.9022 12.72 14.7184 10.9639 12.0286 10.9639C9.33892 10.9639 7.15918 12.72 7.15918 14.6077C7.16294 15.0777 7.29675 15.5375 7.54578 15.9361C8.29018 15.3686 10.0134 14.9655 12.0286 14.9655Z" fill="#CFEDFC"/>
<path d="M12.0282 14.9776C14.0435 14.9776 15.7708 15.3888 16.507 15.9399C16.7558 15.5458 16.8897 15.09 16.8936 14.6239C16.8936 12.7485 14.7138 11.0088 12.0282 11.0088C9.34262 11.0088 7.16699 12.7526 7.16699 14.6239C7.16997 15.0908 7.30238 15.5478 7.54948 15.944C8.28977 15.3765 10.0171 14.9776 12.0282 14.9776Z" fill="#D5EFFC"/>
<path d="M12.029 14.9898C14.0401 14.9898 15.7675 15.4011 16.5036 15.9481C16.7513 15.5566 16.8839 15.1034 16.8861 14.6402C16.8861 12.7813 14.7105 11.0498 12.029 11.0498C9.3475 11.0498 7.17188 12.7813 7.17188 14.6402C7.17532 15.1038 7.30931 15.5571 7.55847 15.9481C8.29054 15.3846 10.022 14.9898 12.029 14.9898Z" fill="#DAF1FD"/>
<path d="M12.0286 15.0025C14.0397 15.0025 15.7629 15.4138 16.495 15.9525C16.7436 15.5659 16.8776 15.1167 16.8816 14.657C16.8816 12.8104 14.706 11.0913 12.0286 11.0913C9.35121 11.0913 7.17969 12.8104 7.17969 14.6529C7.18166 15.1136 7.3143 15.5642 7.56218 15.9525C8.29013 15.3973 10.0257 15.0025 12.0286 15.0025Z" fill="#E0F3FD"/>
<path d="M12.0291 15.0147C14.0361 15.0147 15.7553 15.4054 16.4914 15.9606C16.7362 15.574 16.8686 15.1269 16.8739 14.6693C16.8739 12.8432 14.7024 11.1323 12.0291 11.1323C9.35587 11.1323 7.18848 12.8432 7.18848 14.6693C7.19111 15.1272 7.32374 15.5751 7.57096 15.9606C8.29068 15.4054 10.0262 15.0188 12.0291 15.0147Z" fill="#E6F5FD"/>
<path d="M12.028 15.0311C14.0309 15.0311 15.75 15.4177 16.482 15.9647C16.7291 15.5836 16.8618 15.1397 16.8645 14.6856C16.8645 12.8719 14.6971 11.1733 12.028 11.1733C9.35881 11.1733 7.19141 12.8719 7.19141 14.6856C7.19591 15.1395 7.32851 15.5828 7.5739 15.9647C8.31007 15.4177 10.0292 15.0311 12.028 15.0311Z" fill="#EBF7FE"/>
<path d="M12.0285 15.0436C14.0314 15.0436 15.73 15.4261 16.4744 15.9689C16.7225 15.5927 16.8568 15.1529 16.861 14.7022C16.861 12.9009 14.6936 11.2188 12.0285 11.2188C9.36348 11.2188 7.2002 12.9009 7.2002 14.7022C7.20331 15.1537 7.33607 15.5948 7.58268 15.9731C8.31474 15.4261 10.0339 15.0436 12.0285 15.0436Z" fill="#F1FAFE"/>
<path d="M12.0281 15.0558C14.0269 15.0558 15.7296 15.4383 16.4699 15.9771C16.7144 15.6025 16.8471 15.1659 16.8523 14.7186C16.8523 12.9336 14.689 11.2598 12.0281 11.2598C9.36718 11.2598 7.20801 12.9336 7.20801 14.7186C7.21179 15.1655 7.34306 15.6021 7.58638 15.9771C8.31845 15.4383 10.0334 15.0558 12.0281 15.0558Z" fill="#F7FCFE"/>
<path d="M12.0289 15.0684C14.0235 15.0684 15.7303 15.4467 16.4624 15.9814C16.7062 15.6156 16.8391 15.1871 16.8449 14.7476C16.8449 12.975 14.6857 11.3135 12.0289 11.3135C9.37206 11.3135 7.21289 12.9586 7.21289 14.7476C7.21869 15.1871 7.35152 15.6156 7.59537 15.9814C8.32332 15.4467 10.0383 15.0684 12.0289 15.0684Z" fill="white"/>
</g>
<path d="M11.9918 13.2999C10.39 13.2856 8.79842 13.5558 7.29102 14.0977C7.69541 15.0067 8.35469 15.779 9.18902 16.321C10.0233 16.863 10.9969 17.1515 11.9918 17.1515C12.9868 17.1515 13.9604 16.863 14.7947 16.321C15.629 15.779 16.2883 15.0067 16.6927 14.0977C15.1853 13.5558 13.5937 13.2856 11.9918 13.2999Z" fill="#0083CA"/>
</svg>
